<?xml version="1.0" encoding="UTF-8" standalone="no"?>
<!-- Created with Inkscape (http://www.inkscape.org/) -->

<svg
   xmlns:dc="http://purl.org/dc/elements/1.1/"
   xmlns:cc="http://creativecommons.org/ns#"
   xmlns:rdf="http://www.w3.org/1999/02/22-rdf-syntax-ns#"
   xmlns:svg="http://www.w3.org/2000/svg"
   xmlns="http://www.w3.org/2000/svg"
   xmlns:xlink="http://www.w3.org/1999/xlink"
   xmlns:sodipodi="http://sodipodi.sourceforge.net/DTD/sodipodi-0.dtd"
   xmlns:inkscape="http://www.inkscape.org/namespaces/inkscape"
   width="24"
   height="24"
   id="svg2"
   sodipodi:version="0.32"
   inkscape:version="0.48.4 r9939"
   version="1.0"
   sodipodi:docname="aumonier-fse.svg"
   inkscape:output_extension="org.inkscape.output.svg.inkscape"
   inkscape:export-filename="/home/bersace/Projets/strass/data/styles/strass/xhtml/postes/aumonier.png"
   inkscape:export-xdpi="90"
   inkscape:export-ydpi="90">
  <defs
     id="defs4">
    <linearGradient
       inkscape:collect="always"
       id="linearGradient6275">
      <stop
         style="stop-color:#8f5902;stop-opacity:1;"
         offset="0"
         id="stop6277" />
      <stop
         style="stop-color:#764901;stop-opacity:1"
         offset="1"
         id="stop6279" />
    </linearGradient>
    <linearGradient
       inkscape:collect="always"
       id="linearGradient6255">
      <stop
         style="stop-color:#8f5902;stop-opacity:1;"
         offset="0"
         id="stop6257" />
      <stop
         style="stop-color:#a86801;stop-opacity:1"
         offset="1"
         id="stop6259" />
    </linearGradient>
    <linearGradient
       id="linearGradient3160">
      <stop
         style="stop-color:#eeeeec;stop-opacity:1"
         offset="0"
         id="stop3162" />
      <stop
         style="stop-color:#f9f9f9;stop-opacity:1"
         offset="1"
         id="stop3164" />
    </linearGradient>
    <linearGradient
       id="linearGradient3152">
      <stop
         style="stop-color:#f57900;stop-opacity:1"
         offset="0"
         id="stop3154" />
      <stop
         style="stop-color:#ed8600;stop-opacity:1"
         offset="1"
         id="stop3156" />
    </linearGradient>
    <radialGradient
       inkscape:collect="always"
       xlink:href="#linearGradient6255"
       id="radialGradient6261"
       cx="7.6866302"
       cy="7.6398883"
       fx="7.6866302"
       fy="7.6398883"
       r="3.7356453"
       gradientTransform="matrix(5.788781e-8,1.8974843,-2.90491,0,29.879817,-5.6788534)"
       gradientUnits="userSpaceOnUse" />
    <radialGradient
       inkscape:collect="always"
       xlink:href="#linearGradient6275"
       id="radialGradient6281"
       cx="14.252622"
       cy="14.046583"
       fx="14.252622"
       fy="14.046583"
       r="3.7356453"
       gradientTransform="matrix(-2.7978665e-2,-1.4040149,1.489336,-2.9678912e-2,-6.2686915,33.879874)"
       gradientUnits="userSpaceOnUse" />
    <inkscape:perspective
       sodipodi:type="inkscape:persp3d"
       inkscape:vp_x="0 : 526.18109 : 1"
       inkscape:vp_y="0 : 1000 : 0"
       inkscape:vp_z="744.09448 : 526.18109 : 1"
       inkscape:persp3d-origin="372.04724 : 350.78739 : 1"
       id="perspective2390" />
    <inkscape:perspective
       id="perspective10"
       inkscape:persp3d-origin="372.04724 : 350.78739 : 1"
       inkscape:vp_z="744.09448 : 526.18109 : 1"
       inkscape:vp_y="0 : 1000 : 0"
       inkscape:vp_x="0 : 526.18109 : 1"
       sodipodi:type="inkscape:persp3d" />
  </defs>
  <sodipodi:namedview
     id="base"
     pagecolor="#ffffff"
     bordercolor="#666666"
     borderopacity="1.0"
     inkscape:pageopacity="0.0"
     inkscape:pageshadow="2"
     inkscape:zoom="17.206265"
     inkscape:cx="44.5612"
     inkscape:cy="12.234696"
     inkscape:document-units="px"
     inkscape:current-layer="layer1"
     width="24px"
     height="24px"
     borderlayer="false"
     inkscape:window-width="2560"
     inkscape:window-height="1364"
     inkscape:window-x="0"
     inkscape:window-y="33"
     showgrid="true"
     inkscape:window-maximized="1"
     showguides="true"
     inkscape:guide-bbox="true">
    <sodipodi:guide
       orientation="1,0"
       position="23,29.52413"
       id="guide3994" />
    <sodipodi:guide
       orientation="1,0"
       position="1,27.664342"
       id="guide3996" />
    <inkscape:grid
       type="xygrid"
       id="grid4315"
       empspacing="5"
       visible="true"
       enabled="true"
       snapvisiblegridlinesonly="true" />
  </sodipodi:namedview>
  <metadata
     id="metadata7">
    <rdf:RDF>
      <cc:Work
         rdf:about="">
        <dc:format>image/svg+xml</dc:format>
        <dc:type
           rdf:resource="http://purl.org/dc/dcmitype/StillImage" />
        <dc:title></dc:title>
      </cc:Work>
    </rdf:RDF>
  </metadata>
  <g
     inkscape:groupmode="layer"
     id="layer2"
     inkscape:label="Assistant"
     style="display:inline" />
  <g
     inkscape:label="Chef"
     inkscape:groupmode="layer"
     id="layer1"
     style="display:inline">
    <path
       style="fill:#000000;fill-opacity:1;stroke:none"
       d="M 12 1 C 5.9248677 1 1 5.9248679 1 12 C 1 18.075133 5.9248677 23 12 23 C 18.075132 23 23 18.075133 23 12 C 23 5.9248679 18.075132 1 12 1 z M 9.75 3 C 9.7998443 2.9907613 9.8819988 3.0610367 10.0625 3.1875 C 10.794966 3.6824602 11.423876 4.4702651 11.9375 5.0625 C 12.250696 4.593984 12.630992 4.121428 12.875 3.875 C 13.08463 3.6348681 13.333232 3.4233232 13.5625 3.25 C 13.65107 3.151337 13.924381 3.0348731 13.96875 3.0625 C 13.9941 3.078287 13.99393 3.40625 13.96875 3.40625 C 13.794271 5.6993157 13.597109 7.7324751 13.6875 10.3125 C 16.289269 10.3604 18.671245 9.9063255 20.9375 9.71875 C 20.389149 10.696414 19.69802 11.498492 18.84375 11.96875 C 19.657903 12.587688 20.555807 13.236369 21 14.03125 C 21 14.13094 21.011337 14.117149 20.8125 14.09375 C 18.552374 13.877758 16.130373 13.713651 14.0625 13.65625 C 13.894782 13.64825 13.829509 13.64236 13.78125 13.6875 C 13.514418 16.114605 14.282508 18.930787 14.3125 21 C 14.28093 21 14.198179 20.97685 14.15625 20.9375 C 13.379471 20.291748 12.529571 19.620638 12.15625 18.90625 C 12.09281 18.84566 12.079552 18.84566 12.03125 18.90625 C 11.577628 19.744074 10.842604 20.428085 10.21875 20.90625 C 10.19306 20.91005 10.12774 20.94034 10.09375 20.96875 C 10.04091 21.01293 10.03524 20.99976 10.03125 20.9375 C 10.1708 18.796169 10.374662 15.800794 10.3125 13.78125 C 10.3079 13.75986 10.3097 13.73565 10.3125 13.71875 C 8.0145811 13.65621 5.5329106 14.039384 3.46875 14.3125 C 3.405064 14.3222 3.2779069 14.33143 3.1875 14.34375 L 3 14.375 L 3.0625 14.25 C 3.09344 14.18991 3.104531 14.142573 3.09375 14.125 C 3.08297 14.10742 3.125451 14.09375 3.15625 14.09375 C 3.6135633 13.429734 4.2415098 12.683161 4.84375 12.28125 C 4.9597545 12.2201 5.0625 12.141872 5.0625 12.125 C 5.0625 12.10813 5.093157 12.09375 5.125 12.09375 C 5.156843 12.09375 5.1875 12.07927 5.1875 12.0625 C 5.1875 12.01913 4.9512098 11.90625 4.875 11.90625 C 4.839872 11.90625 4.830629 11.89639 4.84375 11.875 C 4.85687 11.85361 4.844541 11.8125 4.8125 11.8125 C 4.780458 11.8125 4.735726 11.80799 4.71875 11.78125 C 4.685183 11.72839 4.4440671 11.5625 4.40625 11.5625 C 4.33339 11.5625 3.2325749 10.400508 3.25 10.34375 C 3.25551 10.32582 3.21954 10.29364 3.1875 10.28125 C 3.15546 10.26886 3.125 10.24875 3.125 10.21875 C 3.125 10.18875 3.103093 10.12877 3.0625 10.09375 C 3.021906 10.05873 2.988252 9.9995956 3 9.96875 C 5.0322924 10.012959 7.7681948 10.402628 10.21875 10.3125 C 10.25896 10.28574 10.2835 10.148593 10.28125 9.71875 C 10.180265 7.3547716 9.9364233 5.229972 9.6875 3.25 C 9.6781627 3.0918109 9.7001557 3.0092387 9.75 3 z M 11.90625 6.6875 C 10.775211 7.9556148 10.302237 9.0095988 10.84375 10.46875 C 11.132427 11.062096 11.40507 11.776712 11.53125 12.34375 C 11.54504 12.35444 11.56392 12.39472 11.5625 12.4375 C 11.667474 12.922126 11.698216 13.276927 11.625 13.6875 C 11.6198 13.804637 11.6124 13.933636 11.59375 13.96875 C 11.5751 14.00386 11.55204 14.05196 11.5625 14.0625 C 11.57296 14.07304 11.55298 14.130004 11.53125 14.1875 C 11.49499 14.28359 11.489203 14.289369 11.3125 14.28125 C 11.181075 14.27525 11.133035 14.24726 11.15625 14.21875 C 11.17493 14.19581 11.20553 14.115905 11.21875 14.03125 C 11.23197 13.9466 11.26501 13.85534 11.28125 13.84375 C 11.37659 13.334701 11.35757 12.944942 11.28125 12.40625 C 11.12463 11.823802 10.775222 11.278244 10.1875 10.96875 C 9.9511098 10.851047 9.8683643 10.847588 9.59375 10.84375 C 8.8619891 10.86257 8.4906421 11.160174 8.21875 11.875 C 8.230239 11.89373 8.206474 11.89443 8.1875 11.90625 C 8.153199 11.92761 8.151566 12.326 8.1875 12.4375 C 8.2983828 12.770782 8.561383 13.000635 8.84375 13.21875 C 8.9605085 13.28121 9.0518856 13.33031 9.0625 13.34375 C 9.089544 13.378 9.3973225 13.41934 9.75 13.4375 C 9.9856234 13.44963 10.03125 13.44837 10.03125 13.40625 C 10.03125 13.37681 10.005906 13.32458 9.96875 13.3125 C 9.883352 13.28472 9.625 13.050796 9.625 13 C 9.625 12.97905 9.568216 12.912248 9.53125 12.875 C 9.450573 12.79372 9.4542139 12.34375 9.53125 12.34375 C 9.55618 12.34375 9.581505 12.29915 9.59375 12.25 C 9.644603 12.045866 10.120001 11.890352 10.40625 12 C 10.715245 12.174276 10.828643 12.432826 10.96875 12.6875 C 11.0237 12.799738 11.05214 13.021834 11.0625 13.15625 C 11.0638 13.451192 11.02458 13.545051 10.9375 13.71875 C 10.737611 13.983082 10.589531 14.207697 10.5 14.5 C 10.47732 14.53069 10.47537 14.53125 10.5 14.53125 C 10.52147 14.53125 10.5342 14.58757 10.53125 14.625 C 10.767563 14.759026 10.962534 14.70476 11.3125 14.71875 C 11.416209 15.002191 11.081951 15.415012 10.9375 15.6875 C 11.289625 16.049736 11.697458 16.434462 12.09375 16.6875 C 12.44555 16.397702 12.791441 16.030234 13.09375 15.71875 C 13.05632 15.460454 12.824765 15.040606 12.75 14.71875 C 12.80655 14.69688 13.123414 14.66066 13.375 14.65625 L 13.53125 14.65625 L 13.53125 14.46875 C 13.385965 14.094088 13.129028 13.744535 13.03125 13.46875 C 12.97455 13.43254 12.91401 12.78125 12.96875 12.78125 C 13.06043 12.259675 13.508386 12.02227 14 11.96875 C 14.09846 11.95803 14.40625 12.207658 14.40625 12.28125 C 14.40625 12.30373 14.41981 12.34375 14.4375 12.34375 C 14.572189 12.782353 14.43073 12.988516 14.09375 13.28125 L 13.96875 13.375 L 14.09375 13.40625 C 14.250406 13.46127 14.605021 13.461545 14.78125 13.40625 C 14.968482 13.34748 15.25 13.22431 15.25 13.1875 C 15.25 13.17101 15.28407 13.15625 15.3125 13.15625 C 15.37281 13.15625 15.613937 12.88844 15.625 12.8125 C 15.797409 12.528875 15.822908 12.258843 15.78125 11.9375 C 15.76464 11.91043 15.72058 11.822029 15.71875 11.75 C 15.71475 11.642798 15.657806 11.573694 15.625 11.5 C 15.65565 11.41953 15.340914 11.12355 15.09375 11 C 14.827058 10.866687 14.670346 10.839164 14.28125 10.84375 C 13.817249 10.83385 13.552391 11.060712 13.25 11.34375 C 13.015896 11.580674 12.90551 11.742799 12.8125 11.9375 C 12.74222 12.084629 12.695681 12.217918 12.6875 12.25 C 12.65435 12.379999 12.65297 13.475011 12.6875 13.5 C 12.70775 13.51465 12.72007 13.550972 12.71875 13.59375 C 12.71745 13.63653 12.73518 13.697359 12.75 13.71875 C 12.79896 13.78922 12.897657 14.195923 12.875 14.21875 C 12.85319 14.24072 12.717203 14.25966 12.5625 14.25 C 12.51742 14.2472 12.47159 14.19529 12.46875 14.15625 C 12.45631 13.98551 12.43643 13.9375 12.40625 13.9375 C 12.38829 13.9375 12.39259 13.89732 12.40625 13.875 C 12.41995 13.85267 12.42662 13.80705 12.40625 13.78125 C 12.37122 13.251175 12.36539 12.279087 12.4375 12 C 12.46816 11.96257 12.49347 11.876664 12.5 11.8125 C 12.59923 11.325376 12.857929 10.931075 12.96875 10.53125 C 13.107782 10.292929 13.162231 10.026476 13.21875 9.78125 C 13.2339 8.4162274 12.826859 7.5227483 12.09375 6.8125 C 12.02311 6.731956 11.955735 6.6895078 11.90625 6.6875 z "
       id="path4367" />
    <rect
       rx="0"
       ry="0"
       y="-7.1467624"
       x="-12.986979"
       height="5.9128523"
       width="6.3851833"
       id="rect3799"
       style="fill:#f4a724;fill-opacity:1;fill-rule:evenodd;stroke:none" />
    <rect
       style="fill:#d82124;fill-opacity:1;fill-rule:evenodd;stroke:none"
       id="rect3803"
       width="6.3851833"
       height="5.9128523"
       x="-12.986979"
       y="0.58298022"
       ry="0"
       rx="0" />
    <rect
       rx="0"
       ry="0"
       y="8.7776699"
       x="-12.986979"
       height="5.9128523"
       width="6.3851833"
       id="rect3805"
       style="fill:#499a00;fill-opacity:1;fill-rule:evenodd;stroke:none" />
    <rect
       style="fill:#f5e121;fill-opacity:1;fill-rule:evenodd;stroke:none"
       id="rect3807"
       width="6.3851833"
       height="5.9128523"
       x="-12.986979"
       y="16.62365"
       ry="0"
       rx="0" />
    <rect
       style="fill:#f4a724;fill-opacity:1;fill-rule:evenodd;stroke:none"
       id="rect3815"
       width="6.3851833"
       height="5.9128523"
       x="-12.986979"
       y="-7.1467624"
       ry="0"
       rx="0" />
    <rect
       rx="0"
       ry="0"
       y="0.58298022"
       x="-20.774839"
       height="5.9128523"
       width="6.3851833"
       id="rect3817"
       style="fill:#7b520b;fill-opacity:1;fill-rule:evenodd;stroke:none" />
    <rect
       rx="0"
       ry="0"
       y="-7.1467624"
       x="-20.774839"
       height="5.9128523"
       width="6.3851833"
       id="rect3819"
       style="fill:#b3b3b3;fill-opacity:1;fill-rule:evenodd;stroke:none" />
    <rect
       style="fill:#fafdff;fill-opacity:1;fill-rule:evenodd;stroke:none"
       id="rect3867"
       width="6.3851833"
       height="5.9128523"
       x="-20.774839"
       y="8.7195511"
       ry="0"
       rx="0" />
    <path
       style="fill:#000000"
       d=""
       id="path3034-2"
       inkscape:connector-curvature="0" />
    <path
       style="fill:#000000"
       d=""
       id="path3034-7"
       inkscape:connector-curvature="0" />
    <path
       style="fill:#000000"
       d=""
       id="path3034"
       inkscape:connector-curvature="0" />
    <path
       style="fill:#000000"
       d=""
       id="path3034-9"
       inkscape:connector-curvature="0" />
    <path
       style="fill:#000000"
       d=""
       id="path3034-4"
       inkscape:connector-curvature="0" />
    <path
       style="fill:#000000"
       d=""
       id="path3034-6"
       inkscape:connector-curvature="0" />
  </g>
</svg>
