<?xml version="1.0" encoding="UTF-8" standalone="no"?>
<!-- Created with Inkscape (http://www.inkscape.org/) -->

<svg
   xmlns:dc="http://purl.org/dc/elements/1.1/"
   xmlns:cc="http://creativecommons.org/ns#"
   xmlns:rdf="http://www.w3.org/1999/02/22-rdf-syntax-ns#"
   xmlns:svg="http://www.w3.org/2000/svg"
   xmlns="http://www.w3.org/2000/svg"
   xmlns:xlink="http://www.w3.org/1999/xlink"
   xmlns:sodipodi="http://sodipodi.sourceforge.net/DTD/sodipodi-0.dtd"
   xmlns:inkscape="http://www.inkscape.org/namespaces/inkscape"
   width="24"
   height="24"
   id="svg2"
   sodipodi:version="0.32"
   inkscape:version="0.48.4 r9939"
   version="1.0"
   sodipodi:docname="aumonier-suf.svg"
   inkscape:output_extension="org.inkscape.output.svg.inkscape"
   inkscape:export-filename="/home/bersace/Projets/strass/data/styles/strass/xhtml/postes/aumonier.png"
   inkscape:export-xdpi="90"
   inkscape:export-ydpi="90">
  <defs
     id="defs4">
    <linearGradient
       inkscape:collect="always"
       id="linearGradient6275">
      <stop
         style="stop-color:#8f5902;stop-opacity:1;"
         offset="0"
         id="stop6277" />
      <stop
         style="stop-color:#764901;stop-opacity:1"
         offset="1"
         id="stop6279" />
    </linearGradient>
    <linearGradient
       inkscape:collect="always"
       id="linearGradient6255">
      <stop
         style="stop-color:#8f5902;stop-opacity:1;"
         offset="0"
         id="stop6257" />
      <stop
         style="stop-color:#a86801;stop-opacity:1"
         offset="1"
         id="stop6259" />
    </linearGradient>
    <linearGradient
       id="linearGradient3160">
      <stop
         style="stop-color:#eeeeec;stop-opacity:1"
         offset="0"
         id="stop3162" />
      <stop
         style="stop-color:#f9f9f9;stop-opacity:1"
         offset="1"
         id="stop3164" />
    </linearGradient>
    <linearGradient
       id="linearGradient3152">
      <stop
         style="stop-color:#f57900;stop-opacity:1"
         offset="0"
         id="stop3154" />
      <stop
         style="stop-color:#ed8600;stop-opacity:1"
         offset="1"
         id="stop3156" />
    </linearGradient>
    <radialGradient
       inkscape:collect="always"
       xlink:href="#linearGradient6255"
       id="radialGradient6261"
       cx="7.6866302"
       cy="7.6398883"
       fx="7.6866302"
       fy="7.6398883"
       r="3.7356453"
       gradientTransform="matrix(5.788781e-8,1.8974843,-2.90491,0,29.879817,-5.6788534)"
       gradientUnits="userSpaceOnUse" />
    <radialGradient
       inkscape:collect="always"
       xlink:href="#linearGradient6275"
       id="radialGradient6281"
       cx="14.252622"
       cy="14.046583"
       fx="14.252622"
       fy="14.046583"
       r="3.7356453"
       gradientTransform="matrix(-2.7978665e-2,-1.4040149,1.489336,-2.9678912e-2,-6.2686915,33.879874)"
       gradientUnits="userSpaceOnUse" />
  </defs>
  <sodipodi:namedview
     id="base"
     pagecolor="#ffffff"
     bordercolor="#666666"
     borderopacity="1.0"
     inkscape:pageopacity="0.0"
     inkscape:pageshadow="2"
     inkscape:zoom="17.206265"
     inkscape:cx="28.947417"
     inkscape:cy="18.980882"
     inkscape:document-units="px"
     inkscape:current-layer="layer1"
     width="24px"
     height="24px"
     borderlayer="false"
     inkscape:window-width="2560"
     inkscape:window-height="1364"
     inkscape:window-x="0"
     inkscape:window-y="33"
     showgrid="true"
     inkscape:window-maximized="1"
     showguides="true"
     inkscape:guide-bbox="true">
    <sodipodi:guide
       orientation="1,0"
       position="23,29.52413"
       id="guide3994" />
    <sodipodi:guide
       orientation="1,0"
       position="1,27.664342"
       id="guide3996" />
    <inkscape:grid
       type="xygrid"
       id="grid4315"
       empspacing="5"
       visible="true"
       enabled="true"
       snapvisiblegridlinesonly="true" />
  </sodipodi:namedview>
  <metadata
     id="metadata7">
    <rdf:RDF>
      <cc:Work
         rdf:about="">
        <dc:format>image/svg+xml</dc:format>
        <dc:type
           rdf:resource="http://purl.org/dc/dcmitype/StillImage" />
        <dc:title></dc:title>
      </cc:Work>
    </rdf:RDF>
  </metadata>
  <g
     inkscape:groupmode="layer"
     id="layer2"
     inkscape:label="Assistant"
     style="display:inline" />
  <g
     inkscape:label="Chef"
     inkscape:groupmode="layer"
     id="layer1"
     style="display:inline">
    <path
       style="fill:#333333;fill-opacity:1;stroke:none"
       d="M 12 1 C 5.9248677 1 1 5.9248679 1 12 C 1 18.075133 5.9248677 23 12 23 C 18.075132 23 23 18.075133 23 12 C 23 5.9248679 18.075132 1 12 1 z M 7.0625 4 L 12.0625 4 L 16.9375 4 L 16.9375 5.84375 L 13.84375 5.84375 L 13.84375 10.15625 L 18.15625 10.15625 L 18.15625 7.0625 L 20 7.0625 L 20 11.9375 L 20 16.9375 L 18.15625 16.9375 L 18.15625 13.84375 L 13.84375 13.84375 L 13.84375 18.15625 L 16.9375 18.15625 L 16.9375 20 L 12.0625 20 L 11.9375 20 L 7.0625 20 L 7.0625 18.15625 L 10.15625 18.15625 L 10.15625 13.84375 L 5.84375 13.84375 L 5.84375 16.9375 L 4 16.9375 L 4 12.0625 L 4 7.0625 L 5.84375 7.0625 L 5.84375 10.15625 L 10.15625 10.15625 L 10.15625 5.84375 L 7.0625 5.84375 L 7.0625 4 z M 12 6.0625 L 10.46875 7.84375 C 10.737389 8.81934 10.956153 9.9402682 11.03125 11.09375 C 10.73641 10.82078 10.394947 10.690886 9.9375 10.6875 C 9.0515359 10.6809 8.375 11.366265 8.375 12.1875 C 8.375 12.748093 8.6956137 13.28936 9.1875 13.78125 C 9.3350684 13.320988 9.6263217 12.65625 10.15625 12.65625 C 10.624416 12.65625 10.987148 13.277724 11.03125 13.78125 L 10.46875 13.78125 L 10.46875 14.6875 L 11.0625 14.6875 C 11.0625 15.288005 10.913687 15.72951 10.78125 16.3125 L 12 17.4375 L 13.21875 16.3125 C 13.086313 15.72951 12.9375 15.288005 12.9375 14.6875 L 13.53125 14.6875 L 13.53125 13.78125 L 12.96875 13.78125 C 13.00133 13.409306 13.199474 12.975548 13.5 12.78125 C 13.55464 12.74932 13.630011 12.70483 13.6875 12.6875 C 13.7429 12.67032 13.785229 12.65625 13.84375 12.65625 C 14.373678 12.65625 14.664931 13.320989 14.8125 13.78125 C 14.935471 13.658278 15.056718 13.503395 15.15625 13.375 C 15.25578 13.246606 15.366277 13.133064 15.4375 13 C 15.579947 12.733871 15.625 12.467796 15.625 12.1875 C 15.625 11.776883 15.499317 11.363689 15.21875 11.09375 C 14.938184 10.823811 14.505482 10.684221 14.0625 10.6875 C 13.72883 10.6934 13.435321 10.7855 13.1875 10.9375 C 13.10303 10.98931 13.04246 11.025507 12.96875 11.09375 C 13.04385 9.9402676 13.262612 8.81934 13.53125 7.84375 L 12 6.0625 z "
       id="path4317" />
    <rect
       rx="0"
       ry="0"
       y="-7.1467624"
       x="-12.986979"
       height="5.9128523"
       width="6.3851833"
       id="rect3799"
       style="fill:#f4a724;fill-opacity:1;fill-rule:evenodd;stroke:none" />
    <rect
       style="fill:#d82124;fill-opacity:1;fill-rule:evenodd;stroke:none"
       id="rect3803"
       width="6.3851833"
       height="5.9128523"
       x="-12.986979"
       y="0.58298022"
       ry="0"
       rx="0" />
    <rect
       rx="0"
       ry="0"
       y="8.7776699"
       x="-12.986979"
       height="5.9128523"
       width="6.3851833"
       id="rect3805"
       style="fill:#499a00;fill-opacity:1;fill-rule:evenodd;stroke:none" />
    <rect
       style="fill:#f5e121;fill-opacity:1;fill-rule:evenodd;stroke:none"
       id="rect3807"
       width="6.3851833"
       height="5.9128523"
       x="-12.986979"
       y="16.62365"
       ry="0"
       rx="0" />
    <rect
       style="fill:#f4a724;fill-opacity:1;fill-rule:evenodd;stroke:none"
       id="rect3815"
       width="6.3851833"
       height="5.9128523"
       x="-12.986979"
       y="-7.1467624"
       ry="0"
       rx="0" />
    <rect
       rx="0"
       ry="0"
       y="0.58298022"
       x="-20.774839"
       height="5.9128523"
       width="6.3851833"
       id="rect3817"
       style="fill:#7b520b;fill-opacity:1;fill-rule:evenodd;stroke:none" />
    <rect
       rx="0"
       ry="0"
       y="-7.1467624"
       x="-20.774839"
       height="5.9128523"
       width="6.3851833"
       id="rect3819"
       style="fill:#b3b3b3;fill-opacity:1;fill-rule:evenodd;stroke:none" />
    <rect
       style="fill:#fafdff;fill-opacity:1;fill-rule:evenodd;stroke:none"
       id="rect3867"
       width="6.3851833"
       height="5.9128523"
       x="-20.774839"
       y="8.7195511"
       ry="0"
       rx="0" />
    <path
       style="fill:#000000"
       d=""
       id="path3034-2"
       inkscape:connector-curvature="0" />
    <path
       style="fill:#000000"
       d=""
       id="path3034-7"
       inkscape:connector-curvature="0" />
    <path
       style="fill:#000000"
       d=""
       id="path3034"
       inkscape:connector-curvature="0" />
    <path
       style="fill:#000000"
       d=""
       id="path3034-9"
       inkscape:connector-curvature="0" />
    <path
       style="fill:#000000"
       d=""
       id="path3034-4"
       inkscape:connector-curvature="0" />
    <path
       style="fill:#000000"
       d=""
       id="path3034-6"
       inkscape:connector-curvature="0" />
    <path
       id="path4321"
       d="m 7.0681818,-17.863013 0,1.840909 3.0909092,0 0,4.318182 -4.318182,0 0,-3.090909 -1.8409091,0 0,4.9999996 0,4.8636364 1.8409091,0 0,-3.0909091 4.318182,0 0,4.3181818 -3.0909092,0 0,1.8409091 4.8636362,0 0.136364,0 4.863636,0 0,-1.8409091 -3.090909,0 0,-4.3181818 4.318182,0 0,3.0909091 1.840909,0 0,-5.0000001 0,-4.8636359 -1.840909,0 0,3.090909 -4.318182,0 0,-4.318182 3.090909,0 0,-1.840909 -4.863636,0 -5.0000002,0 z"
       style="fill:#000000;fill-opacity:1;stroke:none"
       inkscape:connector-curvature="0" />
  </g>
</svg>
