<?xml version="1.0" encoding="UTF-8" standalone="no"?>
<!-- Created with Inkscape (http://www.inkscape.org/) -->
<svg
   xmlns:dc="http://purl.org/dc/elements/1.1/"
   xmlns:cc="http://web.resource.org/cc/"
   xmlns:rdf="http://www.w3.org/1999/02/22-rdf-syntax-ns#"
   xmlns:svg="http://www.w3.org/2000/svg"
   xmlns="http://www.w3.org/2000/svg"
   xmlns:sodipodi="http://sodipodi.sourceforge.net/DTD/sodipodi-0.dtd"
   xmlns:inkscape="http://www.inkscape.org/namespaces/inkscape"
   width="285"
   height="602"
   id="svg2"
   sodipodi:version="0.32"
   inkscape:version="0.45.1"
   version="1.0"
   sodipodi:docbase="/home/bersace/WWW/morel/www/.test/resources/styles/morel/css/xcf"
   sodipodi:docname="décidant.svg"
   inkscape:output_extension="org.inkscape.output.svg.inkscape"
   inkscape:export-filename="/home/bersace/WWW/morel/www/.test/resources/styles/morel/css/pélerin/décidant.png"
   inkscape:export-xdpi="20.209999"
   inkscape:export-ydpi="20.209999">
  <defs
     id="defs4" />
  <sodipodi:namedview
     id="base"
     pagecolor="#ffffff"
     bordercolor="#666666"
     borderopacity="1.0"
     inkscape:pageopacity="0.0"
     inkscape:pageshadow="2"
     inkscape:zoom="0.49497475"
     inkscape:cx="185.03589"
     inkscape:cy="269.37343"
     inkscape:document-units="px"
     inkscape:current-layer="layer1"
     width="285px"
     height="602px"
     inkscape:window-width="872"
     inkscape:window-height="627"
     inkscape:window-x="199"
     inkscape:window-y="45" />
  <metadata
     id="metadata7">
    <rdf:RDF>
      <cc:Work
         rdf:about="">
        <dc:format>image/svg+xml</dc:format>
        <dc:type
           rdf:resource="http://purl.org/dc/dcmitype/StillImage" />
      </cc:Work>
    </rdf:RDF>
  </metadata>
  <g
     inkscape:label="Calque 1"
     inkscape:groupmode="layer"
     id="layer1">
    <path
       style="fill:#000000"
       d="M 198.09607,597.75013 C 203.89667,596.50051 205.12963,595.56411 208.93206,589.52039 C 212.3406,584.10275 212.69649,582.94605 212.12577,579.14023 C 211.52528,575.13589 211.65213,574.81479 214.07468,574.20677 C 215.50594,573.84755 217.33323,572.26592 218.15666,570.67359 C 218.97658,569.08803 220.06548,567.79076 220.57644,567.79076 C 221.08739,567.79076 221.7917,566.26486 222.14158,564.39988 C 222.7333,561.24573 222.07324,560.11881 212.68689,548.25789 C 207.13694,541.24479 202.59607,535.10656 202.59607,534.61739 C 202.59607,534.12822 203.21349,533.49106 203.96812,533.20148 C 206.43546,532.25468 211.33092,524.38128 212.02461,520.24419 C 212.86222,515.24879 212.2312,514.62777 200.34607,508.75083 L 191.59607,504.42415 L 191.59607,500.08177 L 191.59607,495.7394 L 194.64752,497.31737 C 196.32582,498.18525 197.94896,499.5468 198.25451,500.34305 C 199.21827,502.85457 201.21359,501.92354 203.1886,498.04076 C 204.23771,495.97826 205.39227,494.06473 205.75429,493.78847 C 206.11631,493.51221 206.77101,491.48721 207.20918,489.28847 C 208.13557,484.6398 208.10988,484.7452 208.79338,482.79076 C 211.18641,475.94807 213.7365,462.98854 216.56593,443.29076 C 217.19795,438.89076 218.10574,432.88206 218.58324,429.9381 C 219.06074,426.99414 219.75773,420.24414 220.13211,414.9381 C 220.5065,409.63206 220.98056,405.00996 221.18559,404.66675 C 221.68449,403.83163 223.85133,376.97391 224.08001,368.79076 C 224.48449,354.31709 224.55415,353.79076 226.06528,353.79076 C 227.60568,353.79076 235.7339,349.88393 236.59607,348.72913 C 236.87107,348.3608 239.00857,347.08983 241.34607,345.90477 C 243.68357,344.71971 245.59607,343.33958 245.59607,342.83782 C 245.59607,342.33607 246.4398,341.65774 247.47103,341.33045 C 249.09234,340.81586 253.90917,333.96914 257.41856,327.19087 C 260.7385,320.77854 264.29891,299.41658 265.06876,281.29076 C 265.45399,272.22073 265.44918,272.24387 266.69195,273.48664 C 267.29469,274.08938 268.01671,276.31688 268.29645,278.43664 C 268.88992,282.93379 269.26365,283.52318 270.64554,282.14129 C 273.36983,279.417 271.51818,266.62876 266.97787,256.81081 C 258.96147,239.47618 255.31176,233.82214 246.11993,224.4982 L 239.42361,217.70565 L 242.00984,214.31492 C 243.43227,212.45003 244.59607,210.51332 244.59607,210.01112 C 244.59607,207.45337 240.89088,202.42083 234.59966,196.43358 C 227.81784,189.97945 226.20079,186.78503 228.42749,184.24076 C 229.79269,182.68086 231.73938,174.83166 231.04122,173.70202 C 230.68512,173.12583 229.73941,172.90551 228.93964,173.21241 C 227.95178,173.59149 226.99049,172.57124 225.9417,170.03059 C 222.55615,161.82922 216.28116,150.14576 213.91739,147.64244 C 211.44188,145.02076 211.43513,144.96543 213.2472,142.14244 C 214.25396,140.57402 216.09432,138.17036 217.33687,136.80098 C 218.57943,135.4316 219.59607,133.7992 219.59607,133.17342 C 219.59607,132.54765 220.31795,131.43654 221.20025,130.7043 C 222.08254,129.97206 223.21422,128.45446 223.71509,127.33186 C 224.21596,126.20925 225.493,123.94076 226.55296,122.29076 C 227.61291,120.64076 229.69171,116.81576 231.17251,113.79076 C 232.65331,110.76576 234.16077,108.06576 234.52241,107.79076 C 236.4251,106.34392 239.57471,90.108036 239.58852,81.675615 C 239.59361,78.565815 238.94372,76.231145 237.59607,74.517885 C 236.49607,73.119465 235.59607,71.253185 235.59607,70.370605 C 235.59607,68.690675 227.22664,62.870715 220.44371,59.833905 L 216.48057,58.059555 L 216.2547,51.041145 C 216.06852,45.255765 215.55162,43.334115 213.31246,40.103005 C 211.81844,37.947135 210.59607,35.475045 210.59607,34.609445 C 210.59607,32.085675 208.56897,31.098465 200.70102,29.790485 C 190.38782,28.076003 188.42987,28.142974 173.59606,30.717595 C 162.92153,32.570305 161.07637,32.961055 159.09606,33.788265 C 155.34798,35.353895 147.41437,36.867865 145.74112,36.336795 C 143.33642,35.573575 131.08089,47.638005 120.50468,61.179715 C 118.09443,64.265785 115.66648,66.764195 115.10923,66.731725 C 114.55199,66.699265 112.17723,65.686765 109.83198,64.481725 C 93.911193,56.301275 84.823683,51.336155 83.096063,49.874075 C 80.638263,47.794035 72.849653,42.790755 72.069463,42.790755 C 71.756253,42.790755 69.037873,41.215755 66.028613,39.290755 C 63.019353,37.365755 60.319353,35.790755 60.028613,35.790755 C 58.788723,35.790755 47.554193,28.123483 41.096063,22.86979 C 30.803033,14.496405 25.041693,10.908509 17.548963,8.2057277 C 9.7347429,5.3869847 7.0408929,5.1891617 6.2030529,7.3725417 C 5.1469029,10.124815 5.5444429,12.790755 7.0109929,12.790755 C 8.3293229,12.790755 13.455463,18.610262 18.096063,25.375209 C 20.991093,29.595505 41.362273,49.487525 46.279353,52.895575 C 48.580163,54.490285 50.747993,56.694085 51.096743,57.792905 C 51.445493,58.891725 52.057443,59.790755 52.456623,59.790755 C 54.119313,59.790755 74.449073,73.479945 81.031663,79.031955 C 82.167083,79.989615 84.896063,82.139685 87.096063,83.809875 C 91.315723,87.013366 96.599843,91.241876 99.646503,93.853116 C 100.64908,94.712416 102.62288,96.281726 104.03272,97.340466 C 107.02627,99.588526 107.11718,101.33071 104.63023,108.79076 C 103.422,112.41507 102.33619,114.15083 101.44638,113.88046 C 100.7037,113.65479 98.971063,113.42979 97.596063,113.38046 C 95.541243,113.30673 95.153293,113.70036 95.417423,115.59094 C 95.594173,116.85605 96.583983,119.77893 97.616993,122.08625 L 99.495203,126.28137 L 97.135173,127.71335 C 93.006873,130.21826 93.026993,139.14663 97.165773,141.29076 C 98.638213,142.05357 99.177383,143.5884 99.438903,147.76164 C 99.688533,151.74494 100.30032,153.59574 101.6889,154.56834 C 102.73784,155.30305 103.59606,156.96615 103.59606,158.26413 C 103.59606,159.56211 103.93356,160.77409 104.34606,160.95743 C 105.5632,161.49838 111.59572,170.74006 111.59981,172.07 C 111.60724,174.49103 123.71755,177.9922 137.3607,179.51765 C 140.19972,179.83508 142.12188,180.70338 143.1107,182.11512 C 145.56042,185.61258 144.87686,186.28251 138.676,186.46139 C 130.05994,186.70994 128.85133,187.64349 128.43947,194.36823 C 128.1084,199.77386 128.20385,200.02206 131.09606,201.2763 C 132.74606,201.99184 134.95922,203.2371 136.01418,204.04354 C 137.8956,205.48174 137.89012,205.56905 135.72758,208.60605 C 134.51498,210.30899 133.0205,213.18471 132.40651,214.99653 C 131.79251,216.80836 130.53771,219.41576 129.61806,220.79076 C 128.69841,222.16576 126.95863,225.31576 125.75189,227.79076 C 124.54514,230.26576 121.349,235.21576 118.64934,238.79076 C 115.81541,242.54357 113.71027,246.40286 113.66847,247.92205 C 113.60491,250.23188 114.15581,250.69428 118.17804,251.70709 L 122.76002,252.86084 L 122.06191,257.0758 C 121.67795,259.39403 121.02358,261.96576 120.60775,262.79076 C 120.19192,263.61576 119.52707,266.54076 119.13029,269.29076 C 118.73352,272.04076 118.07653,274.74076 117.67031,275.29076 C 117.26409,275.84076 116.33376,278.99076 115.6029,282.29076 C 114.87204,285.59076 113.89652,288.71826 113.43506,289.24076 C 112.97361,289.76326 112.59606,290.80045 112.59606,291.54562 C 112.59606,292.2908 111.7076,294.85078 110.6217,297.23447 C 109.53581,299.61816 108.48857,303.08097 108.2945,304.92961 C 108.10044,306.77824 107.66257,308.96576 107.32146,309.79076 C 106.98035,310.61576 106.03377,313.54076 105.21795,316.29076 C 103.69667,321.41873 101.90301,326.75182 100.50937,330.29076 C 100.07618,331.39076 99.407833,333.41576 99.024133,334.79076 C 98.640433,336.16576 98.010943,337.51576 97.625263,337.79076 C 96.796803,338.38147 89.596063,349.61015 89.596063,350.31132 C 89.596063,350.57627 87.346063,354.25489 84.596063,358.48604 C 81.846063,362.71718 79.596063,366.78712 79.596063,367.53035 C 79.596063,368.27357 78.481573,369.99616 77.119423,371.35831 C 71.642643,376.83508 71.056533,380.89894 75.252753,384.3009 L 77.732203,386.31105 L 75.264253,389.94778 C 73.906873,391.94799 72.475693,394.64342 72.083833,395.93764 C 71.691983,397.23186 70.383883,399.41576 69.176953,400.79076 C 67.970023,402.16576 65.676393,405.09076 64.079993,407.29076 C 62.483583,409.49076 60.687043,411.74076 60.087673,412.29076 C 56.606943,415.48476 56.445463,416.54925 59.046983,419.15077 C 60.445913,420.5497 63.216213,422.46574 65.203203,423.40863 C 67.441303,424.47067 69.191803,426.20124 69.803813,427.95686 C 70.347153,429.51551 71.352943,430.79076 72.038903,430.79076 C 72.724853,430.79076 74.043783,431.628 74.969853,432.6513 C 76.556253,434.40425 76.502483,434.81274 74.040123,439.71519 C 71.112363,445.54424 69.740063,446.47338 66.566843,444.77512 C 65.002523,443.93792 64.074513,443.91231 63.301833,444.68499 C 62.529143,445.45768 63.128113,446.08027 65.409193,446.87546 C 67.161973,447.48648 68.596063,448.39239 68.596063,448.88859 C 68.596063,449.38478 69.212403,449.79076 69.965703,449.79076 C 71.125553,449.79076 86.881773,457.1273 97.096063,462.42341 C 98.746063,463.27894 101.44606,464.67584 103.09606,465.52763 C 108.03026,468.07485 109.85507,469.03624 115.09606,471.8498 C 117.84606,473.3261 123.69606,476.01909 128.09606,477.83423 C 136.75782,481.40747 139.91913,483.12246 143.23914,486.04925 C 144.41784,487.08834 146.89152,488.69276 148.73621,489.61463 C 153.5546,492.02259 153.62197,494.47021 148.92302,496.40095 C 145.40039,497.84834 133.43743,503.67403 132.83606,504.23492 C 132.46092,504.58481 139.99008,518.131 142.58595,521.77656 C 145.22816,525.4872 145.19657,525.53733 134.93253,533.92439 L 127.6986,539.83544 L 120.39733,539.70708 C 116.33122,539.63559 110.2325,540.32688 106.63343,541.26721 C 103.07899,542.19589 98.921413,542.70583 97.394373,542.40042 C 93.295093,541.58057 91.814253,542.48133 92.381663,545.44955 C 92.823623,547.76148 92.674353,547.90303 90.833383,546.91777 C 87.379973,545.06956 87.200633,548.39518 90.563913,551.91453 C 92.174343,553.59969 93.627883,555.30416 93.794013,555.70224 C 93.960143,556.10032 97.921063,559.28339 102.59606,562.77573 C 107.27106,566.26806 113.12106,570.66868 115.59606,572.55489 C 119.9484,575.87181 120.33317,575.96974 127.32207,575.53928 L 134.54808,575.09421 L 139.73762,580.01787 C 142.59187,582.72588 146.31516,585.98017 148.01161,587.24962 C 152.36599,590.50802 166.73299,594.7533 175.59606,595.4005 C 179.72107,595.70172 183.99607,596.32825 185.09607,596.79279 C 187.98327,598.01207 194.61366,598.50035 198.09607,597.75013 z M 166.59606,590.68638 C 164.12106,590.05908 160.56504,589.35779 158.69379,589.12796 C 155.03132,588.67814 150.59539,585.98495 146.59606,581.78306 C 140.20342,575.06665 135.59606,569.85884 135.59606,569.3495 C 135.59606,568.399 138.40954,568.73497 138.76273,569.72764 C 138.95804,570.27659 141.99455,570.0325 146.09606,569.13814 C 149.94606,568.29862 154.88931,567.53952 157.08107,567.45125 C 159.83284,567.34043 161.16081,566.80092 161.3722,565.70792 C 161.61143,564.47095 161.01379,564.22261 158.63719,564.57142 C 156.5165,564.88267 155.59736,564.60507 155.60034,563.65426 C 155.60896,560.90993 169.28003,542.88307 173.39975,540.18373 C 177.5349,537.47428 186.41167,535.89167 193.93561,536.52245 C 199.98692,537.02977 201.01009,537.41708 202.4545,539.74722 C 203.35736,541.20373 206.79607,545.65644 210.09607,549.64213 C 213.89276,554.22772 216.31436,558.16029 216.69051,560.35123 C 217.24245,563.5661 216.92076,564.12108 212.19051,568.1146 C 209.38857,570.48015 206.01456,573.15321 204.69271,574.05474 L 202.28936,575.69389 L 204.92349,576.89408 C 206.37227,577.55419 207.82078,578.92338 208.1424,579.93674 C 208.97996,582.57566 203.8435,591.54162 200.93961,592.50958 C 197.88392,593.52814 172.48909,592.18001 166.59606,590.68638 z M 107.25129,559.41893 C 95.772173,548.39874 93.327563,544.96427 97.794023,546.13228 C 99.002903,546.44841 100.4654,546.31715 101.04402,545.8406 C 102.19338,544.894 116.97985,543.65867 125.34606,543.81031 C 129.34082,543.88272 130.59606,543.55412 130.59606,542.43596 C 130.59606,541.62773 133.40856,539.06782 136.84606,536.74727 C 140.28356,534.42673 144.67106,530.88145 146.59606,528.86888 C 149.17403,526.17363 151.03395,525.1496 153.65629,524.98166 C 156.82553,524.77871 157.51191,525.20485 159.90629,528.86196 C 161.38566,531.12152 162.59606,533.34997 162.59606,533.81408 C 162.59606,534.27819 163.82971,534.80031 165.33751,534.97434 C 168.65622,535.35739 169.30226,537.64576 166.84647,540.31928 C 165.85046,541.40359 163.70172,544.09076 162.07149,546.29076 C 160.44126,548.49076 158.82667,550.51576 158.48351,550.79076 C 157.46004,551.61094 153.59606,560.06066 153.59606,561.47859 C 153.59606,562.20028 153.14606,562.79076 152.59606,562.79076 C 152.04606,562.79076 151.59606,563.46576 151.59606,564.29076 C 151.59606,565.14144 150.62208,565.84658 149.34606,565.91971 C 148.10856,565.99063 145.8276,566.12447 144.27726,566.21714 C 142.72693,566.3098 139.80193,565.80855 137.77726,565.10325 C 135.7526,564.39794 133.77609,563.8141 133.38502,563.80582 C 132.00807,563.77666 128.55273,568.23547 129.01624,569.44334 C 129.54838,570.83008 126.62,571.45882 122.00129,570.94948 C 119.64395,570.68951 116.12925,567.94196 107.25129,559.41893 z M 167.69965,531.25596 C 165.99268,529.31183 164.59606,527.27237 164.59606,526.72385 C 164.59606,526.17532 163.83314,524.05348 162.90069,522.00864 C 159.77519,515.15454 159.76385,514.44764 162.74359,512.21436 C 166.26891,509.57218 172.97438,507.33822 175.02171,508.12385 C 176.93412,508.85772 177.16725,514.81957 175.35442,516.6324 C 173.28707,518.69975 176.12085,519.58276 183.96709,519.31611 C 193.87973,518.97924 193.59607,519.06836 193.59607,516.29076 C 193.59607,514.91576 193.25857,513.90326 192.84607,514.04076 C 191.93364,514.3449 191.59607,513.44902 191.59607,510.72337 C 191.59607,509.04309 192.01736,508.78427 193.84607,509.34109 C 199.36764,511.02237 208.56822,515.38223 208.51189,516.29076 C 208.47779,516.84076 207.59712,518.64076 206.55484,520.29076 C 205.51256,521.94076 203.97966,524.78617 203.1484,526.61389 C 202.31714,528.44161 200.61628,530.76356 199.36873,531.77377 C 197.32119,533.43176 196.77205,533.4733 193.72613,532.20064 C 190.06997,530.67299 185.37549,530.34467 184.1867,531.53346 C 183.28836,532.43181 175.9321,534.47867 172.94965,534.66015 C 171.63719,534.74002 169.59741,533.41739 167.69965,531.25596 z M 146.66865,519.04076 C 145.58622,516.97826 143.329,513.26576 141.65261,510.79076 C 138.31491,505.86304 137.73621,502.79076 140.14572,502.79076 C 140.99803,502.79076 143.10773,502.06041 144.83393,501.16775 C 146.97527,500.06042 148.46871,499.8455 149.53427,500.49131 C 150.39325,501.01192 154.89,501.54105 159.52704,501.66715 C 164.16407,501.79325 168.32975,502.12617 168.7841,502.40698 C 169.23845,502.68778 169.89758,502.16859 170.24884,501.25322 C 170.613,500.30424 170.28761,499.20907 169.49178,498.70515 C 168.72413,498.21908 168.54606,497.81618 169.09606,497.80981 C 169.64606,497.80344 171.59883,498.71443 173.43554,499.83422 C 176.18334,501.50947 176.5603,502.12893 175.5631,503.33048 C 174.89654,504.13363 173.39377,504.79646 172.22362,504.80343 C 169.33509,504.82063 158.78461,510.26734 156.46975,512.9364 C 154.39763,515.32557 154.0679,517.34631 155.59606,518.29076 C 157.42165,519.41903 156.63099,520.79076 154.15508,520.79076 C 152.81254,520.79076 151.43598,521.24076 151.09606,521.79076 C 149.95848,523.6314 148.65201,522.81991 146.66865,519.04076 z M 179.23827,507.04076 C 178.966,501.67826 178.68599,496.4524 178.61602,495.42773 C 178.42442,492.62186 179.15903,492.40254 183.26438,494.03997 C 187.76227,495.83397 188.54594,498.02691 188.28256,508.08242 C 188.10779,514.75481 187.93895,515.24594 185.59607,515.89685 C 179.74544,517.52228 179.77235,517.55977 179.23827,507.04076 z M 171.5464,496.26508 C 166.89929,493.86197 168.13552,490.90477 173.01214,492.75886 C 174.61646,493.36881 175.59606,494.50887 175.59606,495.76601 C 175.59606,498.19357 175.33735,498.22546 171.5464,496.26508 z M 155.59606,493.85898 C 155.59606,490.14846 155.75082,489.94762 158.34606,490.29008 C 159.85856,490.48966 162.10856,490.68397 163.34606,490.72186 C 165.2377,490.77979 165.59606,491.34821 165.59606,494.29076 L 165.59606,497.79076 L 160.59606,497.79076 L 155.59606,497.79076 L 155.59606,493.85898 z M 195.16135,492.89639 C 194.60103,491.98977 193.38474,491.7523 179.09607,489.75978 C 174.69606,489.14621 170.42106,488.37235 169.59606,488.04008 C 168.77106,487.70781 165.62106,487.3247 162.59606,487.18871 C 150.79854,486.65838 144.59606,485.0515 144.59606,482.52546 C 144.59606,482.09415 143.58356,481.29171 142.34606,480.74226 C 141.10856,480.19282 138.29606,478.68306 136.09606,477.38725 C 126.7221,471.86593 88.604943,452.6003 83.346063,450.72572 C 81.283563,449.99051 79.596063,449.02938 79.596063,448.58987 C 79.596063,448.15036 78.771063,447.79076 77.762733,447.79076 C 74.515273,447.79076 74.703083,446.76085 79.129573,440.2953 C 81.520253,436.80337 83.778293,432.33633 84.147453,430.36855 C 84.516603,428.40076 85.168483,426.79076 85.596063,426.79076 C 86.023643,426.79076 86.688473,425.11171 87.073463,423.05954 C 87.458453,421.00736 89.082573,416.84486 90.682613,413.80954 C 92.282653,410.77421 93.592743,407.72215 93.593923,407.02719 C 93.595093,406.33223 93.993563,404.98223 94.479393,404.02719 C 97.409743,398.26676 100.79918,388.79076 99.929263,388.79076 C 99.611313,388.79076 99.829603,388.21428 100.41436,387.5097 C 100.99911,386.80512 101.69904,385.00713 101.96977,383.51418 C 102.24049,382.02123 103.81225,377.08521 105.46256,372.54524 C 107.11287,368.00528 109.42795,360.91576 110.60718,356.79076 C 111.78641,352.66576 113.1619,348.39076 113.66382,347.29076 C 114.16575,346.19076 115.22801,342.59076 116.0244,339.29076 C 116.8208,335.99076 118.20334,330.81576 119.09673,327.79076 C 122.1466,317.46398 123.69026,311.29252 123.97428,308.29076 C 124.13039,306.64076 124.75441,302.81576 125.36099,299.79076 C 125.96756,296.76576 126.89938,291.59076 127.43169,288.29076 C 129.70488,274.19844 131.8765,264.14912 133.2029,261.58415 L 134.62428,258.8355 L 140.36017,261.75018 C 143.51491,263.35325 148.2265,265.23463 150.83037,265.93102 C 155.52975,267.18784 155.56035,267.22334 154.97841,270.74397 C 154.65596,272.6947 154.1624,276.09076 153.88162,278.29076 C 153.60083,280.49076 152.97437,282.78367 152.48949,283.38611 C 152.0046,283.98855 151.37431,286.91355 151.08884,289.88611 C 150.80338,292.85867 150.15929,296.86576 149.65753,298.79076 C 149.15577,300.71576 148.20547,304.99076 147.54575,308.29076 C 146.88603,311.59076 145.85852,316.09076 145.2624,318.29076 C 144.66628,320.49076 144.11883,322.74076 144.04585,323.29076 C 143.97287,323.84076 143.55238,325.59061 143.11143,327.17931 C 142.67048,328.76801 142.23096,330.79301 142.13472,331.67931 C 142.03848,332.56561 141.40296,334.6232 140.72244,336.25173 C 140.04193,337.88026 139.74847,340.26189 140.07032,341.54424 C 140.58501,343.5949 140.33327,343.84054 137.98067,343.58327 C 133.81311,343.12752 134.05864,345.42641 138.4753,348.21453 C 143.34917,351.29126 148.05152,351.83925 174.46161,352.40817 C 205.24383,353.07128 216.41149,353.55865 217.59579,354.29059 C 218.27177,354.70836 218.46335,356.56339 218.09553,359.12943 C 217.17062,365.58179 216.89985,384.00347 217.68895,386.79076 C 218.22417,388.6813 218.42693,388.07184 218.52066,384.29076 C 218.68407,377.6995 219.70824,368.41973 220.34171,367.79076 C 220.61868,367.51576 220.5734,372.46576 220.24109,378.79076 C 219.90879,385.11576 219.62771,390.71826 219.61648,391.24076 C 219.60526,391.76326 219.03357,391.6253 218.34607,390.93419 C 216.58711,389.16598 214.48399,411.53767 216.19737,413.79076 C 217.07286,414.94203 216.77445,417.49937 214.91379,424.79076 C 212.40683,434.61484 209.41159,450.81917 209.46948,454.24467 C 209.48763,455.31933 209.1061,456.67621 208.62162,457.25998 C 208.13713,457.84375 207.52221,460.11448 207.25511,462.30607 C 206.98802,464.49765 205.38047,471.66342 203.68278,478.23 C 201.98509,484.79658 200.59607,490.98408 200.59607,491.98 C 200.59607,493.23314 199.84437,493.79076 198.15509,493.79076 C 196.81255,493.79076 195.46537,493.38829 195.16135,492.89639 z M 74.637323,429.34047 C 73.975323,428.54281 73.311293,427.30531 73.161703,426.59047 C 72.544763,423.64237 69.499793,417.79076 68.582643,417.79076 C 68.040023,417.79076 67.581843,418.80326 67.564463,420.04076 C 67.533733,422.22843 67.464473,422.21303 65.064463,419.485 C 62.078983,416.09148 62.041983,415.60217 64.596063,413.29076 C 65.696063,412.29527 66.596063,410.98378 66.596063,410.37632 C 66.596063,409.76886 67.490043,408.71355 68.582693,408.03118 C 69.675343,407.34881 71.225793,405.32807 72.028143,403.54063 C 72.830493,401.7532 74.285373,398.94076 75.261223,397.29076 C 76.237063,395.64076 77.641713,393.24815 78.382673,391.97384 C 79.410863,390.20554 80.043373,389.9171 81.053863,390.75574 C 81.782063,391.36009 84.339453,392.42887 86.736963,393.13082 C 90.419633,394.20904 91.073813,394.78601 90.952673,396.84892 C 90.731983,400.60715 88.150693,408.7292 85.335253,414.52416 C 83.936823,417.40253 82.011813,422.24003 81.057463,425.27416 C 79.254473,431.00633 77.134313,432.34917 74.637323,429.34047 z M 88.101653,390.34825 C 84.253103,389.42508 82.596063,388.01655 82.596063,385.66832 C 82.596063,384.55881 81.880193,383.77791 80.846063,383.75934 C 79.883563,383.74205 78.246283,382.56233 77.207663,381.13774 L 75.319253,378.54757 L 79.957663,374.16563 C 82.508783,371.75556 84.599963,369.44777 84.604733,369.03722 C 84.609503,368.62667 86.072003,366.706 87.854733,364.76907 C 92.019343,360.24425 97.178363,352.68217 98.115873,349.72834 C 98.518053,348.4612 99.874233,345.49267 101.12963,343.13161 C 102.38502,340.77054 103.71769,337.03032 104.09112,334.82 C 104.46455,332.60968 105.18093,330.54732 105.68307,330.23698 C 106.18522,329.92664 106.59606,328.62596 106.59606,327.34658 C 106.59606,324.7795 108.75373,317.0048 111.60699,309.29076 C 112.62416,306.54076 114.16261,300.75612 115.02577,296.43601 C 115.88892,292.11589 117.47533,286.59144 118.55112,284.15945 C 119.6269,281.72746 121.74229,274.5746 123.25198,268.2642 C 125.49221,258.90016 126.32772,256.79076 127.79646,256.79076 C 129.90778,256.79076 129.91857,256.89617 128.52478,263.90427 C 127.93558,266.86684 127.07194,271.54076 126.60558,274.29076 C 126.13921,277.04076 125.03211,282.21576 124.14534,285.79076 C 123.25857,289.36576 121.91618,295.66576 121.16225,299.79076 C 119.6586,308.01775 117.437,317.03802 114.63558,326.29076 C 113.63645,329.59076 112.33783,334.09076 111.74976,336.29076 C 109.74886,343.7762 106.44715,355.28179 105.43652,358.29076 C 104.88233,359.94076 103.38531,364.66576 102.10981,368.79076 C 100.83431,372.91576 98.615913,379.44076 97.180033,383.29076 C 95.744163,387.14076 94.345033,390.90394 94.070873,391.65338 C 93.731133,392.58208 93.178103,392.7056 92.334233,392.04127 C 91.653243,391.50517 89.748583,390.74331 88.101653,390.34825 z M 220.93379,360.54076 C 221.2112,359.85326 221.43818,360.41576 221.43818,361.79076 C 221.43818,363.16576 221.2112,363.72826 220.93379,363.04076 C 220.65638,362.35326 220.65638,361.22826 220.93379,360.54076 z M 197.09607,348.86021 C 193.24607,348.31371 184.06123,347.38136 176.68531,346.78833 C 169.3094,346.1953 162.9424,345.50481 162.53643,345.25391 C 162.13046,345.00301 157.7028,344.75383 152.69718,344.70018 C 144.44246,344.61171 141.98488,343.90455 144.50954,342.34423 C 146.32724,341.22083 149.59606,333.07905 149.59606,329.67504 C 149.59606,327.75868 149.97485,325.76326 150.43782,325.24076 C 151.5897,323.94075 153.37514,314.74784 154.11827,306.29076 C 154.45658,302.44076 155.12176,298.16576 155.59646,296.79076 C 156.3668,294.55938 157.51138,281.71537 157.57287,274.61219 C 157.58563,273.13897 158.16094,271.33897 158.85135,270.61219 C 159.54176,269.8854 160.16345,267.94076 160.23287,266.29076 C 160.4198,261.84837 161.90847,257.11643 165.57831,249.29965 C 169.41868,241.11963 178.18404,227.79076 179.72302,227.79076 C 180.30932,227.79076 186.94148,233.97826 194.46116,241.54076 C 201.98083,249.10326 209.92492,256.4503 212.11468,257.86751 C 214.30444,259.28472 218.03298,261.75972 220.40032,263.36751 C 230.3589,270.13093 241.39168,275.93049 242.10471,274.77678 C 242.59019,273.99125 239.99686,271.62206 235.9544,269.15804 C 234.93232,268.53505 234.37332,267.7328 234.71218,267.37526 C 235.55104,266.49019 247.54447,268.22201 256.09607,270.46304 C 262.9116,272.24912 263.08927,272.37644 262.83794,275.29411 C 262.69597,276.94227 262.59396,280.31576 262.61125,282.79076 C 262.64239,287.24878 260.81453,295.82763 259.62833,296.79076 C 259.28964,297.06576 258.47314,301.08976 257.81388,305.73299 C 256.9093,312.10406 255.57154,316.25279 252.36102,322.64364 C 244.84451,337.60593 228.62061,352.27997 225.02745,347.36604 C 223.55054,345.34624 222.59607,345.35868 222.59607,347.39775 C 222.59607,348.37874 222.04023,348.79144 221.16918,348.45719 C 220.3844,348.15604 219.2045,348.55765 218.54718,349.34967 C 217.25056,350.91201 210.45886,350.75704 197.09607,348.86021 z M 250.09607,266.25704 C 245.69607,265.37352 238.72107,264.41183 234.59607,264.11996 C 227.40889,263.61143 226.75995,263.34967 219.03744,257.8441 C 207.56856,249.66765 207.17565,249.32956 196.60329,238.54076 C 191.34837,233.17826 186.70618,228.79076 186.2873,228.79076 C 185.86842,228.79076 184.37187,228.03474 182.96162,227.11071 L 180.39755,225.43066 L 187.74681,223.11115 C 191.7889,221.83542 195.63285,220.79145 196.28891,220.7912 C 196.94497,220.79096 198.96997,219.94068 200.78891,218.90168 C 202.60785,217.86269 206.57107,216.48039 209.59607,215.8299 C 212.62107,215.17942 215.99607,214.2666 217.09607,213.80141 C 219.8954,212.6176 225.73207,210.79076 226.71497,210.79076 C 228.18066,210.79076 247.69799,230.1665 250.68903,234.59089 C 252.2879,236.95596 253.59607,239.19883 253.59607,239.57504 C 253.59607,239.95125 254.71668,242.51619 256.08632,245.27491 C 260.23206,253.62526 264.71029,266.05072 264.12438,267.57759 C 263.7481,268.55814 262.70346,268.83165 260.83455,268.43891 C 259.32839,268.1224 254.49607,267.14056 250.09607,266.25704 z M 153.09606,263.79076 C 152.75614,263.24076 151.67372,262.79076 150.69068,262.79076 C 149.70764,262.79076 147.5967,262.16484 145.9997,261.39982 C 144.4027,260.6348 141.44835,259.25241 139.43448,258.32783 C 137.4206,257.40326 133.8206,254.79919 131.43448,252.54101 C 129.04835,250.28284 126.42106,248.51352 125.59606,248.60919 C 122.83571,248.9293 121.30464,247.25057 122.46372,245.17478 C 124.68703,241.19308 129.8037,230.11284 132.29672,223.88129 C 135.82653,215.05815 140.89926,208.16079 144.35771,207.48204 C 145.8638,207.18645 147.52356,207.36 148.04606,207.86769 C 148.56856,208.37538 149.80606,208.79076 150.79606,208.79076 C 152.27332,208.79076 152.59606,209.63099 152.59606,213.47687 C 152.59606,218.0437 154.20954,226.16455 157.12882,236.29076 C 159.6263,244.95389 159.98731,251.87195 158.21441,257.09391 C 157.33078,259.69658 156.65846,262.15559 156.72036,262.55839 C 157.07828,264.88751 154.34771,265.81598 153.09606,263.79076 z M 160.66026,231.74301 C 160.59471,228.12046 156.82149,209.58816 154.18298,199.92958 C 152.73408,194.62569 150.56333,189.16507 148.36365,185.29076 C 147.73912,184.19076 146.62658,182.10061 145.89135,180.64598 C 143.88185,176.67028 142.40301,175.84579 137.53426,175.98672 C 131.94491,176.14851 121.19379,174.15122 117.57174,172.27818 C 114.97491,170.93531 108.59606,163.34208 108.59606,161.59376 C 108.59606,160.0766 111.28774,160.79259 113.09606,162.79076 C 114.97766,164.8699 116.59606,165.40422 116.59606,163.9463 C 116.59606,162.815 112.23709,157.79076 111.25558,157.79076 C 110.82834,157.79076 108.70517,156.36545 106.53742,154.6234 C 102.89697,151.69785 101.48773,148.23242 103.22999,146.49016 C 103.57865,146.1415 107.21453,148.17251 111.30972,151.00351 C 117.03332,154.96023 118.94738,155.84034 119.58504,154.80859 C 120.0838,154.00158 119.88327,152.93512 119.08213,152.13398 C 118.3493,151.40114 116.90237,149.72434 115.86674,148.40774 C 114.25569,146.35963 108.18621,142.16289 101.13852,138.22393 C 98.129703,136.5423 96.931353,134.06809 98.172623,132.10028 C 99.797613,129.52413 100.86742,129.55981 103.80993,132.28825 C 105.29429,133.66463 106.72731,134.79076 106.99442,134.79076 C 107.26153,134.79076 111.54265,137.26576 116.50801,140.29076 C 121.47338,143.31576 125.99947,145.79076 126.56601,145.79076 C 131.14676,145.79076 118.37933,132.2527 110.10864,128.34004 C 107.14484,126.93793 104.2536,125.79076 103.68367,125.79076 C 102.60563,125.79076 99.596063,120.67345 99.596063,118.84042 C 99.596063,116.07858 108.52581,119.78622 112.67828,124.27217 C 114.00806,125.70874 116.85276,127.80757 118.99983,128.93621 C 123.10047,131.09179 137.82766,135.78637 140.52229,135.79692 C 141.38786,135.80031 143.385,136.47531 144.96037,137.29692 C 149.13207,139.47262 156.20982,139.19259 160.25626,136.69175 C 164.21908,134.24259 165.87888,135.02752 167.50724,140.12075 C 169.30733,145.75109 169.29035,149.08426 167.42539,156.18774 C 166.41926,160.02001 165.59606,164.22749 165.59606,165.53769 C 165.59606,168.39701 160.05942,173.42119 157.40418,172.97136 C 156.40221,172.80162 155.30964,173.37359 154.97624,174.24242 C 154.31588,175.96328 159.14501,192.0731 161.27752,195.26327 C 162.00272,196.34814 162.59606,198.02941 162.59606,198.9994 C 162.59606,200.64006 171.4042,216.42876 174.19506,219.79076 C 176.58686,222.67203 176.90563,226.45663 174.88044,227.92795 C 172.71841,229.49871 169.14648,235.10318 165.72652,242.29076 L 163.34744,247.29076 L 162.03595,241.29076 C 161.31464,237.99076 160.69558,233.69427 160.66026,231.74301 z M 174.95615,215.50688 C 169.41059,205.84062 164.97098,196.24101 163.59442,190.93982 C 162.97302,188.5468 162.60669,186.50306 162.78034,186.39817 C 164.90194,185.11669 179.15888,181.4814 183.02902,181.23508 C 185.8159,181.05771 191.92107,180.28047 196.59607,179.5079 C 201.27107,178.73532 205.77107,178.03771 206.59607,177.95765 C 207.42107,177.87759 209.44607,177.6057 211.09607,177.35345 C 212.74607,177.1012 216.90857,176.5839 220.34607,176.2039 C 226.1013,175.56768 226.59607,175.66647 226.59607,177.45187 C 226.59607,178.51826 226.17104,179.81826 225.65155,180.34076 C 225.13207,180.86326 224.43328,182.86576 224.09869,184.79076 C 223.76411,186.71576 223.07083,188.43853 222.55807,188.61914 C 221.17898,189.1049 224.40965,194.79076 226.06475,194.79076 C 226.84428,194.79076 230.20772,197.31423 233.53907,200.39847 C 239.96434,206.34714 241.06153,209.40436 238.18363,213.34013 C 236.81255,215.2152 236.69494,215.18949 234.16733,212.46215 C 231.35297,209.4254 231.5443,207.79076 234.7141,207.79076 C 235.8141,207.79076 236.44729,207.35904 236.12118,206.83139 C 235.23679,205.40042 225.27018,206.04467 224.04933,207.61173 C 223.43488,208.40041 220.33744,209.11938 216.54933,209.3526 C 210.2818,209.73846 204.72349,210.94694 199.59607,213.03854 C 198.22107,213.59944 196.19607,214.3787 195.09607,214.77024 C 191.49281,216.0528 181.47794,221.17288 180.97234,221.99097 C 179.97236,223.60896 179.00817,222.56977 174.95615,215.50688 z M 146.996,204.02545 C 146.39097,203.62137 145.67854,202.61576 145.41281,201.79076 C 145.14709,200.96576 143.84211,200.21151 142.51287,200.11465 C 141.18362,200.01779 138.18356,199.62104 135.84606,199.23298 C 132.08008,198.60778 131.59606,198.22253 131.59606,195.85022 C 131.59606,191.425 133.60309,189.74874 139.64855,189.12479 C 146.1097,188.45794 146.61527,188.87084 149.03502,196.79076 C 149.95924,199.81576 150.95107,202.85326 151.23908,203.54076 C 151.81065,204.90516 148.82404,205.24632 146.996,204.02545 z M 160.20305,182.20897 C 159.21295,179.62882 159.50663,177.79076 160.90897,177.79076 C 164.11752,177.79076 168.62629,170.56882 170.11047,163.05223 C 171.27803,157.13917 172.31674,158.73803 173.03163,167.54869 C 173.42026,172.33834 174.22037,176.83808 174.80965,177.54812 C 176.18517,179.20553 176.25281,179.16195 168.59606,181.55131 C 160.39273,184.11123 160.91724,184.07013 160.20305,182.20897 z M 181.83586,170.54076 C 181.8713,163.22125 182.21994,162.27177 184.15983,164.21166 C 186.66943,166.72126 185.47334,176.79076 182.66565,176.79076 C 182.19262,176.79076 181.81921,173.97826 181.83586,170.54076 z M 191.59607,174.62255 C 191.59607,174.25503 191.86272,173.25945 192.18863,172.41014 C 192.72144,171.02166 193.02309,171.02445 195.18005,172.43774 C 196.49941,173.30222 197.40073,174.29781 197.18298,174.65014 C 196.65632,175.50228 191.59607,175.47729 191.59607,174.62255 z M 220.59607,172.40577 C 220.59607,171.64403 219.35857,170.23777 217.84607,169.28075 C 214.64543,167.25559 212.82487,165.1908 208.06477,158.18725 C 203.87699,152.02577 203.72901,150.07121 207.34607,148.69478 C 209.85461,147.74019 210.37374,147.97887 213.25847,151.41312 C 216.29898,155.03282 224.59607,170.6614 224.59607,172.76887 C 224.59607,173.33091 223.69607,173.79076 222.59607,173.79076 C 221.49607,173.79076 220.59607,173.16751 220.59607,172.40577 z M 197.07039,168.77343 C 192.98094,166.0139 186.27244,160.46903 182.16261,156.45149 C 175.99595,150.42333 174.79548,148.74417 175.29282,146.84235 C 175.70294,145.27406 175.36618,144.24162 174.23873,143.61066 C 172.40653,142.58531 168.76927,136.00799 168.28704,132.84809 C 168.11738,131.73639 167.04329,129.80621 165.90017,128.55879 C 164.75704,127.31138 162.81473,124.26576 161.58391,121.79076 C 160.35309,119.31576 156.54336,112.79076 153.11785,107.29076 C 149.69233,101.79076 145.40627,94.590756 143.59326,91.290756 C 141.78025,87.990756 140.0267,85.065755 139.69647,84.790755 C 139.36624,84.515755 138.41018,82.952115 137.57189,81.316005 C 136.50798,79.239575 133.79016,77.206205 128.57189,74.582585 C 124.46018,72.515325 121.09606,70.449915 121.09606,69.992805 C 121.09606,69.084675 137.88958,50.491575 141.0538,47.896415 C 142.13056,47.013305 144.39,44.852825 146.07478,43.095365 C 149.33059,39.699105 151.03658,39.186935 162.09606,38.285535 C 165.94606,37.971735 172.85027,37.264205 177.43874,36.713235 C 189.76242,35.233445 204.24949,35.258225 206.06166,36.762205 C 213.28208,42.754615 214.40286,57.904355 208.99387,76.397095 C 208.1724,79.205585 207.62884,81.905585 207.78595,82.397095 C 207.94306,82.888605 207.56079,84.640755 206.93645,86.290756 C 205.86021,89.135056 205.23795,91.345706 201.16612,106.79076 C 200.22363,110.36576 199.05531,116.21576 198.56986,119.79076 C 196.34783,136.15431 195.973,138.37186 195.2244,139.58312 C 193.6708,142.0969 205.29871,162.54603 212.21382,169.46115 L 216.54344,173.79076 L 210.52459,173.79076 C 204.95383,173.79076 203.95221,173.41724 197.07039,168.77343 z M 177.01106,167.23149 C 177.49095,161.8834 178.59607,161.84967 178.59607,167.18311 C 178.59607,169.91201 178.19479,171.66079 177.64638,171.32186 C 177.12405,170.99904 176.83815,169.15837 177.01106,167.23149 z M 200.4171,145.84065 C 198.86987,142.64599 198.83894,142.94316 204.16958,109.79076 C 204.47911,107.86576 205.14364,105.39076 205.64633,104.29076 C 206.14902,103.19076 207.03106,100.26576 207.60641,97.790756 C 208.18176,95.315756 208.84802,92.615756 209.08699,91.790756 C 210.89687,85.542405 212.94582,77.055675 214.27774,70.290755 C 215.14403,65.890755 215.97623,62.147075 216.12707,61.971465 C 216.2779,61.795855 217.23263,62.111555 218.24869,62.673025 C 219.26475,63.234485 221.85331,64.475035 224.00105,65.429795 C 226.14879,66.384555 229.63629,68.811675 231.75105,70.823405 C 236.16179,75.019235 236.29104,76.009845 234.46465,91.620316 C 233.42485,100.50763 233.03474,101.65518 229.64733,105.79076 C 226.10114,110.12019 219.59607,119.48938 219.59607,120.26749 C 219.59607,120.47454 217.34607,124.31001 214.59607,128.79076 C 211.84607,133.27151 209.59607,137.19956 209.59607,137.51977 C 209.59607,137.83999 208.47107,139.57693 207.09607,141.37965 C 205.72107,143.18237 204.59607,145.28734 204.59607,146.05737 C 204.59607,147.57242 203.686,148.79076 202.55431,148.79076 C 202.16467,148.79076 201.20292,147.46321 200.4171,145.84065 z M 117.59606,137.75558 C 117.59606,136.33494 118.07474,136.55273 120.19107,138.93627 C 122.08585,141.07028 122.084,141.07545 119.84606,139.90109 C 118.60856,139.2517 117.59606,138.28623 117.59606,137.75558 z M 149.29932,133.7717 C 144.80361,131.36215 134.58893,128.82613 129.2964,128.80554 C 124.61439,128.78733 120.60821,126.78531 114.02168,121.17227 C 108.96062,116.85924 108.9489,116.83532 109.56089,112.06488 C 110.54755,104.37392 111.11427,104.16975 116.92081,109.41335 C 122.67211,114.60706 130.63701,118.76607 134.86076,118.78099 C 139.43027,118.79714 141.82389,113.87632 141.29406,105.55536 C 140.8744,98.964606 139.53448,95.790756 137.1717,95.790756 C 136.28878,95.790756 136.23751,97.273896 136.9678,101.68965 C 139.50891,117.05465 132.85377,118.69322 118.97152,106.12055 C 117.25303,104.56416 115.00303,102.59058 113.97152,101.73481 C 112.94002,100.87904 111.19606,98.886406 110.09606,97.306736 C 107.33902,93.347446 102.8108,89.065496 98.312043,86.163586 C 96.230833,84.821105 93.673423,82.950525 92.628923,82.006735 C 87.886463,77.721555 72.904343,67.292915 63.783213,61.928045 C 59.761143,59.562335 56.225503,56.988665 55.926223,56.208755 C 55.626953,55.428855 55.001313,54.790755 54.535933,54.790755 C 52.645373,54.790755 22.885813,25.937625 17.596063,18.976012 C 16.221063,17.166434 14.083563,14.561285 12.846063,13.186791 C 10.772443,10.883612 9.9273829,8.7907547 11.071023,8.7907547 C 12.641033,8.7907547 24.596063,14.940159 24.596063,15.747741 C 24.596063,16.616356 35.330303,25.178883 36.596063,25.319948 C 36.871063,25.350596 42.271063,28.784064 48.596063,32.949875 C 54.921063,37.115685 61.896063,41.488795 64.096063,42.667895 C 66.296063,43.846985 68.996063,45.327955 70.096063,45.958925 C 71.196063,46.589895 72.771063,47.466925 73.596063,47.907875 C 74.421063,48.348825 77.968773,50.415365 81.479853,52.500175 C 91.333303,58.350975 98.864263,62.599255 101.43061,63.754575 C 107.94954,66.689275 112.68589,70.100925 111.66225,71.124565 C 111.07585,71.710965 110.59606,73.052505 110.59606,74.105765 C 110.59606,75.911305 110.73696,75.928455 113.06088,74.405765 C 114.41653,73.517505 116.00099,72.790755 116.58192,72.790755 C 119.01516,72.790755 130.66487,79.269665 133.43036,82.160905 C 136.31178,85.173345 142.59606,96.431546 142.59606,98.581126 C 142.59606,99.154756 142.99858,99.774086 143.49055,99.957426 C 144.45113,100.31538 147.48899,105.12357 150.33517,110.79076 C 151.30195,112.71576 154.23115,117.611 156.8445,121.66907 C 161.58774,129.03445 162.34098,130.79076 160.75658,130.79076 C 160.29486,130.79076 159.40451,131.91576 158.77801,133.29076 C 157.37173,136.37721 154.43833,136.52605 149.29932,133.7717 z "
       id="path2170" />
  </g>
</svg>
