<?xml version="1.0" encoding="UTF-8" standalone="no"?>
<!-- Created with Inkscape (http://www.inkscape.org/) -->
<svg
   xmlns:dc="http://purl.org/dc/elements/1.1/"
   xmlns:cc="http://web.resource.org/cc/"
   xmlns:rdf="http://www.w3.org/1999/02/22-rdf-syntax-ns#"
   xmlns:svg="http://www.w3.org/2000/svg"
   xmlns="http://www.w3.org/2000/svg"
   xmlns:xlink="http://www.w3.org/1999/xlink"
   xmlns:sodipodi="http://sodipodi.sourceforge.net/DTD/sodipodi-0.dtd"
   xmlns:inkscape="http://www.inkscape.org/namespaces/inkscape"
   width="210mm"
   height="297mm"
   id="svg2271"
   sodipodi:version="0.32"
   inkscape:version="0.45.1"
   sodipodi:docbase="/home/bersace/WWW/morel/www/.test/resources/styles/santiago/css/xcf"
   sodipodi:docname="priant.svg"
   inkscape:output_extension="org.inkscape.output.svg.inkscape">
  <defs
     id="defs2273" />
  <sodipodi:namedview
     id="base"
     pagecolor="#ffffff"
     bordercolor="#666666"
     borderopacity="1.0"
     inkscape:pageopacity="0.0"
     inkscape:pageshadow="2"
     inkscape:zoom="0.35"
     inkscape:cx="375"
     inkscape:cy="520"
     inkscape:document-units="px"
     inkscape:current-layer="layer1" />
  <metadata
     id="metadata2276">
    <rdf:RDF>
      <cc:Work
         rdf:about="">
        <dc:format>image/svg+xml</dc:format>
        <dc:type
           rdf:resource="http://purl.org/dc/dcmitype/StillImage" />
      </cc:Work>
    </rdf:RDF>
  </metadata>
  <g
     inkscape:label="Calque 1"
     inkscape:groupmode="layer"
     id="layer1">
    <image
       y="8.2193251"
       x="-717.42853"
       id="image2334"
       height="774"
       width="692"
       sodipodi:absref="/home/bersace/WWW/morel/www/.test/resources/styles/santiago/css/pélerin/priant.png"
       xlink:href="/home/bersace/WWW/morel/www/.test/resources/styles/santiago/css/pélerin/priant.png" />
    <path
       style="fill:#000000"
       d="M 201.57147,691.78166 C 201.57147,691.46236 203.09862,688.87486 204.96514,686.03166 C 210.68157,677.324 216.57147,667.37563 216.57147,666.42791 C 216.57147,665.93343 216.91507,665.37886 217.33503,665.19552 C 217.75499,665.01219 220.74753,659.47044 223.98513,652.88053 C 228.88683,642.90343 229.94576,639.80834 230.31455,634.38053 C 230.74991,627.97303 230.69333,627.79417 226.9872,623.86219 C 224.91356,621.66219 220.67071,616.93719 217.55863,613.36219 C 214.44655,609.78719 209.54989,604.61219 206.67715,601.86219 L 201.45399,596.86219 L 191.50194,596.86219 C 184.36186,596.86219 181.67562,597.19002 181.99486,598.02244 C 182.45286,599.21669 181.10456,598.43614 167.83428,589.82469 C 163.56473,587.05406 158.04647,583.78898 155.57147,582.56894 C 153.09647,581.3489 150.39647,579.93364 149.57147,579.42391 C 148.74647,578.91419 140.28795,574.63415 130.77475,569.91272 C 121.26155,565.19128 111.708,560.21092 109.54462,558.84524 C 107.38125,557.47956 105.30725,556.36219 104.93573,556.36219 C 104.56422,556.36219 102.7853,555.23719 100.98258,553.86219 C 99.17986,552.48719 97.30974,551.36219 96.82675,551.36219 C 96.34377,551.36219 95.07624,550.56101 94.01003,549.58178 C 91.99996,547.7357 87.05016,544.30684 75.05954,536.45426 C 65.31804,530.07461 64.27473,529.43086 62.57147,528.74876 C 61.74647,528.41838 59.72147,527.56596 58.07147,526.85449 C 47.40753,522.2563 34.25741,520.28004 26.15437,522.05785 C 22.74828,522.80515 22.06774,523.43551 20.93786,526.88973 C 20.22319,529.07458 19.06089,534.18469 18.35496,538.24552 C 17.64904,542.30636 16.62589,545.68136 16.08129,545.74552 C 14.34701,545.94986 13.99923,540.09703 15.29415,532.49856 C 15.98434,528.44856 16.29035,524.71635 15.97417,524.20475 C 15.65799,523.69316 15.84338,522.73179 16.38616,522.06839 C 16.92894,521.40498 18.59583,516.83973 20.09035,511.92339 C 23.24465,501.54713 30.272,484.41229 34.41136,477.00441 C 35.9917,474.17619 39.87878,467.13719 43.04932,461.36219 C 52.17273,444.74428 55.91275,439.98744 72.44576,423.97354 C 77.05162,419.5123 82.00162,414.71216 83.44576,413.30656 C 84.8899,411.90097 89.88418,407.85097 94.54416,404.30656 L 103.01685,397.86219 L 97.97081,397.24293 C 88.64101,396.09796 82.19015,391.44887 78.84149,383.45658 C 77.40783,380.03483 77.52362,370.96863 79.07578,365.11219 C 79.63305,363.00954 79.45115,362.36219 78.30306,362.36219 C 77.4772,362.36219 75.99794,361.12469 75.01582,359.61219 C 74.03369,358.09969 71.56744,354.83719 69.53526,352.36219 C 67.50307,349.88719 64.09237,344.48719 61.95592,340.36219 C 59.81947,336.23719 57.75147,332.62145 57.36035,332.3272 C 56.96923,332.03296 55.71795,329.78296 54.57972,327.3272 C 53.4415,324.87145 52.14394,322.18719 51.69627,321.36219 C 49.16394,316.69544 48.49336,314.79988 46.6883,307.2059 C 45.5975,302.61686 44.44431,297.28719 44.12566,295.36219 C 43.48993,291.52164 41.56638,277.32881 41.14401,273.36219 C 40.99759,271.98719 40.57815,269.06219 40.21191,266.86219 C 39.58735,263.11051 38.38182,237.21364 38.2102,223.86219 C 38.09701,215.05561 39.26443,206.74157 43.19494,188.36219 C 44.54758,182.03719 46.05529,174.83719 46.54543,172.36219 C 47.03557,169.88719 48.37692,165.17523 49.52621,161.89118 C 50.6755,158.60712 51.39208,155.3371 51.11862,154.62447 C 49.88557,151.41118 56.21304,133.65788 60.15045,129.28345 C 60.93201,128.41514 61.57147,127.42263 61.57147,127.07786 C 61.57147,126.26477 64.95696,121.34446 70.5805,113.98455 C 73.05053,110.75185 75.73859,107.15185 76.55396,105.98455 C 77.36932,104.81725 78.60682,103.50233 79.30396,103.0625 C 80.00109,102.62267 80.57147,101.69112 80.57147,100.99238 C 80.57147,100.29365 86.87746,93.453507 94.58478,85.792067 C 122.2757,58.265997 128.06544,53.496287 141.44959,47.183857 C 147.21875,44.462907 153.09378,41.430547 154.50522,40.445267 C 155.91666,39.459977 158.35863,38.342177 159.93182,37.961257 C 161.50501,37.580347 164.88001,36.33736 167.43182,35.199075 C 175.88858,31.426764 177.99611,30.607292 187.30432,27.472046 C 192.38238,25.761621 197.38993,24.362182 198.43219,24.362182 C 199.47446,24.362182 202.06968,23.631283 204.19935,22.737963 C 206.32901,21.844642 212.99064,20.468955 219.00297,19.680881 C 226.71601,18.669881 230.28584,17.767488 231.1279,16.615894 C 232.83322,14.283726 252.62254,14.66123 266.57147,17.292021 C 293.40214,22.352332 306.25466,25.936955 313.07436,30.261876 C 315.48955,31.793547 321.20194,34.298082 325.76855,35.827508 C 330.33515,37.356937 334.49897,39.002907 335.02147,39.485237 C 335.54397,39.967557 336.72479,40.362187 337.64552,40.362187 C 340.97772,40.362187 357.84608,51.299867 364.57147,57.821347 C 365.94647,59.154657 368.37667,60.562567 369.97191,60.950037 C 373.10762,61.711667 384.57147,72.665247 384.57147,74.899747 C 384.57147,75.649427 385.1855,76.622667 385.93599,77.062497 C 386.68648,77.502327 388.04333,79.315587 388.95121,81.091957 C 389.8591,82.868337 392.63538,86.818287 395.12074,89.869637 C 397.60609,92.920977 400.14648,96.530077 400.76603,97.889857 C 401.38559,99.249637 402.22159,100.36219 402.6238,100.36219 C 403.65394,100.36219 414.9903,123.92561 416.5757,129.36219 C 417.29745,131.83719 418.71676,136.43549 419.72972,139.58064 C 420.74268,142.72579 421.57147,146.18674 421.57147,147.27163 C 421.57147,148.35652 421.97063,149.49085 422.4585,149.79237 C 423.18146,150.23919 426.42317,162.54515 429.18824,175.33935 C 431.27369,184.98893 431.61568,221.88657 429.7631,237.36219 C 428.23373,250.13784 424.81256,266.07111 422.95665,269.06157 C 421.64192,271.18003 421.95003,271.46126 431.33158,276.70563 C 441.89317,282.60965 445.26915,283.90926 459.32147,287.48061 C 464.68413,288.8435 468.57147,290.34703 468.57147,291.05828 C 468.57147,291.73303 470.48397,292.78641 472.82147,293.39912 C 475.15897,294.01183 479.54647,295.23837 482.57147,296.12477 C 491.41786,298.71698 493.65701,299.17167 500.71876,299.80982 C 506.97117,300.37484 513.57147,302.21889 513.57147,303.40073 C 513.57147,303.92953 512.78397,304.38249 511.82147,304.40729 C 510.68929,304.43647 511.13059,304.96135 513.07147,305.89402 L 516.07147,307.33563 L 511.57147,306.7348 C 509.09647,306.40434 505.27147,305.53106 503.07147,304.79417 C 500.87147,304.05729 495.92147,303.45641 492.07147,303.45889 C 481.01255,303.46602 471.85942,301.71093 461.07147,297.5147 C 448.21172,292.5126 436.40376,286.82806 432.42812,283.72533 C 430.51193,282.22986 424.51105,279.14313 414.07147,274.28305 C 409.12147,271.97861 404.84647,269.81619 404.57147,269.47767 C 404.29647,269.13916 401.14647,267.3801 397.57147,265.56865 C 390.15482,261.81064 389.81578,261.61555 379.03569,254.90309 C 369.56826,249.00797 341.82818,230.26885 335.86552,225.74055 C 328.5047,220.15043 324.82704,219.5828 313.32907,222.26214 C 310.72075,222.86996 308.24575,223.27387 307.82907,223.15974 C 306.84368,222.88982 300.11893,225.19459 296.7248,226.96549 C 295.26547,227.7269 293.50028,228.35264 292.80215,228.35603 C 290.88957,228.36531 277.57147,233.69588 277.57147,234.45211 C 277.57147,236.03548 282.84874,244.36219 283.85225,244.36219 C 284.46263,244.36219 286.2187,243.15823 287.75462,241.68672 C 290.27781,239.26935 290.78444,239.13821 293.0063,240.32731 C 294.3588,241.05115 295.69546,242.24293 295.97666,242.97571 C 296.49284,244.32086 292.08287,250.36219 290.58478,250.36219 C 290.13988,250.36219 286.91739,252.09277 283.42367,254.20793 C 277.08788,258.04374 275.52212,258.60469 266.07147,260.42457 C 261.23061,261.35676 252.38283,260.99451 249.08526,259.72911 C 248.19867,259.38889 247.61566,258.37966 247.78966,257.48636 C 248.03988,256.20181 249.46161,255.83828 254.58876,255.74784 C 263.49639,255.59072 270.75477,253.90284 275.55573,250.87212 L 279.60041,248.31883 L 278.03228,245.2864 C 275.31817,240.03789 272.40039,237.36219 269.39113,237.36219 C 267.84032,237.36219 266.57147,237.75105 266.57147,238.22633 C 266.57147,238.70161 264.43397,239.8882 261.82147,240.86319 C 259.20897,241.83819 256.39647,243.19897 255.57147,243.88715 C 254.74647,244.57533 252.04647,246.09669 249.57147,247.26795 C 247.09647,248.43921 244.17147,249.95206 243.07147,250.62985 C 241.97147,251.30764 240.91962,251.93904 240.73403,252.03297 C 240.54843,252.12689 240.00996,253.918 239.53741,256.01321 C 238.86013,259.0162 239.02802,260.20919 240.33046,261.64838 C 241.67467,263.13371 241.75794,263.83396 240.77708,265.40456 C 240.114,266.46633 239.57147,268.02226 239.57147,268.86219 C 239.57147,269.70212 239.15344,271.17072 238.64252,272.12576 C 238.13159,273.0808 236.05297,277.34969 234.02337,281.61219 C 231.99376,285.87469 229.93679,289.36219 229.45232,289.36219 C 228.96785,289.36219 228.57147,289.84658 228.57147,290.43861 C 228.57147,291.03064 226.32147,294.86432 223.57147,298.9579 C 220.82147,303.05149 218.57147,306.6795 218.57147,307.02017 C 218.57147,309.11752 236.72219,329.08715 242.93703,333.82744 C 246.94643,336.88556 248.51656,336.97982 251.84434,334.36219 C 255.10191,331.79979 256.95581,331.78446 256.29134,334.32542 C 256.00897,335.4052 256.40648,336.8103 257.1747,337.44787 C 257.94293,338.08543 258.57147,339.18859 258.57147,339.89931 C 258.57147,341.27346 263.13205,341.7964 284.74998,342.90109 C 295.8475,343.46818 296.48355,343.39499 297.53516,341.43003 C 298.14383,340.29272 299.301,339.36219 300.10665,339.36219 C 300.9123,339.36219 301.45897,338.82076 301.32147,338.15902 C 301.18219,337.4887 303.72867,336.04883 307.07147,334.90779 C 323.57401,329.27475 338.73313,310.8231 335.95436,299.7516 C 334.83007,295.27209 329.60713,295.98969 309.46836,303.39063 C 294.16231,309.01556 285.69402,310.84965 275.07147,310.8404 C 264.83233,310.83148 261.34436,309.82988 250.23128,303.70732 C 248.15047,302.56093 247.09436,302.4393 246.28128,303.25238 C 245.4682,304.06546 245.49231,304.68303 246.37147,305.56219 C 248.06854,307.25926 247.87214,308.13091 245.50755,309.3964 C 242.94486,310.76791 240.56461,309.12032 240.58602,305.98975 C 240.60279,303.53865 242.94645,296.47152 245.16582,292.17973 C 247.2313,288.18554 250.16416,288.74442 249.82887,293.06831 C 249.5364,296.84016 252.83028,299.97993 261.41326,304.11069 C 266.43949,306.52968 268.18839,306.82908 277.07147,306.79127 C 285.40306,306.75581 288.90672,306.1998 298.07147,303.45868 C 304.12147,301.64916 309.68627,299.82754 310.43769,299.41063 C 311.18911,298.99372 306.91411,298.69976 300.93769,298.7574 C 288.17974,298.88043 284.38895,297.37328 281.02215,290.83931 C 279.89503,288.65189 277.74368,284.93669 276.24138,282.58331 C 272.74282,277.10276 272.05269,273.49052 273.58923,268.70171 C 274.77239,265.01427 281.44265,257.36219 283.47382,257.36219 C 285.5186,257.36219 285.77988,259.70211 283.90787,261.2494 C 279.09909,265.22408 278.13696,273.66591 282.07147,277.36219 C 283.44647,278.65394 284.57147,280.47101 284.57147,281.40014 C 284.57147,287.13607 297.63648,291.68169 312.31853,291.05399 C 319.794,290.73439 322.63714,290.08272 321.48814,288.95224 C 321.25897,288.72677 316.12147,287.52704 310.07147,286.28617 C 297.58311,283.72477 296.10387,282.75151 298.89587,278.93323 C 300.15081,277.21699 300.58582,277.20515 307.19068,278.70739 C 315.29596,280.5509 321.10042,282.74664 332.88433,288.42695 C 335.81467,289.83949 337.30119,290.03525 339.30678,289.27273 C 342.62459,288.01129 344.97887,288.85813 344.15111,291.01524 C 343.52374,292.65015 346.05219,296.36219 347.79318,296.36219 C 348.29463,296.36219 350.13739,297.41458 351.88819,298.70082 C 353.63899,299.98707 359.79647,302.92643 365.57147,305.23273 C 371.34647,307.53903 376.80122,309.8294 377.69314,310.32243 C 378.69942,310.87868 379.7123,310.82136 380.36228,310.17138 C 381.41238,309.12128 382.59942,309.30377 398.07147,312.89379 C 403.71946,314.20431 414.25467,315.68235 427.33259,316.99897 C 430.48897,317.31673 433.82939,317.97846 434.75573,318.46946 C 435.68207,318.96046 437.97742,319.36219 439.85651,319.36219 C 441.73559,319.36219 444.57767,319.7856 446.17225,320.30311 C 447.76682,320.82061 451.09647,321.51825 453.57147,321.85341 C 456.04647,322.18857 459.64647,322.68419 461.57147,322.95478 C 467.75273,323.82365 473.9052,323.67685 480.75202,322.4971 C 484.42632,321.86399 490.95132,321.30554 495.25202,321.2561 C 504.61325,321.14847 515.26254,318.94837 517.89512,316.57814 C 518.94335,315.63437 520.18821,313.84969 520.66148,312.61219 C 521.7334,309.80933 524.22234,309.68682 525.08176,312.39461 C 525.85054,314.81681 523.36141,319.03678 519.03405,322.6477 C 515.61617,325.4997 507.46415,327.36219 498.39897,327.36219 C 495.20612,327.36219 489.10126,328.35589 484.83263,329.57041 C 475.26009,332.294 454.8741,332.533 441.58531,330.07741 C 436.62459,329.16074 432.65955,328.87413 432.04096,329.38751 C 431.12171,330.15042 425.19528,329.92814 420.57147,328.95733 C 419.74647,328.78411 417.149,328.29523 414.79931,327.87094 C 412.44962,327.44664 410.28556,326.70859 409.99029,326.23084 C 408.89211,324.45394 407.77513,325.46305 407.14965,328.79716 C 405.60292,337.04192 382.53987,362.34804 367.07147,372.77327 C 364.32147,374.62669 361.25144,377.05129 360.24918,378.16128 C 359.24691,379.27127 357.10941,380.72515 355.49918,381.39214 C 353.88894,382.05912 352.57147,382.93291 352.57147,383.3339 C 352.57147,383.73488 349.53397,385.59279 345.82147,387.46258 C 342.10897,389.33236 338.31301,391.49984 337.38599,392.27918 C 335.05588,394.23813 324.69361,398.36219 322.1016,398.36219 C 320.93003,398.36219 319.46369,398.86997 318.84307,399.49059 C 318.22245,400.11121 314.53245,400.84667 310.64307,401.12495 C 303.52001,401.63461 301.66411,402.64121 305.82147,403.7401 C 311.45754,405.22985 324.03602,420.05723 325.18445,426.56498 C 325.50447,428.37844 326.81209,432.11219 328.09026,434.86219 C 329.439,437.764 330.61859,442.58984 330.90123,446.36219 C 331.53556,454.82835 335.78105,472.36291 339.49655,481.86219 C 341.21315,486.25095 344.67801,493.16683 348.01356,498.86219 C 349.94625,502.16219 351.87803,505.53719 352.30642,506.36219 C 354.10147,509.81915 365.80069,526.88695 366.56735,527.16724 C 367.46623,527.49586 369.13096,523.45263 368.7155,521.9499 C 367.97775,519.28144 372.31342,513.36219 375.00573,513.36219 C 376.53925,513.36219 375.24374,518.92286 372.55042,523.90109 C 369.27634,529.95278 369.39613,531.69529 373.02366,530.78483 C 376.13549,530.00381 377.45222,532.23499 374.97425,534.09006 C 373.73523,535.01762 371.68409,535.3361 369.09431,535.00305 C 365.28738,534.51346 364.85935,534.75825 359.09431,540.72218 C 352.49711,547.54697 343.88021,553.76524 333.07147,559.50121 L 326.07147,563.21596 L 326.24195,574.03907 C 326.48939,589.74755 327.45822,608.52868 328.14856,610.99933 C 328.47699,612.17476 328.2565,613.43882 327.65859,613.80835 C 327.06067,614.17788 326.57147,615.71914 326.57147,617.23338 C 326.57147,618.74761 325.66569,621.86128 324.55863,624.15264 L 322.54578,628.31875 L 325.05863,633.52762 C 326.44069,636.3925 327.57147,639.0434 327.57147,639.41851 C 327.57147,641.34571 337.16947,656.67348 339.43965,658.37168 C 345.78108,663.1154 346.16702,664.36219 341.29398,664.36219 C 335.4055,664.36219 328.70757,657.79407 321.52468,644.97604 C 316.51997,636.04504 317.31427,636.41489 306.83983,638.13819 C 303.75598,638.64556 301.2342,638.62492 300.69719,638.08791 C 299.53644,636.92716 295.57147,638.96556 295.57147,640.72306 C 295.57147,641.43284 296.6601,643.03628 297.99065,644.28627 C 299.3212,645.53625 301.37031,648.87719 302.54423,651.71058 C 303.71815,654.54397 305.06056,657.76219 305.52736,658.86219 C 305.99417,659.96219 307.39387,663.78719 308.63782,667.36219 C 309.88176,670.93719 311.72572,675.53176 312.7355,677.57235 C 314.9637,682.07514 315.03839,683.36219 313.07147,683.36219 C 311.12357,683.36219 311.17532,684.26697 313.25463,686.56458 C 314.73315,688.19833 314.75961,688.60262 313.4723,689.88993 C 312.18499,691.17725 311.74109,691.1693 309.82119,689.82455 C 307.6074,688.27395 301.82797,676.89595 296.4765,663.55278 C 294.86415,659.5326 292.42592,654.03506 291.05821,651.33602 C 289.6905,648.63698 288.57147,645.51372 288.57147,644.39543 C 288.57147,642.0655 286.94545,641.76658 284.65021,643.67456 C 282.6531,645.33472 276.26378,647.98385 271.07147,649.30458 C 267.54021,650.20279 266.67835,651.05678 263.7168,656.59211 C 255.86045,671.27613 252.74404,678.11684 252.09068,682.11219 C 251.70843,684.44969 251.08969,686.36219 250.71571,686.36219 C 250.34172,686.36219 248.35628,685.22097 246.3036,683.82614 C 243.87459,682.17558 242.57147,680.51419 242.57147,679.06792 C 242.57147,676.31464 247.44761,662.58198 250.81127,655.86219 C 252.18781,653.11219 253.60353,649.31071 253.95732,647.41446 C 254.75169,643.15671 257.1458,639.36219 259.03782,639.36219 C 259.81895,639.36219 261.1195,640.30653 261.92793,641.46072 C 263.08923,643.11871 264.02582,643.42131 266.38943,642.90217 C 268.13842,642.51803 269.65376,642.68631 270.03756,643.30731 C 271.8304,646.20819 285.89449,638.49467 289.92938,632.39754 C 295.18284,624.45902 292.7706,615.65907 280.74111,598.87842 C 272.06342,586.77339 264.68366,578.36219 262.74071,578.36219 C 261.15886,578.36219 260.26568,580.31176 260.35811,583.56274 C 260.4497,586.78423 258.34019,588.24506 256.1825,586.45434 C 255.03271,585.5001 255.04422,584.66903 256.25588,581.15215 C 257.04616,578.85834 257.4306,575.93706 257.11019,574.66043 C 256.6672,572.89542 257.07195,572.08909 258.79954,571.29502 C 262.25632,569.70614 265.99494,561.32326 265.70914,555.80207 C 265.47713,551.31987 265.53995,551.21406 268.24321,551.53406 C 270.84514,551.84206 271.09759,551.52477 272.3582,546.36219 C 273.09685,543.33719 274.1904,539.06219 274.78832,536.86219 C 275.38623,534.66219 275.79129,529.5884 275.68844,525.58709 C 275.559,520.55068 276.01261,517.23483 277.16255,514.8115 C 278.70687,511.55709 278.70787,511.00787 277.17684,506.99892 C 275.48441,502.56737 271.60096,498.36219 269.20087,498.36219 C 268.20544,498.36219 267.66227,500.85812 267.15561,507.76051 C 266.57942,515.60996 263.89139,528.434 259.58838,543.86219 C 255.53602,558.39173 248.78508,568.26654 241.68622,570.04824 C 240.27807,570.40166 238.35813,571.62938 237.41969,572.77651 C 236.02121,574.48597 235.47635,574.62889 234.39907,573.56881 C 233.31444,572.50149 233.41207,571.71498 234.95768,569.06881 C 248.04264,546.66664 254.28547,532.03953 251.49719,530.31628 C 250.48697,529.69193 250.43391,528.27616 251.25162,523.76479 C 254.02076,508.48732 252.18671,493.16771 247.00587,488.30056 C 243.35263,484.86852 241.75892,486.25766 242.34554,492.36271 C 242.61875,495.20605 242.26063,502.33162 241.54973,508.19731 C 239.85019,522.22015 239.96492,521.42526 239.14451,524.86219 C 238.75065,526.51219 237.96216,530.11219 237.3923,532.86219 C 231.67247,560.46486 224.08098,581.1634 218.36943,584.72893 C 215.68185,586.4067 215.19955,584.78706 217.46473,581.6908 C 219.42277,579.01438 225.63981,561.35546 228.84642,549.36219 C 231.27484,540.27949 236.6143,512.14297 236.02923,511.51205 C 235.00913,510.41203 233.57147,512.95663 233.57147,515.86219 C 233.57147,517.72227 233.12147,519.52227 232.57147,519.86219 C 232.02147,520.20211 231.57147,521.53052 231.57147,522.81422 C 231.57147,525.48126 228.78193,527.07422 227.94245,524.88657 C 227.63813,524.09353 227.84903,521.96361 228.41111,520.15343 C 229.99228,515.06128 230.81895,506.76543 230.08031,503.40246 C 228.96805,498.33835 227.74883,499.99564 228.27076,505.86219 C 228.776,511.54119 227.92428,512.69928 225.44391,509.70585 C 224.20532,508.21106 224.00986,508.33297 223.43978,510.95585 C 223.09236,512.55434 222.75486,516.73498 222.68978,520.24617 C 222.62471,523.75736 222.14299,528.25736 221.6193,530.24617 C 221.09561,532.23498 219.72421,537.68719 218.57176,542.36219 C 217.4193,547.03719 216.05802,551.76219 215.54669,552.86219 C 215.03537,553.96219 213.9091,557.11219 213.04387,559.86219 C 211.31974,565.34212 211.15889,565.73789 206.57706,575.77339 C 203.49016,582.53456 203.46128,582.73323 205.24657,584.92565 C 206.25026,586.15823 209.02444,589.5732 211.4114,592.51445 C 230.96805,616.61252 234.10837,619.92256 240.32147,622.98707 C 244.20453,624.90232 244.62621,627.36219 241.07147,627.36219 C 237.9119,627.36219 237.93107,628.08432 241.18071,631.47621 C 244.3049,634.73716 243.61005,636.51991 239.5327,635.70444 C 237.16522,635.23094 236.57147,635.45859 236.57147,636.83981 C 236.57147,637.79 235.4631,640.65875 234.10842,643.21481 C 232.75375,645.77087 229.99868,651.23719 227.98606,655.36219 C 225.97344,659.48719 222.58049,665.56219 220.44616,668.86219 C 218.31184,672.16219 216.26614,675.53719 215.90017,676.36219 C 214.72363,679.0144 209.35457,686.77824 206.73716,689.61219 C 204.45624,692.08182 201.57147,693.29335 201.57147,691.78166 z M 258.45647,656.27596 C 261.68897,649.96014 262.15013,648.36219 260.74033,648.36219 C 260.28321,648.36219 258.60444,651.17469 257.00974,654.61219 C 255.41504,658.04969 253.95155,661.19969 253.75754,661.61219 C 253.56354,662.02469 253.84055,662.36219 254.37313,662.36219 C 254.90572,662.36219 256.74322,659.62338 258.45647,656.27596 z M 311.56261,633.07233 C 314.43947,631.61681 315.53273,628.36219 313.14479,628.36219 C 310.44049,628.36219 311.42346,625.7572 314.82147,623.91882 C 316.60897,622.95175 318.89643,621.05908 319.90472,619.71288 C 321.6554,617.37548 321.65931,617.14519 319.99133,614.59954 C 318.54757,612.39609 318.1026,608.28608 317.42528,590.89801 C 316.4903,566.89547 315.88292,562.97865 312.36347,558.25598 C 310.97244,556.3894 308.15268,551.26219 306.09733,546.86219 C 304.04198,542.46219 302.01506,538.17242 301.59306,537.32937 C 301.17106,536.48631 300.48936,534.23631 300.07819,532.32937 C 299.66701,530.42242 298.74104,527.70747 298.02048,526.29615 C 296.21585,522.76153 290.80101,495.95931 290.60924,489.61219 C 290.53831,487.26481 287.52435,488.35593 286.47811,491.10776 C 285.90398,492.61782 284.32137,495.31237 282.9612,497.09565 C 280.88377,499.8193 280.67286,500.68312 281.64278,502.49543 C 282.27915,503.6845 282.9552,510.415 283.14895,517.49032 C 283.50018,530.31655 283.50436,530.33587 287.93231,539.59498 C 290.36981,544.69195 293.19828,549.81802 294.2178,550.98626 C 295.23732,552.1545 298.18337,555.83464 300.76458,559.16435 C 304.21793,563.61909 306.19918,565.30341 308.26458,565.54028 C 311.65869,565.92954 312.08069,568.71889 308.81561,569.18251 C 307.57489,569.35868 305.14325,568.79618 303.41197,567.93251 C 301.68069,567.06883 298.03793,566.36219 295.31694,566.36219 C 290.76452,566.36219 289.77318,565.88233 282.89554,560.34955 C 278.78476,557.0426 275.00516,554.59415 274.49643,554.90857 C 271.04229,557.04335 278.11368,565.22781 284.86571,566.91002 C 289.60939,568.09187 290.14371,569.43694 286.39343,570.75584 C 282.85254,572.00111 279.47309,570.93348 274.18947,566.9004 L 269.65361,563.4381 L 267.75512,566.15014 C 264.36043,570.99957 264.55565,571.52703 273.06566,580.49884 C 281.78204,589.68822 293.57553,606.55931 295.33926,612.36219 C 296.97922,617.75784 297.76993,623.35486 297.70559,629.11219 L 297.64693,634.36219 L 303.3592,634.34745 C 306.50095,634.33934 310.19248,633.76554 311.56261,633.07233 z M 195.16036,590.28546 C 192.10348,586.65256 192.08183,586.45683 194.23707,581.93725 C 195.39959,579.49941 196.50159,578.50754 197.88561,578.65332 C 199.47875,578.82113 200.26529,577.6827 201.88668,572.86219 C 202.99665,569.56219 205.40305,562.92598 207.23423,558.11505 C 210.96752,548.30686 216.15841,529.20571 216.95108,522.35951 C 217.23781,519.88304 217.07019,516.07343 216.57858,513.89372 C 215.98966,511.28254 216.04653,509.4947 216.74529,508.65275 C 218.04857,507.0824 216.97353,495.59407 214.98693,489.86219 C 213.3994,485.28173 213.14355,479.7447 214.48123,478.91796 C 215.99798,477.98056 218.23699,479.33268 219.40199,481.88956 C 220.00777,483.2191 221.98122,484.93224 223.78744,485.69653 C 225.59366,486.46083 227.81552,487.93577 228.7249,488.97417 C 231.67447,492.34221 235.01929,499.75384 235.66941,504.36219 C 236.27058,508.62357 236.32269,508.491 236.65217,501.86219 C 236.84353,498.01219 237.0551,492.61219 237.12231,489.86219 C 237.35174,480.47559 236.93085,481.0614 243.07916,481.57127 C 252.4818,482.35101 256.26198,487.82693 257.2828,502.14647 C 257.60761,506.70282 258.25544,510.66688 258.72242,510.95548 C 259.1894,511.24409 259.57147,512.35367 259.57147,513.42121 C 259.57147,514.48875 259.98565,515.36219 260.49188,515.36219 C 260.9981,515.36219 261.72048,512.48426 262.09717,508.96679 C 262.83333,502.09261 261.46054,493.36802 259.06824,489.71691 C 257.83638,487.83687 257.83845,487.38551 259.08363,486.3521 C 260.24615,485.38729 261.14925,485.79789 263.79659,488.49483 C 265.59778,490.32977 268.1849,492.42625 269.54577,493.15369 C 270.90663,493.88114 273.43758,495.35239 275.17009,496.42314 C 277.63353,497.94563 278.52622,498.09667 279.26567,497.11608 C 280.71482,495.19436 282.52046,488.16125 282.2833,485.36219 C 282.09175,483.10155 282.47253,482.83304 286.26031,482.55768 C 289.97478,482.28766 290.48438,481.94792 290.76031,479.55768 C 290.9362,478.03397 291.69227,476.86219 292.49952,476.86219 C 294.35167,476.86219 295.50477,481.14784 295.9973,489.86219 C 296.39442,496.88847 298.83137,512.25617 300.43743,517.86219 C 303.23606,527.63091 305.08223,533.32551 306.59716,536.86219 C 307.53954,539.06219 308.64457,541.98719 309.05281,543.36219 C 309.46104,544.73719 311.12777,548.22469 312.75665,551.11219 C 315.77866,556.46927 316.64952,556.93104 322.82147,556.44902 C 324.33397,556.3309 325.57147,556.71304 325.57147,557.29822 C 325.57147,557.8834 326.13397,558.35211 326.82147,558.33978 C 328.73635,558.30546 338.43056,553.29752 344.66389,549.12255 C 350.23983,545.38789 361.57147,534.31793 361.57147,532.60541 C 361.57147,532.10752 360.36783,531.06161 358.89671,530.28117 C 352.23796,526.74866 336.07753,503.77407 332.57603,492.86219 C 331.87007,490.66219 330.90663,487.73719 330.43506,486.36219 C 328.93021,481.97443 327.49543,473.22428 326.08981,459.86219 C 324.22226,442.10896 320.49605,430.96946 313.22336,421.39791 C 306.3821,412.39416 304.13695,410.66029 296.07147,408.15199 C 286.31021,405.11631 286.08605,405.1236 281.72372,408.6184 C 279.49676,410.40248 277.65147,412.24272 277.62308,412.70782 C 277.5947,413.17292 276.7403,414.74792 275.72442,416.20782 C 274.70855,417.66772 273.38195,420.32469 272.77644,422.11219 C 271.24386,426.63643 273.50333,426.50108 275.96993,421.92088 C 276.98923,420.02816 278.45859,418.23575 279.23519,417.93774 C 281.13307,417.20945 282.17972,420.23111 280.72823,422.24811 C 280.08939,423.13586 279.15137,424.81559 278.64376,425.98087 C 277.54173,428.51068 272.86877,432.36219 270.90143,432.36219 C 268.25438,432.36219 264.67099,429.19376 263.58026,425.88883 C 262.77115,423.43719 262.80282,421.32906 263.70243,417.75638 C 265.05775,412.37391 269.81205,407.15967 284.40969,395.04584 C 291.44381,389.20858 293.13047,387.17604 296.152,380.89557 C 301.00411,370.81011 300.34654,368.28081 291.51166,363.04699 C 285.29532,359.3644 284.84554,359.25516 278.57147,359.90412 C 266.65736,361.13647 261.11739,361.20633 255.73967,360.19205 C 252.80719,359.63896 249.39683,359.44019 248.16111,359.75033 C 245.70951,360.36565 243.57147,364.10958 243.57147,367.78727 C 243.57147,369.06931 242.67198,370.73563 241.5726,371.49022 C 238.49415,373.60318 239.86647,379.93414 243.96929,382.54693 C 246.81692,384.36039 248.32283,384.47897 262.32147,383.99201 C 275.9857,383.51669 280.39314,384.06544 276.11055,385.70882 C 272.03496,387.27277 251.91295,388.51772 239.88689,387.94998 C 232.56341,387.60424 226.57147,387.70969 226.57147,388.18431 C 226.57147,389.0418 231.41597,391.72651 234.88485,392.79139 C 236.82001,393.38545 236.29501,395.36219 234.20207,395.36219 C 233.51381,395.36219 230.27787,394.32918 227.01108,393.06662 C 222.50579,391.3254 220.10553,390.9414 217.07147,391.47646 C 208.65377,392.96093 194.34523,386.54335 190.7103,379.65311 C 189.62189,377.58996 180.78615,372.81417 179.82877,373.77156 C 179.59028,374.01005 180.61535,376.28729 182.1067,378.83209 C 185.6206,384.82811 192.48874,390.01082 199.4946,391.95305 C 207.83757,394.26596 208.51622,394.74045 204.07147,395.15304 C 193.08786,396.1726 180.22339,387.73475 174.42193,375.70581 C 171.23808,369.1043 166.88763,365.48364 160.30549,363.95742 C 157.94754,363.41068 157.3888,363.71244 156.51793,366.00301 C 155.95607,367.48083 155.22292,372.85267 154.88871,377.94045 C 154.31419,386.68677 154.42476,387.43613 156.91742,391.68954 C 160.32512,397.50434 164.94574,400.36219 170.9395,400.36219 C 175.94975,400.36219 177.53376,402.60305 173.32147,403.7319 C 167.97927,405.16356 162.29214,404.34916 157.17102,401.41915 C 150.87539,397.81715 148.18538,395.04212 145.95494,389.84854 C 143.88299,385.02401 143.73528,384.23097 142.80587,372.94192 C 142.03634,363.59497 141.06913,362.00711 138.00936,365.06755 C 136.03001,367.04733 123.63554,375.36219 122.66375,375.36219 C 122.3276,375.36219 121.48673,376.26823 120.79516,377.37561 C 119.74418,379.0585 119.86885,380.07431 121.55461,383.56344 C 124.06301,388.75522 124.06474,389.60582 121.57147,391.86219 C 120.47147,392.85768 119.57147,394.72138 119.57147,396.00376 C 119.57147,397.72322 118.65258,398.71928 116.07147,399.79774 C 114.14647,400.60206 112.57147,401.69699 112.57147,402.23093 C 112.57147,402.76487 109.34468,405.60033 105.40082,408.53196 C 88.08003,421.4072 83.52462,425.20912 75.7366,433.28951 C 72.25242,436.90448 67.66013,442.11219 65.53152,444.86219 C 63.40291,447.61219 60.30321,451.43719 58.6433,453.36219 C 56.98338,455.28719 55.61317,457.48441 55.59837,458.24489 C 55.58358,459.00538 54.76859,460.35538 53.7873,461.24489 C 52.00586,462.85972 45.57147,472.53527 45.57147,473.59925 C 45.57147,473.90833 43.96752,476.54467 42.00713,479.4578 C 40.04675,482.37092 37.52139,486.80364 36.39523,489.30829 C 35.26907,491.81293 33.76684,494.53719 33.05693,495.36219 C 32.34703,496.18719 31.08827,499.11219 30.25969,501.86219 C 29.43112,504.61219 28.06784,508.21219 27.23018,509.86219 C 26.39253,511.51219 25.40328,514.09804 25.03184,515.60852 L 24.3565,518.35485 L 31.75056,517.72983 C 43.89039,516.70364 57.60488,520.76689 72.07147,529.67589 C 78.69797,533.75671 93.98329,544.66379 94.4048,545.61219 C 94.58814,546.02469 95.17533,546.36219 95.70967,546.36219 C 96.24402,546.36219 99.24402,548.07795 102.37634,550.17499 C 108.82767,554.49406 115.51596,558.28437 130.39486,566.05334 C 150.2883,576.44064 162.19065,582.90315 164.07147,584.33843 C 164.62147,584.75814 166.64647,585.61968 168.57147,586.25295 C 170.49647,586.88622 174.77147,588.73478 178.07147,590.36087 C 182.92127,592.75061 185.38249,593.32167 190.91036,593.33978 L 197.74926,593.36219 L 195.16036,590.28546 z M 274.77147,492.16219 C 274.11147,491.50219 273.57147,490.08311 273.57147,489.00868 C 273.57147,486.58499 268.81492,476.36219 267.68721,476.36219 C 266.70292,476.36219 261.57147,482.39734 261.57147,483.55497 C 261.57147,483.99894 260.89647,484.36219 260.07147,484.36219 C 257.1202,484.36219 258.63914,479.8334 263.48677,474.1793 C 266.18634,471.03062 270.53476,470.4081 272.58375,472.87698 C 273.94511,474.51733 276.49192,483.57901 277.28721,489.61219 C 277.79097,493.43373 276.9229,494.31362 274.77147,492.16219 z M 246.34017,563.11219 C 251.10976,556.03632 256.58055,542.03794 255.1395,540.59689 C 254.82708,540.28447 254.45897,540.21636 254.32147,540.44552 C 254.18397,540.67469 251.05354,546.82469 247.36495,554.11219 C 242.86655,562.99963 241.12217,567.36219 242.06691,567.36219 C 242.84157,567.36219 244.76454,565.44969 246.34017,563.11219 z M 295.57147,561.48463 C 295.57147,561.00198 294.93418,560.07818 294.15528,559.43174 C 292.19575,557.80548 283.57147,544.95485 283.57147,543.66131 C 283.57147,543.08148 282.95408,542.09469 282.1995,541.46844 C 281.10957,540.56388 280.56641,540.96018 279.55738,543.3962 C 277.83749,547.54838 279.25081,550.00061 287.34719,556.9122 C 293.5228,562.1841 295.57147,563.32309 295.57147,561.48463 z M 310.57147,393.46811 C 324.93555,390.82505 330.48193,389.15204 339.57147,384.72051 C 344.79647,382.1731 350.54963,378.80036 352.35627,377.22553 C 354.1629,375.65069 356.11673,374.36219 356.69811,374.36219 C 360.48931,374.36219 386.93681,349.84032 393.89262,339.87579 C 398.18554,333.72599 403.77321,324.20788 403.32391,323.81042 C 403.18507,323.68759 398.34647,322.1581 392.57147,320.41155 C 386.79647,318.66499 379.59647,316.13644 376.57147,314.79255 C 365.06459,309.68047 344.0399,301.61603 343.32147,302.03884 C 342.90897,302.2816 342.57147,303.78998 342.57147,305.39079 C 342.57147,308.54081 341.0776,311.52468 334.7687,320.97618 C 329.60234,328.716 325.17726,332.88527 317.86569,336.90203 C 314.67887,338.65277 312.18068,340.58767 312.31417,341.20179 C 312.61734,342.59661 308.19348,344.87516 303.57147,345.70479 C 297.73999,346.75151 285.58182,350.80606 285.57648,351.70581 C 285.57372,352.1698 286.48314,352.78784 287.59741,353.07922 C 293.33233,354.57894 302.23806,360.30947 304.87778,364.19854 C 311.30042,373.66094 306.71218,390.36219 297.68999,390.36219 C 294.91583,390.36219 294.47969,392.63207 296.96812,394.11914 C 299.1776,395.43951 300.09655,395.39554 310.57147,393.46811 z M 108.07147,391.04532 C 110.70914,390.05239 112.08414,388.91292 112.10868,387.69967 C 112.12915,386.68774 112.54047,385.22136 113.02273,384.44105 C 113.70988,383.32921 113.48552,383.19178 111.98551,383.8057 C 108.31775,385.30687 106.57147,385.58934 106.57147,384.68146 C 106.57147,383.76378 119.11077,373.36219 120.21705,373.36219 C 120.54176,373.36219 122.26997,372.12469 124.0575,370.61219 C 125.84503,369.09969 129.00106,366.51219 131.07089,364.86219 C 137.3581,359.85024 142.5493,353.97528 142.56069,351.85901 C 142.60047,344.46703 149.60973,328.84683 155.96555,321.98615 C 157.5573,320.26797 160.02809,317.06219 161.45619,314.86219 C 162.8843,312.66219 164.34074,310.63719 164.69272,310.36219 C 165.0447,310.08719 169.10072,305.13719 173.70611,299.36219 C 178.31149,293.58719 184.47393,286.61219 187.40042,283.86219 C 190.32691,281.11219 193.72692,277.91491 194.95599,276.75713 C 198.52016,273.39971 216.36751,260.62566 221.98328,257.41265 C 224.80542,255.79798 229.09215,252.65108 231.50935,250.41954 C 233.92654,248.188 236.1244,246.36219 236.39347,246.36219 C 236.66254,246.36219 238.27516,245.32362 239.97708,244.05427 C 241.67899,242.78491 244.64647,240.96387 246.57147,240.00752 C 248.49647,239.05116 252.32147,236.91911 255.07147,235.26963 C 257.82147,233.62014 261.64647,231.56787 263.57147,230.70901 C 265.49647,229.85016 269.77147,227.81033 273.07147,226.17606 C 282.18241,221.66401 293.3907,217.54012 303.4632,214.99396 C 308.45641,213.73175 313.45909,211.86888 314.58025,210.85425 C 315.93204,209.63089 316.95382,209.34454 317.61346,210.00418 C 318.22623,210.61695 320.61709,210.69816 323.83983,210.21566 C 326.71723,209.78487 331.32147,209.12976 334.07147,208.75986 C 336.82147,208.38996 339.52147,207.74786 340.07147,207.33296 C 340.62147,206.91807 342.87834,206.37615 345.08674,206.1287 C 347.29514,205.88125 350.89514,204.83446 353.08674,203.80248 C 357.10898,201.90851 368.44954,191.47856 370.31489,187.9577 C 371.44713,185.8206 374.57147,186.38208 374.57147,188.72265 C 374.57147,189.50543 372.51318,192.4352 369.99749,195.23325 C 366.69436,198.90712 365.59421,200.85847 366.03789,202.2564 C 366.75578,204.51826 363.37674,207.36219 359.97141,207.36219 C 358.78613,207.36219 357.25616,208.03719 356.57147,208.86219 C 355.88678,209.68719 354.36918,210.39651 353.19903,210.43845 C 350.35185,210.5405 338.30715,215.5998 337.90599,216.86219 C 337.73121,217.41219 339.27195,218.88314 341.32984,220.13098 C 343.38774,221.37881 348.44647,224.83716 352.57147,227.8162 C 366.1619,237.63109 373.6584,242.82125 378.63651,245.86219 C 381.33762,247.51219 387.25098,251.11219 391.77732,253.86219 C 396.30366,256.61219 401.59653,259.84509 403.53925,261.04642 C 412.07,266.32162 416.8438,268.48986 417.80691,267.52675 C 421.28238,264.05128 426.97014,227.53023 424.74008,223.00899 C 424.15768,221.82825 423.7138,218.61219 423.75366,215.86219 C 423.79353,213.11219 423.54172,206.58719 423.1941,201.36219 C 422.84648,196.13719 422.298,187.36219 421.97527,181.86219 C 421.65253,176.36219 420.77884,169.38719 420.03372,166.36219 C 419.2886,163.33719 418.4381,159.51219 418.14371,157.86219 C 417.00242,151.46543 416.3917,148.78813 415.63448,146.86219 C 415.202,145.76219 413.65353,140.98777 412.19343,136.25236 C 410.73334,131.51695 408.64609,126.8347 407.55509,125.84737 C 406.41332,124.81408 405.57147,122.77393 405.57147,121.04025 C 405.57147,117.15078 399.48389,106.08841 395.03411,101.89173 C 392.91907,99.896987 391.57147,97.674777 391.57147,96.181787 C 391.57147,94.837447 389.68167,91.290577 387.37191,88.299857 C 382.83315,82.422987 371.94754,72.415367 368.84573,71.267937 C 367.79253,70.878337 366.213,69.464037 365.33567,68.125057 C 362.82158,64.288087 350.31646,57.124687 318.07147,41.050387 C 294.27853,29.189479 288.43812,26.964346 278.83397,26.101299 C 276.50334,25.891865 274.29084,25.414886 273.9173,25.041346 C 273.54376,24.667806 271.85064,24.359672 270.1548,24.356605 C 268.45897,24.353538 265.49647,23.925756 263.57147,23.405978 C 260.73532,22.640176 250.77491,21.359296 246.07147,21.155526 C 245.52147,21.131698 240.65628,21.623513 235.25994,22.248448 C 219.64448,24.056831 195.67793,30.685572 165.57147,41.523097 C 163.64647,42.216047 159.7549,44.468217 156.92354,46.527927 C 154.09218,48.587637 150.49218,50.584997 148.92354,50.966517 C 147.3549,51.348027 144.27147,52.876367 142.07147,54.362827 C 135.38123,58.883157 132.24241,60.750357 128.29305,62.559247 C 126.21493,63.511077 122.83993,65.877217 120.79305,67.817347 C 118.74618,69.757467 116.62147,71.351787 116.07147,71.360277 C 114.11053,71.390547 89.4287,97.846467 81.57147,108.34007 C 80.19647,110.17643 78.52099,112.23849 77.84817,112.92242 C 75.71097,115.09493 64.57147,132.75532 64.57147,133.9711 C 64.57147,134.61277 62.99647,137.42741 61.07147,140.22587 C 58.68988,143.6881 57.57147,146.44442 57.57147,148.85165 C 57.57147,150.79737 57.17397,153.17072 56.68814,154.12576 C 53.2865,160.81264 50.50839,171.54115 49.11747,183.36219 C 48.82624,185.83719 47.87961,191.68719 47.01383,196.36219 C 46.14805,201.03719 45.18351,208.01219 44.87041,211.86219 C 44.3912,217.7547 44.2236,243.02354 44.5819,255.36219 C 44.73082,260.49039 48.42968,277.79089 51.10283,285.86219 C 52.37792,289.71219 55.33831,300.05917 57.68148,308.85547 C 60.57779,319.72827 63.50415,328.0262 66.82166,334.77315 C 71.71808,344.73119 78.52833,355.19891 81.01646,356.59135 C 81.92118,357.09765 83.7416,355.49736 86.69515,351.59936 C 92.58607,343.82472 101.01311,335.56816 113.70905,325.13195 C 123.47994,317.10017 124.55932,315.86076 127.20055,309.64028 C 130.04161,302.94917 130.06975,302.68638 129.90566,284.37052 C 129.63867,254.56944 128.99303,243.90821 126.15041,222.36219 C 125.69471,218.90812 124.78386,215.49521 120.70661,201.96434 C 119.56341,198.17053 118.33404,191.82172 117.97467,187.85589 C 117.37838,181.2756 117.54622,180.26139 119.8947,176.25374 C 121.3101,173.83839 122.75138,169.83719 123.09756,167.36219 C 123.44374,164.88719 124.11633,161.96219 124.59222,160.86219 C 131.70048,144.43154 134.42278,140.00756 138.82646,137.73033 C 141.22293,136.49107 141.50334,135.98503 140.47814,134.74973 C 138.03129,131.80146 141.44857,130.34693 152.38783,129.68048 C 162.18525,129.0836 162.57621,128.97098 162.69647,126.71113 C 162.83209,124.1626 162.94533,123.62803 163.82958,121.36219 C 164.15154,120.53719 165.4059,116.71219 166.61704,112.86219 C 169.48208,103.7548 175.01477,93.157807 178.94798,89.244227 C 183.97607,84.241247 191.81042,78.586377 196.72596,76.411997 C 199.2358,75.301777 203.48349,72.131547 206.16527,69.367037 C 209.04857,66.394797 214.3168,62.628747 219.05636,60.151707 C 226.44989,56.287617 227.79263,55.930057 236.37062,55.541047 C 246.26385,55.092387 246.98093,55.236117 268.07147,61.894897 C 274.12147,63.805027 280.24828,65.366587 281.68661,65.365027 C 283.12494,65.363467 285.37494,66.161547 286.68661,67.138547 C 287.99828,68.115537 290.41992,69.578037 292.06803,70.388547 C 293.71614,71.199047 304.58549,81.488457 316.22214,93.253897 C 333.39417,110.61597 337.77392,114.54251 339.47247,114.09833 C 342.21353,113.38153 349.86352,120.18979 355.16927,128.06802 C 357.31548,131.25481 359.40897,134.01219 359.82147,134.19552 C 360.23397,134.37886 360.57147,134.87225 360.57147,135.29195 C 360.57147,135.71165 362.80837,139.81592 365.54235,144.41254 C 375.64098,161.39127 379.91455,185.36219 372.84291,185.36219 C 371.34017,185.36219 371.06641,184.41418 371.03814,179.11219 C 370.98448,169.04798 364.6377,152.64524 357.78565,144.86219 C 337.8004,122.16151 314.53239,98.315357 305.09486,90.862187 C 301.61268,88.112187 297.85251,84.283057 296.73892,82.353007 C 294.16322,77.888897 290.60462,75.306727 283.07147,72.435737 C 279.77147,71.178067 275.72147,69.535187 274.07147,68.784907 C 269.67509,66.785797 257.47804,63.615137 251.37567,62.885067 C 237.5106,61.226287 229.9837,61.842247 220.42177,65.418167 C 215.54145,67.243287 214.57147,68.000317 214.57147,69.984117 C 214.57147,71.573807 213.99131,72.369557 212.82147,72.384427 C 211.39492,72.402547 211.52386,72.754347 213.51907,74.287777 L 215.96668,76.168897 L 210.0494,76.908207 C 205.03553,77.534657 203.57005,78.215247 200.4505,81.366127 C 194.6357,87.239337 184.8661,100.93068 183.52941,105.07975 C 182.85919,107.16009 181.96538,109.31219 181.54318,109.86219 C 179.7196,112.23774 176.20802,126.5599 174.92318,136.86219 C 174.64881,139.06219 174.06327,142.25381 173.62199,143.95469 C 173.11872,145.8945 173.2664,148.13091 174.01821,149.95469 C 175.09987,152.57863 177.77428,164.25504 179.02036,171.79391 C 179.58865,175.23213 181.05237,194.57115 180.81407,195.49286 C 180.72439,195.83974 180.14285,201.23974 179.52175,207.49286 C 178.47777,218.00341 176.72231,229.43793 173.24739,248.36219 C 172.48994,252.48719 172.07227,257.50723 172.31923,259.51783 C 172.56619,261.52843 172.01896,265.75093 171.10317,268.90115 C 169.44257,274.61341 164.27101,284.96532 162.13028,286.86219 C 161.50957,287.41219 158.93485,290.56219 156.40868,293.86219 C 151.34977,300.47078 142.22388,310.22222 139.02123,312.44148 C 137.89359,313.22287 136.31859,314.80583 135.52123,315.95917 C 134.72386,317.1125 131.82147,319.9912 129.07147,322.35627 C 126.32147,324.72133 122.92335,328.60542 121.52008,330.98757 C 117.80421,337.29556 106.84757,350.95126 104.01098,352.80987 C 101.09144,354.72283 100.66147,353.10642 103.14622,349.55894 C 104.01233,348.32239 104.55198,346.80373 104.34546,346.18415 C 103.7445,344.38127 94.60634,357.19826 90.93252,364.99684 C 86.81975,373.72721 86.50149,379.8426 89.82147,386.34555 C 93.2838,393.12732 98.78053,394.54285 108.07147,391.04532 z M 255.57147,188.60551 C 246.60543,187.56398 238.17141,183.45295 234.9668,178.5621 L 233.26347,175.96249 L 232.38699,178.33186 C 230.83033,182.53991 229.31948,178.9968 228.47738,169.16341 C 228.0393,164.04774 227.86721,158.28719 228.09497,156.36219 C 228.32273,154.43719 228.75509,148.41272 229.05578,142.97447 C 229.35648,137.53623 229.86791,132.02927 230.1923,130.73679 C 230.68072,128.79077 229.46475,127.07373 223.11838,120.74791 C 215.8352,113.48833 214.55271,110.88516 217.79879,109.9503 C 226.95475,107.31341 236.82067,103.90045 238.1975,102.8937 C 239.29252,102.093 240.33979,99.124067 241.04303,94.826817 C 242.30103,87.139757 244.3602,84.722337 247.2168,87.578947 C 248.62773,88.989877 248.68636,89.518827 247.57965,90.852327 C 246.85364,91.727117 246.1825,94.635097 246.08823,97.314517 C 245.99395,99.993927 245.16411,103.33495 244.24414,104.739 C 243.32417,106.14305 242.57147,107.89266 242.57147,108.62701 C 242.57147,109.36136 242.18838,110.38969 241.72016,110.91219 C 241.25194,111.43469 240.07845,114.76453 239.11241,118.31183 C 238.14636,121.85913 236.75712,125.68413 236.0252,126.81183 C 234.4295,129.27038 232.14859,145.45446 232.86912,149.20557 C 233.14978,150.66671 233.07271,153.66219 232.69784,155.86219 C 231.39588,163.50312 235.66544,173.90828 242.12413,178.83456 C 247.6283,183.03279 252.44473,184.58183 260.05399,184.60109 C 268.57937,184.62267 273.84557,182.44934 288.19677,172.98671 C 299.59925,165.46836 304.40303,161.06322 305.15772,157.43329 C 305.45173,156.01919 306.11509,154.0808 306.63187,153.12576 C 307.14865,152.17072 307.57147,150.8735 307.57147,150.24305 C 307.57147,149.6126 308.55211,148.24628 309.75066,147.20678 L 311.92986,145.31677 L 308.62141,139.08948 C 303.26829,129.0136 297.27607,122.05217 284.93568,111.57271 C 281.16173,108.36787 277.85327,106.36219 276.34067,106.36219 C 274.9881,106.36219 273.10358,105.50266 272.15286,104.45213 C 271.20214,103.40159 269.28274,102.25555 267.88752,101.90538 C 266.49231,101.5552 263.48793,100.443 261.21112,99.433817 C 258.93431,98.424627 255.58815,97.032447 253.7752,96.340077 C 251.61739,95.515997 250.59449,94.525327 250.81352,93.471697 C 251.15235,91.841757 251.8657,91.779907 256.83397,92.949687 C 259.02908,93.466527 259.99363,93.095217 261.53012,91.141887 C 263.68936,88.396857 273.08428,83.877117 278.81091,82.828387 C 283.91775,81.893147 284.20655,83.248567 281.03776,93.279547 C 279.60092,97.827957 278.57071,101.63611 278.7484,101.74211 C 288.89032,107.79244 302.57299,120.15682 305.59224,125.99961 C 306.40582,127.57403 307.66187,129.48474 308.38348,130.24562 C 311.42504,133.45278 317.53423,148.34208 317.56065,152.61219 C 317.57571,155.04758 314.84848,154.81034 314.054,152.30714 C 313.00639,149.00643 311.26228,150.60194 309.85768,156.14595 C 307.87909,163.95552 303.51651,170.79498 300.26973,171.17756 C 298.79769,171.35101 297.0245,172.30501 296.32929,173.29756 C 295.06831,175.09786 288.50144,180.32419 283.35665,183.62199 C 281.8635,184.5791 278.9385,185.38194 276.85665,185.40608 C 274.7748,185.43022 271.27147,186.12615 269.07147,186.95258 C 264.94976,188.50091 259.94552,189.11362 255.57147,188.60551 z M 234.5129,116.12407 C 235.20872,113.78003 236.22029,111.3194 236.76083,110.65599 C 238.71474,108.25799 236.53961,107.59403 232.86581,109.46704 C 230.82134,110.50937 228.32961,111.36219 227.32864,111.36219 C 224.45227,111.36219 224.20747,113.93638 226.74081,117.54358 C 230.9299,123.50839 232.40063,123.23977 234.5129,116.12407 z M 275.83213,95.081647 C 276.09731,93.860947 276.64529,92.074687 277.04986,91.112187 C 278.14802,88.499607 273.67448,88.818187 269.46935,91.652017 C 265.13781,94.571047 265.16728,96.371537 269.57147,97.892277 C 273.47085,99.238717 275.08666,98.513327 275.83213,95.081647 z M 214.57147,386.38124 C 214.57147,385.84172 213.33397,385.12914 211.82147,384.79772 C 210.30897,384.4663 208.50897,384.02185 207.82147,383.81005 C 207.13397,383.59825 206.57147,384.04834 206.57147,384.81024 C 206.57147,385.57215 207.13397,386.4225 207.82147,386.69991 C 210.0555,387.60136 214.57147,387.38816 214.57147,386.38124 z M 224.57147,382.56514 C 224.57147,382.12676 222.77147,380.01043 220.57147,377.86219 C 218.37147,375.71395 216.57147,374.3022 216.57147,374.72498 C 216.57147,375.88506 218.63355,379.63873 220.35496,381.61219 C 221.91482,383.40045 224.57147,384.00087 224.57147,382.56514 z M 235.85538,379.61219 C 234.49198,374.64089 235.33258,366.99731 238.19233,358.36219 C 239.74057,353.68719 241.02854,349.36068 241.05447,348.74773 C 241.0804,348.13477 241.62115,347.00725 242.25615,346.24213 C 242.89114,345.47701 243.70503,343.67822 244.06479,342.24482 C 244.63951,339.95497 244.19409,339.32962 240.39519,337.09278 C 238.01714,335.69256 232.33086,330.68036 227.75901,325.95455 C 223.18716,321.22875 219.07708,317.36219 218.62551,317.36219 C 216.69551,317.36219 215.53955,349.29807 217.09428,359.66573 C 218.51805,369.16009 228.7405,382.36219 234.66826,382.36219 C 236.30223,382.36219 236.49017,381.92681 235.85538,379.61219 z M 212.53967,379.11219 C 212.52217,378.42469 211.83797,376.97609 211.01921,375.89309 C 209.71944,374.17383 207.87736,369.07353 206.85457,364.36219 C 206.36643,362.11364 204.65972,346.40142 204.43771,342.11219 C 204.23427,338.18183 202.91466,337.12812 201.93302,340.11219 C 201.6164,341.07469 200.78651,343.21219 200.08883,344.86219 C 196.46511,353.43223 195.29137,359.48114 195.88294,366.53744 C 196.21191,370.46133 196.88441,374.07513 197.37739,374.56811 C 198.50704,375.69776 209.64436,380.30661 211.32147,380.33845 C 212.00897,380.35151 212.55716,379.79969 212.53967,379.11219 z M 149.91935,374.05941 C 150.26213,371.14288 150.83033,367.31788 151.18203,365.55941 C 151.73229,362.8081 151.54002,362.36219 149.80346,362.36219 C 147.45387,362.36219 146.9315,363.55031 147.16551,368.36219 C 147.25913,370.28719 147.38877,373.54969 147.4536,375.61219 C 147.62781,381.15466 149.20194,380.16337 149.91935,374.05941 z M 185.84517,365.11219 C 184.56089,361.77909 184.20564,357.1946 184.19853,343.86219 C 184.18927,326.49008 184.21681,326.30653 189.30006,309.86219 C 189.86592,308.03163 189.76363,307.98917 188.09262,309.361 C 184.70285,312.14388 178.98094,320.83267 177.55522,325.36219 C 176.16484,329.77943 175.24909,359.4134 176.37046,363.70152 C 176.64225,364.74086 178.71117,366.42981 180.96805,367.45475 C 187.19114,370.28089 187.73592,370.01923 185.84517,365.11219 z M 170.15268,347.34645 L 170.23389,333.3307 L 167.93534,335.49008 C 166.67114,336.67773 164.89178,339.94732 163.98121,342.75582 C 163.07064,345.56432 161.93094,348.28969 161.44855,348.81219 C 160.96616,349.33469 160.57147,350.70719 160.57147,351.86219 C 160.57147,353.01719 160.06172,354.47194 159.43869,355.09497 C 157.75802,356.77564 159.17699,359.35996 161.79009,359.3775 C 163.04485,359.38592 164.74647,359.82903 165.57147,360.36219 C 169.71478,363.0398 170.06756,362.03752 170.15268,347.34645 z M 152.54485,358.36219 C 152.99024,358.36219 153.62652,357.279 153.9588,355.95509 C 154.29108,354.63119 154.838,352.83119 155.17419,351.95509 C 156.31954,348.97036 152.87236,350.27892 150.13478,353.86807 C 147.44388,357.39603 147.50507,359.98539 150.25441,358.93036 C 151.06876,358.61787 152.09946,358.36219 152.54485,358.36219 z M 274.57147,356.36219 C 274.57147,355.81219 272.09647,355.36219 269.07147,355.36219 C 266.04647,355.36219 263.57147,355.81219 263.57147,356.36219 C 263.57147,356.91219 266.04647,357.36219 269.07147,357.36219 C 272.09647,357.36219 274.57147,356.91219 274.57147,356.36219 z M 191.94251,352.15353 C 191.6087,351.6134 191.80592,350.20189 192.38079,349.01684 C 192.95566,347.83178 194.77829,343.26219 196.43107,338.86219 C 198.08386,334.46219 201.04159,327.40418 203.00381,323.17773 C 204.96602,318.95128 206.57147,314.85213 206.57147,314.06852 C 206.57147,313.28491 208.37654,310.59311 210.58273,308.08674 C 214.16874,304.01282 221.57147,293.71879 221.57147,292.80611 C 221.57147,292.34839 225.33199,286.83773 228.70109,282.35837 C 230.34102,280.17802 231.55954,276.98038 231.93872,273.86219 C 232.27312,271.11219 232.94574,266.38719 233.43342,263.36219 C 233.92109,260.33719 234.17199,257.69502 233.99096,257.4907 C 233.80993,257.28637 231.5981,258.32862 229.07579,259.80679 C 220.81726,264.64661 208.1453,280.63921 200.1106,296.36219 C 199.40795,297.73719 197.89897,300.67939 196.7573,302.90042 C 191.81528,312.51475 188.60659,332.49686 189.409,348.66199 C 189.69177,354.35863 189.9739,355.27309 191.14799,354.29868 C 191.91879,353.65897 192.27633,352.69366 191.94251,352.15353 z M 258.87865,353.41991 C 261.1847,352.90165 264.32737,352.21346 265.86237,351.89059 C 269.77203,351.06824 268.23819,349.36219 263.58918,349.36219 C 260.91172,349.36219 258.79938,348.5834 256.71132,346.82641 L 253.69771,344.29063 L 251.13459,348.66427 C 249.72487,351.06977 248.57147,353.33587 248.57147,353.70005 C 248.57147,354.65995 254.01982,354.51187 258.87865,353.41991 z M 210.77147,344.16219 C 209.83814,343.22886 209.57147,343.49552 209.57147,345.36219 C 209.57147,347.22886 209.83814,347.49552 210.77147,346.56219 C 211.7048,345.62886 211.7048,345.09552 210.77147,344.16219 z M 109.06252,341.7355 L 110.78359,339.10881 L 108.20896,340.9855 C 105.60379,342.88444 104.83684,344.36219 106.45646,344.36219 C 106.9432,344.36219 108.11593,343.18018 109.06252,341.7355 z M 157.93238,338.38447 C 161.64932,334.27025 165.07294,327.50474 163.96731,326.45865 C 163.62059,326.1306 162.82718,326.70841 162.20419,327.74267 C 161.58119,328.77694 159.15897,332.26571 156.82147,335.49548 C 154.48397,338.72526 152.57147,341.59154 152.57147,341.865 C 152.57147,343.32431 154.74358,341.91408 157.93238,338.38447 z M 211.57147,335.43966 C 211.57147,332.24719 212.02363,327.25091 212.57628,324.33682 C 213.62817,318.79023 213.28985,317.24381 211.43115,319.10251 C 209.87508,320.65858 208.89981,342.89533 210.42909,341.95018 C 211.0733,341.55204 211.57147,338.71293 211.57147,335.43966 z M 143.22024,300.11219 C 145.45609,297.77469 150.3294,291.44449 154.04982,286.04508 C 160.37526,276.86503 162.21677,272.5403 163.06966,264.86219 C 163.25295,263.21219 164.31296,255.56219 165.42524,247.86219 C 166.53751,240.16219 167.94475,228.23719 168.55243,221.36219 C 169.77965,207.47784 169.74016,182.06071 168.48612,178.68656 C 168.04139,177.48996 167.58912,172.76496 167.48108,168.18656 C 167.24388,158.13532 165.96401,148.39615 163.14633,135.20133 L 162.57811,132.54048 L 158.32479,134.59211 C 146.62563,140.23531 134.74663,156.02601 128.31597,174.48273 C 124.19659,186.30578 124.24157,193.78743 128.47154,200.36219 C 132.97759,207.36608 137.46006,222.38802 137.57257,230.86219 C 137.58717,231.96219 137.83907,234.66219 138.13234,236.86219 C 139.46938,246.89201 140.02858,285.08624 138.92296,290.86219 C 136.47048,303.67442 136.41418,304.36219 137.81795,304.36219 C 138.55336,304.36219 140.98439,302.44969 143.22024,300.11219 z M 191.57147,296.36219 C 192.74637,294.71219 193.36852,293.36219 192.95402,293.36219 C 191.90564,293.36219 187.57147,297.52868 187.57147,298.5365 C 187.57147,300.29372 189.53008,299.22906 191.57147,296.36219 z M 136.97951,148.86219 C 137.88045,147.48719 138.30514,146.36219 137.92326,146.36219 C 136.89709,146.36219 133.57147,149.53741 133.57147,150.51718 C 133.57147,152.18844 135.37342,151.31339 136.97951,148.86219 z M 171.65661,126.28346 C 172.86103,115.12478 178.77857,100.80042 186.40404,90.584967 C 190.07073,85.672897 188.46571,85.755247 183.81439,90.717837 C 175.5637,99.520687 169.73448,111.95798 166.96151,126.67538 C 166.40394,129.63469 168.10482,132.68119 169.97156,132.06677 C 170.57651,131.86765 171.33479,129.26516 171.65661,126.28346 z "
       id="path2337"
       inkscape:export-filename="/home/bersace/WWW/morel/www/.test/resources/styles/santiago/css/pélerin/priant.png"
       inkscape:export-xdpi="17.01"
       inkscape:export-ydpi="17.01" />
  </g>
</svg>
