<?xml version="1.0" encoding="UTF-8" standalone="no"?>
<!-- Created with Inkscape (http://www.inkscape.org/) -->
<svg
   xmlns:dc="http://purl.org/dc/elements/1.1/"
   xmlns:cc="http://web.resource.org/cc/"
   xmlns:rdf="http://www.w3.org/1999/02/22-rdf-syntax-ns#"
   xmlns:svg="http://www.w3.org/2000/svg"
   xmlns="http://www.w3.org/2000/svg"
   xmlns:xlink="http://www.w3.org/1999/xlink"
   xmlns:sodipodi="http://sodipodi.sourceforge.net/DTD/sodipodi-0.dtd"
   xmlns:inkscape="http://www.inkscape.org/namespaces/inkscape"
   width="210mm"
   height="297mm"
   id="svg2"
   sodipodi:version="0.32"
   inkscape:version="0.45.1"
   sodipodi:docbase="/home/bersace/WWW/morel/www/.test/resources/styles/santiago/css/xcf"
   sodipodi:docname="routier.svg"
   inkscape:output_extension="org.inkscape.output.svg.inkscape">
  <defs
     id="defs4" />
  <sodipodi:namedview
     id="base"
     pagecolor="#ffffff"
     bordercolor="#666666"
     borderopacity="1.0"
     inkscape:pageopacity="0.0"
     inkscape:pageshadow="2"
     inkscape:zoom="0.35"
     inkscape:cx="443.30218"
     inkscape:cy="746.8976"
     inkscape:document-units="px"
     inkscape:current-layer="layer1"
     inkscape:window-width="872"
     inkscape:window-height="627"
     inkscape:window-x="330"
     inkscape:window-y="48" />
  <metadata
     id="metadata7">
    <rdf:RDF>
      <cc:Work
         rdf:about="">
        <dc:format>image/svg+xml</dc:format>
        <dc:type
           rdf:resource="http://purl.org/dc/dcmitype/StillImage" />
      </cc:Work>
    </rdf:RDF>
  </metadata>
  <g
     inkscape:label="Calque 1"
     inkscape:groupmode="layer"
     id="layer1">
    <image
       y="145.50504"
       x="-566.42859"
       id="image2179"
       height="338"
       width="180"
       sodipodi:absref="/home/bersace/WWW/morel/www/.test/resources/styles/santiago/css/xcf/routeclan2.png"
       xlink:href="routeclan2.png" />
    <path
       style="fill:#000000"
       d="M 85.859065,263.13431 L 84.490304,261.76556 L 84.958767,260.54476 C 85.216418,259.87334 85.480892,258.31506 85.546477,257.08193 L 85.665708,254.83992 L 86.176681,258.17023 L 86.687639,261.50053 L 89.472263,262.06637 L 92.256872,262.63224 L 95.235498,261.71808 L 98.214109,260.80391 L 99.4607,258.90138 L 100.70728,256.99885 L 101.10858,250.46889 C 101.65198,241.62692 102.23272,241.60891 102.23272,250.43402 L 102.23272,257.65193 L 100.07802,260.21264 L 97.923328,262.77335 L 94.826302,263.63353 C 93.122952,264.10662 90.716453,264.4958 89.478558,264.49838 L 87.227818,264.50307 L 85.859065,263.13431 z M 18.353366,257.59286 C 17.809758,257.04926 17.364993,256.12424 17.364993,255.53729 L 17.364993,254.47008 L 19.901579,252.59471 L 22.438167,250.71933 L 24.733159,250.43048 L 27.02815,250.14165 L 23.246915,252.07064 L 19.46568,253.99963 L 19.209271,255.39083 L 18.952861,256.78202 L 25.931466,257.36228 L 32.910072,257.94257 L 38.135278,256.18117 L 43.360491,254.41977 L 46.71853,254.41977 L 50.076569,254.41977 L 50.939162,252.808 L 51.801755,251.19624 L 51.270423,248.53961 L 50.739093,245.88298 L 48.96692,246.44014 C 47.992219,246.7466 45.258342,247.19766 42.891642,247.44251 L 38.588546,247.88771 L 38.01047,246.95237 C 37.692536,246.43792 37.03614,246.01702 36.551814,246.01702 L 35.671231,246.01702 L 36.123123,247.19464 L 36.575021,248.37225 L 34.742542,248.96634 C 33.734684,249.2931 32.363221,249.4858 31.694851,249.39458 L 30.47962,249.22874 L 31.604521,250.58414 L 32.729414,251.93956 L 32.259556,252.40942 L 31.78971,252.87927 L 30.098438,251.188 L 28.407166,249.49672 L 27.920481,244.18571 C 27.36179,238.08896 26.61818,231.42029 26.157054,228.37126 C 25.468819,223.8206 22.490685,191.31981 21.999242,182.99644 C 21.712725,178.14386 21.32704,173.60637 21.142162,172.91315 C 20.957285,172.21991 20.208483,165.98087 19.47815,159.04861 C 18.747816,152.11636 17.799214,144.36482 17.370144,141.82299 C 16.941075,139.28116 16.502854,133.70343 16.396324,129.42802 C 16.289795,125.15262 15.991506,121.36369 15.733465,121.00817 C 15.475434,120.65265 14.247356,119.91535 13.004422,119.36973 L 10.744538,118.3777 L 9.8580814,115.18546 C 9.3705288,113.42974 8.969508,111.37783 8.9669367,110.62565 L 8.9622481,109.25805 L 10.225929,108.20929 L 11.489609,107.16053 L 9.7509044,104.34726 L 8.0122,101.53397 L 8.2771553,98.845706 L 8.5421107,96.157441 L 9.4674631,95.854303 L 10.392823,95.551165 L 11.847717,99.360759 L 13.302619,103.17036 L 14.857043,103.17036 L 16.411476,103.17036 L 16.972258,101.40347 C 17.280697,100.43167 17.533047,98.386212 17.533047,96.857986 L 17.533047,94.079392 L 19.325145,93.610743 L 21.117247,93.14211 L 21.75141,93.77627 L 22.385576,94.410438 L 21.449374,99.725355 L 20.513173,105.04027 L 21.669971,105.76668 L 22.826778,106.49309 L 24.507327,106.02026 C 25.431629,105.76019 30.490947,102.6493 35.750259,99.107165 L 45.312641,92.666925 L 46.245751,91.196442 C 46.758957,90.387678 47.560552,89.725501 48.027074,89.724941 C 48.493593,89.724374 49.973939,88.779071 51.31674,87.624254 C 52.65954,86.469437 54.033397,85.524593 54.369768,85.524593 C 54.706129,85.524593 55.160038,84.841262 55.378441,84.00609 L 55.775538,82.487594 L 60.459439,79.378594 C 63.035586,77.668643 66.275021,75.137922 67.658181,73.754762 C 69.041339,72.371594 70.505114,71.239921 70.911017,71.239921 C 71.316912,71.239921 73.325848,69.480495 75.37532,67.330091 L 79.101626,63.420267 L 78.843192,61.448167 L 78.584765,59.476077 L 79.48517,59.476077 L 80.385585,59.476077 L 80.385585,61.086607 L 80.385585,62.697127 L 81.250981,62.985593 L 82.116384,63.27406 L 80.408363,66.626789 L 78.700346,69.979508 L 79.241414,67.559199 L 79.782488,65.138898 L 78.613554,65.527836 L 77.444622,65.916782 L 77.016477,68.366888 L 76.588323,70.816993 L 75.335928,70.86641 C 73.117208,70.953959 70.811251,72.343269 67.588034,75.534437 L 64.437155,78.653982 L 60.204248,81.097835 L 55.971339,83.541692 L 57.67503,85.08351 C 58.612061,85.931512 59.378719,86.967168 59.378719,87.38496 L 59.378719,88.144592 L 58.538445,87.62528 L 57.69817,87.10596 L 57.69817,88.052445 L 57.69817,88.998944 L 59.378719,88.46555 L 61.059269,87.932164 L 61.059269,88.739164 C 61.059269,89.183014 61.600078,89.753696 62.261064,90.007337 L 63.462858,90.46851 L 66.915588,87.967361 L 70.368318,85.466221 L 71.175577,85.965132 L 71.982838,86.464044 L 71.982838,85.574183 L 71.982838,84.684315 L 70.932494,84.661956 L 69.882151,84.639597 L 72.192906,83.206916 L 74.503661,81.774249 L 74.50435,80.498383 C 74.50472,79.796664 75.229624,77.33191 76.115231,75.021157 L 77.725432,70.819783 L 78.887349,71.02807 L 80.04927,71.236358 L 81.050412,68.467754 C 81.601043,66.945018 82.621086,64.960667 83.317185,64.058087 L 84.582809,62.417039 L 82.369092,67.3655 C 81.151543,70.087158 79.266413,73.868392 78.179913,75.768244 C 77.093412,77.668106 76.199898,79.837947 76.194335,80.590126 L 76.184211,81.957713 L 74.9238,83.003767 L 73.663386,84.049813 L 73.663386,85.297236 L 73.663386,86.544666 L 74.994011,86.034058 L 76.324637,85.52345 L 75.939321,86.574361 L 75.554004,87.62528 L 74.398626,87.355187 L 73.24325,87.085101 L 74.242092,88.101957 L 75.240944,89.118805 L 79.07367,87.857021 L 82.906403,86.595236 L 82.822649,87.950528 C 82.776587,88.695946 82.403575,90.251139 81.993741,91.406515 L 81.248595,93.507203 L 81.654084,90.687668 L 82.059582,87.868134 L 80.733713,88.376916 C 80.00449,88.656739 79.029993,88.885689 78.568145,88.885689 L 77.728434,88.885689 L 77.955601,94.557546 L 78.182761,100.2294 L 78.8936,101.69988 L 79.604441,103.17036 L 77.776893,103.17036 L 75.949346,103.17036 L 74.744055,104.64084 L 73.538758,106.11132 L 74.060072,105.07834 L 74.581378,104.04536 L 73.762581,102.51542 L 72.943776,100.98548 L 72.685593,95.775857 C 72.543585,92.910571 72.232845,90.568118 71.995055,90.570419 C 71.757258,90.572711 70.438741,91.473872 69.065018,92.572997 L 66.567335,94.571411 L 65.49385,94.159471 L 64.420367,93.747539 L 64.420367,92.647045 L 64.420367,91.546559 L 65.47071,91.122736 L 66.521053,90.698914 L 65.557755,90.632576 L 64.594456,90.566237 L 62.006223,93.514081 L 59.417977,96.461924 L 59.914336,93.980157 L 60.410685,91.498391 L 57.583952,89.775045 L 54.75721,88.051699 L 55.975607,88.048559 L 57.194006,88.045419 L 56.225078,87.076483 L 55.256156,86.107554 L 53.326131,87.505582 C 52.26462,88.274502 50.016052,89.825692 48.329319,90.952694 C 46.642577,92.079697 45.130083,93.333026 44.968221,93.737871 C 44.806351,94.142715 41.072432,96.94038 36.67062,99.954896 L 28.667332,105.43584 L 25.504463,106.47968 L 22.341604,107.52352 L 21.049664,106.45132 L 19.757734,105.3791 L 19.054685,106.51667 L 18.351626,107.65423 L 19.637867,109.61728 L 20.924102,111.58032 L 20.87776,114.93781 C 20.852284,116.78443 20.944798,118.29529 21.083352,118.29529 C 21.221913,118.29529 22.762707,117.16093 24.507327,115.77448 C 26.251947,114.38803 28.042882,113.25365 28.487179,113.25365 C 29.689435,113.25365 35.232297,110.61888 36.778722,109.31231 C 37.520028,108.68599 41.017671,106.72954 44.551261,104.96466 L 50.975974,101.75579 L 50.975974,102.35899 C 50.975974,102.69075 48.234579,104.38958 44.883985,106.13417 C 41.53339,107.87876 37.846684,109.93119 36.691307,110.69512 C 35.53593,111.45906 32.889066,112.80306 30.809385,113.68178 C 28.729706,114.5605 25.959296,116.14708 24.652929,117.20752 L 22.2777,119.13557 L 21.021297,119.13557 L 19.764892,119.13557 L 20.271738,123.96715 C 21.056127,131.44441 21.494027,136.57829 22.009796,144.34381 C 22.734196,155.25052 25.814064,186.31777 27.049501,195.18042 C 27.71725,199.97057 29.043027,214.53161 29.459476,221.64906 L 29.877378,228.7914 L 29.118627,224.59002 C 28.701314,222.27926 28.13759,218.11991 27.865913,215.34701 C 27.594234,212.57411 27.22485,209.73818 27.045058,209.04494 C 26.865262,208.35173 26.485803,204.57049 26.201816,200.6422 C 25.91782,196.71392 25.35055,191.60926 24.941212,189.2985 C 24.531862,186.98774 23.946898,181.12682 23.64128,176.27423 C 23.335656,171.42165 22.942366,165.93887 22.767286,164.09027 C 20.65429,141.7796 19.656926,131.00949 19.162551,125.16418 L 18.57088,118.16852 L 19.282937,117.72844 L 19.994993,117.28837 L 19.760716,114.6408 L 19.526449,111.99324 L 18.316227,110.05248 L 17.106012,108.11173 L 16.408097,109.21221 L 15.710182,110.31269 L 15.697309,109.20653 L 15.684444,108.10038 L 13.438492,108.36626 L 11.192538,108.63214 L 10.847647,109.68249 L 10.502748,110.73282 L 12.043257,110.78609 L 13.583757,110.83935 L 11.639153,111.61926 L 9.6945559,112.39916 L 10.226735,113.26025 L 10.758922,114.12134 L 11.483071,113.67379 L 12.20722,113.22624 L 12.735014,114.08022 L 13.262798,114.9342 L 11.742734,114.98746 L 10.22266,115.04072 L 12.303122,115.87089 L 14.383581,116.70104 L 13.283007,117.38123 L 12.182441,118.06143 L 13.582028,118.5985 C 15.62176,119.38122 15.684444,119.33459 15.684444,117.03489 L 15.684444,114.9342 L 16.31465,114.93445 L 16.944856,114.9347 L 17.188771,121.44658 C 17.473909,129.05906 17.668332,131.16678 19.378417,145.18408 C 20.083189,150.96098 20.882667,158.87369 21.155035,162.76789 C 21.42741,166.6621 21.773208,170.06521 21.923492,170.33036 C 22.073766,170.59551 22.462889,175.33986 22.78821,180.87335 C 23.113529,186.40684 23.49867,191.13338 23.644063,191.37678 C 23.789464,191.62018 24.150983,195.22242 24.44744,199.38179 C 24.743899,203.54116 25.15912,207.88957 25.370154,209.04494 C 25.581189,210.20033 25.921274,213.22532 26.125898,215.76714 C 26.330521,218.30898 26.924175,223.98083 27.445137,228.37126 C 28.355449,236.04309 28.987856,243.44098 29.08352,247.53711 L 29.128837,249.4773 L 30.00684,248.93468 L 30.884842,248.39204 L 30.477831,241.9528 L 30.070818,235.51361 L 31.070309,241.18723 L 32.069797,246.86086 L 34.820999,245.17852 C 38.202466,243.1108 38.074022,243.10681 38.646878,245.29743 L 39.117911,247.09864 L 42.839251,246.58857 C 44.885985,246.30804 47.547763,245.62871 48.754313,245.07898 L 50.948043,244.07946 L 51.445714,241.05694 C 52.145073,236.8095 53.387285,233.80974 57.041378,227.54433 C 58.789065,224.54769 60.232472,221.71174 60.24894,221.24227 C 60.265419,220.77278 61.168832,218.49804 62.256534,216.18728 C 63.344237,213.87652 64.181536,211.94219 64.117203,211.88876 C 64.052863,211.83531 60.891004,211.58821 57.090836,211.33958 L 50.181454,210.88755 L 49.651366,213.95756 C 49.359825,215.64605 47.866505,221.87002 46.332887,227.78859 L 43.544485,238.54963 L 42.199214,240.60278 L 40.853935,242.65593 L 39.975815,242.65593 L 39.097694,242.65593 L 40.718827,240.34519 C 42.404628,237.94224 44.035811,233.56717 44.767656,229.48564 C 45.537844,225.19022 48.381157,212.73632 48.900807,211.38212 L 49.409997,210.05522 L 48.510163,209.49908 L 47.61033,208.94297 L 48.337673,207.52348 C 48.737718,206.74276 49.318054,204.44901 49.627325,202.4263 L 50.18963,198.74861 L 51.423077,196.98762 L 52.656523,195.22663 L 52.656523,190.83306 L 52.656523,186.43953 L 53.899382,181.66787 L 55.142241,176.89621 L 57.680618,172.9405 C 59.076725,170.76486 60.218994,168.5496 60.218994,168.01771 C 60.218994,166.49306 67.847569,144.03255 68.729093,142.96178 C 69.164624,142.43273 69.447678,141.67649 69.358098,141.28122 C 69.268507,140.88597 69.432135,139.99538 69.721701,139.30217 C 70.335068,137.83375 73.591955,126.27248 74.132151,123.64598 C 74.334816,122.66056 75.03216,120.82981 75.68181,119.57762 L 76.862976,117.30092 L 76.269742,115.06722 C 75.943463,113.83868 75.743478,112.36086 75.825329,111.78317 C 75.907173,111.20548 76.021407,110.23113 76.079177,109.61794 L 76.184211,108.50307 L 78.705033,108.87304 L 81.225855,109.24302 L 81.225855,106.99737 L 81.225855,104.75173 L 82.066133,105.27104 L 82.906403,105.79036 L 82.906403,104.48036 L 82.906403,103.17036 L 81.645994,103.17036 L 80.385585,103.17036 L 80.385585,101.93631 L 80.385585,100.70228 L 81.856068,101.17531 L 83.326542,101.64834 L 82.424978,100.93886 C 81.92912,100.54866 81.258744,99.514193 80.935268,98.64007 L 80.347116,97.050729 L 81.62676,98.112745 L 82.906403,99.174762 L 83.005911,98.441662 C 83.060638,98.038465 83.051273,97.396875 82.985091,97.015905 L 82.864771,96.323248 L 83.543253,96.742571 L 84.221727,97.161901 L 84.02652,100.65403 L 83.831314,104.14617 L 85.087651,103.1035 L 86.343988,102.06084 L 85.895234,100.89141 L 85.44648,99.721974 L 86.419924,100.3236 L 87.393375,100.92522 L 86.866144,99.551279 L 86.338913,98.177343 L 87.454662,97.061594 C 88.068313,96.447935 89.186619,94.754214 89.939778,93.297767 L 91.309152,90.649696 L 91.309152,86.826728 L 91.309152,83.003767 L 90.565514,83.003767 C 90.156519,83.003767 89.181,83.981874 88.397696,85.177351 L 86.973493,87.350951 L 86.500764,86.878214 L 86.028027,86.405477 L 87.060379,85.161567 L 88.092731,83.917657 L 87.609511,83.135782 L 87.126282,82.353908 L 88.538742,81.208362 L 89.951202,80.062802 L 89.235044,81.323218 L 88.518893,82.583628 L 89.212452,81.954768 C 89.593904,81.608894 89.998857,80.474524 90.112338,79.433942 C 90.225826,78.393362 90.397251,77.163856 90.493285,76.701707 C 90.589318,76.239554 90.623109,75.010654 90.568381,73.970813 L 90.468874,72.080196 L 89.301833,72.080196 L 88.134776,72.080196 L 88.234073,73.130538 C 88.288684,73.708228 87.670183,76.943318 86.859616,80.319636 L 85.385854,86.458394 L 85.899018,87.288717 L 86.412183,88.119031 L 85.573926,89.132561 C 85.112877,89.690008 84.561438,91.091409 84.348504,92.246786 C 84.135563,93.402162 84.122989,92.49208 84.320573,90.224382 L 84.679806,86.10129 L 83.87914,85.602868 L 83.078466,85.104454 L 82.899432,83.003767 C 82.800951,81.84839 82.796335,79.957769 82.889182,78.802391 L 83.057972,76.701707 L 83.947887,79.642663 L 84.837795,82.583628 L 85.992355,78.802391 L 87.146908,75.021157 L 86.896352,73.340608 L 86.645781,71.660058 L 85.142743,74.180882 L 83.639706,76.701707 L 84.207979,75.021157 C 84.520512,74.096854 84.962241,70.980638 85.189583,68.096228 L 85.602922,62.851855 L 84.398312,62.389604 L 83.193703,61.927352 L 86.098818,58.847032 L 89.003933,55.766712 L 88.112821,55.469674 L 87.221701,55.172637 L 84.643917,56.505657 L 82.066133,57.838684 L 82.066133,57.104444 L 82.066133,56.370213 L 85.217164,55.053418 C 86.950225,54.329186 89.053873,53.518187 89.891928,53.25119 L 91.415662,52.765754 L 90.87905,51.897483 L 90.342423,51.029201 L 87.642921,51.211003 L 84.943403,51.392804 L 83.924899,50.763347 L 82.906403,50.13388 L 82.906403,48.642965 C 82.906403,47.822966 82.654931,46.900572 82.347565,46.593216 C 82.040207,46.285851 81.681456,45.028221 81.550349,43.798471 L 81.311964,41.562567 L 80.251976,40.907465 L 79.191999,40.252361 L 80.839126,38.431376 L 82.486272,36.610393 L 82.492808,32.498156 L 82.499336,28.38592 L 81.862603,28.38592 C 81.512393,28.38592 81.225855,28.786363 81.225855,29.275787 L 81.225855,30.165647 L 80.335303,29.615258 L 79.444745,29.064861 L 80.827523,28.053751 L 82.210304,27.042632 L 81.928149,24.606786 L 81.645994,22.17093 L 84.16682,19.254749 C 85.553269,17.650851 88.522025,14.511744 90.76407,12.27895 L 94.840493,8.2193312 L 96.543703,8.2193312 L 98.246921,8.2193312 L 102.97071,10.909327 C 105.5688,12.388816 108.19417,14.090372 108.80487,14.690563 C 109.41556,15.290747 110.22047,15.781803 110.59354,15.781803 C 111.25234,15.781803 112.52185,18.540549 113.54656,22.198912 L 114.0495,23.994503 L 111.08207,24.34094 L 108.11464,24.687369 L 108.11464,23.875772 L 108.11464,23.064184 L 107.62736,23.551458 L 107.14009,24.038734 L 108.56428,26.212332 L 109.98847,28.38592 L 109.36881,28.38592 L 108.74914,28.38592 L 109.79519,29.646332 L 110.84124,30.906744 L 110.17817,30.906744 L 109.5151,30.906744 L 109.95026,31.341914 L 110.38543,31.777076 L 112.82121,30.506814 L 115.25698,29.236547 L 117.1476,29.231372 L 119.03822,29.226195 L 119.03822,28.447529 L 119.03822,27.668872 L 117.56773,27.284598 L 116.09725,26.900315 L 117.93828,26.802843 L 119.77931,26.705372 L 120.29863,25.865097 L 120.81794,25.024823 L 123.91938,24.919645 L 127.02082,24.814476 L 123.23958,24.185775 C 121.1599,23.839994 119.16859,23.724388 118.81444,23.928877 L 118.17054,24.300673 L 118.65396,25.082885 L 119.13739,25.865097 L 117.19719,25.997465 C 116.13007,26.070274 114.75832,26.107951 114.14886,26.081207 L 113.04075,26.032571 L 113.48196,27.182337 L 113.92316,28.3321 L 113.1196,28.828736 L 112.31602,29.325372 L 112.31602,28.015377 L 112.31602,26.705372 L 111.68581,26.91544 C 111.3392,27.030978 110.86654,26.759343 110.63547,26.311812 L 110.21533,25.498115 L 113.99656,24.73381 L 117.7778,23.969505 L 116.09725,23.34624 L 114.4167,22.722974 L 118.79162,22.403418 C 125.72161,21.897236 128.41958,23.017054 126.72264,25.695261 L 126.03163,26.785836 L 120.34473,29.089448 L 114.65784,31.393069 L 113.55484,34.601506 L 112.45182,37.809943 L 110.03486,40.870467 L 107.61788,43.931 L 107.92788,45.40148 L 108.23787,46.871959 L 109.80721,46.871959 L 111.37657,46.871959 L 111.92267,47.755583 L 112.46878,48.639217 L 118.06425,48.105374 L 123.65972,47.571522 L 125.53399,48.284587 L 127.40827,48.997644 L 123.64339,50.351495 C 119.2861,51.918363 118.59166,51.551509 122.60938,49.805249 L 125.34027,48.618285 L 121.36833,48.585397 L 117.3964,48.55251 L 116.04706,50.61188 L 114.6977,52.671248 L 114.98478,54.161939 L 115.27186,55.652635 L 117.22577,56.626765 C 118.30042,57.162534 119.62052,58.078282 120.15929,58.661759 L 121.13889,59.722623 L 120.08856,59.129624 L 119.03822,58.536626 L 119.03822,59.3769 C 119.03822,59.839051 119.4329,60.461098 119.91529,60.759235 L 120.79237,61.301306 L 121.86073,60.41464 L 122.9291,59.527982 L 123.14995,71.891656 L 123.37078,84.255332 L 122.7772,83.661739 L 122.18361,83.068154 L 122.08139,72.8142 L 121.97917,62.560247 L 120.92826,62.208357 L 119.87734,61.856476 L 120.38796,63.187099 L 120.89856,64.517726 L 119.96838,64.517726 L 119.03822,64.517726 L 119.03822,63.215585 C 119.03822,62.49941 118.46132,60.797855 117.75623,59.43435 L 116.47424,56.955254 L 110.82395,56.81829 L 105.17368,56.681333 L 109.79519,56.155658 L 114.4167,55.629973 L 108.66239,55.24227 L 102.90808,54.854568 L 102.56516,55.413006 L 102.22225,55.971444 L 103.27782,56.397009 L 104.33341,56.822584 L 102.09037,56.888915 L 99.847321,56.955254 L 95.158109,61.24094 L 90.468874,65.526634 L 90.468874,66.632705 L 90.468874,67.738774 L 91.460325,68.069264 L 92.451775,68.399744 L 91.751324,70.029901 C 91.366071,70.926489 91.157358,72.416304 91.287508,73.340608 C 91.417651,74.264911 91.570293,76.155528 91.626706,77.54198 L 91.729291,80.062802 L 94.250117,79.892581 L 96.770936,79.72236 L 94.670249,80.368551 L 92.569561,81.014749 L 92.819557,82.639466 C 92.957044,83.533057 93.213732,84.697651 93.389975,85.227447 L 93.710405,86.190718 L 98.181632,86.814068 L 102.65286,87.43741 L 101.39245,87.951484 L 100.13203,88.46555 L 99.837785,92.158594 L 99.543538,95.851622 L 102.14855,95.330631 L 104.75355,94.809625 L 104.75355,95.628889 L 104.75355,96.44816 L 102.65286,96.44816 L 100.55217,96.44816 L 100.55217,98.090317 L 100.55217,99.732473 L 106.22403,100.02643 L 111.89588,100.32038 L 105.41012,100.48496 L 98.924369,100.64953 L 99.307647,99.599191 C 99.518451,99.021499 99.41205,96.097173 99.071205,93.100672 L 98.451484,87.652496 L 95.258712,87.134171 L 92.06594,86.615846 L 92.52782,87.819492 C 92.78185,88.48149 92.9897,91.63908 92.9897,94.836336 L 92.9897,100.64953 L 95.720592,100.74701 L 98.451484,100.84448 L 96.914547,101.24156 L 95.377602,101.63863 L 93.296071,101.11619 L 91.214541,100.59377 L 91.795334,96.720771 L 92.376127,92.847777 L 91.519459,93.377223 L 90.662798,93.906677 L 90.072936,97.840158 L 89.483066,101.77365 L 88.805882,100.67793 L 88.12869,99.582218 L 87.060837,101.58636 C 86.473532,102.68864 85.46088,103.98307 84.810516,104.46287 L 83.628033,105.33525 L 83.82076,106.14342 C 83.926756,106.58792 83.723934,107.61331 83.370048,108.42207 L 82.7266,109.89255 L 81.556093,109.89255 L 80.385585,109.89255 L 80.385585,110.73282 L 80.385585,111.5731 L 81.275453,111.5731 L 82.165306,111.5731 L 81.738585,112.26355 L 81.311871,112.95401 L 82.449971,115.14771 L 83.588079,117.34142 L 82.406971,116.88818 L 81.225855,116.43495 L 81.225855,117.36511 L 81.225855,118.29529 L 79.564674,118.29529 L 77.903506,118.29529 L 76.705954,120.18592 L 75.508412,122.07653 L 73.779757,129.03381 C 72.828993,132.86033 71.883282,136.26343 71.678171,136.59628 L 71.305249,137.20147 L 74.788321,137.4468 L 78.271385,137.69213 L 79.118415,138.62082 L 79.965446,139.5495 L 78.382168,138.98879 L 76.798888,138.42806 L 73.903638,138.97121 L 71.008388,139.51436 L 70.556497,140.87875 C 70.307952,141.62914 69.148003,144.70091 67.978828,147.70492 C 66.809653,150.70889 65.563913,154.30106 65.210504,155.68751 C 64.857099,157.07397 64.075712,159.43197 63.474092,160.92749 L 62.38024,163.64665 L 63.228672,164.49509 C 64.103214,165.36963 66.428733,165.82454 74.644609,166.72826 L 79.407068,167.25209 L 79.861587,168.9902 L 80.316107,170.72829 L 76.714432,176.23217 C 72.444266,182.75758 69.119687,189.04862 67.855888,192.99506 L 66.941191,195.85133 L 66.941191,202.81869 L 66.941191,209.78605 L 66.100917,210.30535 C 65.638765,210.59098 65.260642,211.4361 65.260642,212.1834 L 65.260642,213.5421 L 58.821239,226.20842 L 52.381829,238.8747 L 52.242914,247.75509 L 52.103992,256.6355 L 51.580645,257.48229 L 51.057304,258.32907 L 35.199518,258.45515 L 19.341739,258.58124 L 18.353366,257.59286 z M 50.178857,256.46845 L 51.268071,255.15604 L 47.196402,255.4181 L 43.124735,255.68018 L 42.778962,256.73053 L 42.43318,257.78087 L 45.761415,257.78087 L 49.08965,257.78087 L 50.178857,256.46845 z M 64.216467,209.6835 L 65.072471,208.62481 L 65.665545,204.21337 L 66.258619,199.80192 L 62.608601,199.75369 C 60.601092,199.72717 57.379808,199.54138 55.450185,199.34081 L 51.941786,198.97616 L 51.086462,201.6998 C 50.616026,203.19781 50.11513,205.55224 49.973351,206.9319 L 49.715563,209.44035 L 52.236386,209.8964 C 53.622839,210.14722 56.692942,210.44014 59.058836,210.54731 L 63.36046,210.74219 L 64.216467,209.6835 z M 66.868297,192.69404 L 68.618017,187.27808 L 71.236186,182.83765 C 72.67619,180.39541 74.567641,177.49042 75.439424,176.38213 L 77.024484,174.36705 L 77.024484,172.37969 L 77.024484,170.39232 L 76.134616,170.39232 L 75.244759,170.39232 L 75.758124,171.22298 L 76.271497,172.05362 L 74.972266,171.55506 L 73.673041,171.05651 L 74.131992,170.31389 L 74.590949,169.57129 L 73.43431,170.01513 L 72.277673,170.45898 L 68.155815,168.69213 C 65.888788,167.72038 63.793967,166.53699 63.500644,166.0624 L 62.967348,165.19949 L 59.644331,171.36707 L 56.321313,177.53466 L 54.96791,182.99644 L 53.614504,188.45823 L 53.383899,193.07791 L 53.153302,197.6976 L 57.736497,197.95159 C 60.257244,198.09132 62.697805,198.3247 63.159955,198.47024 C 64.62899,198.93288 65.079377,198.23135 66.868297,192.69404 z M 57.052898,189.71864 C 57.630134,188.79434 58.402893,188.03809 58.770134,188.03809 L 59.437849,188.03809 L 58.538445,189.71864 C 58.043776,190.64292 57.271017,191.39918 56.82121,191.39918 L 56.003378,191.39918 L 57.052898,189.71864 z M 58.597508,184.09637 C 58.629985,183.72249 58.98153,182.66033 59.378719,181.73602 L 60.100878,180.05548 L 60.15994,181.8965 L 60.218994,183.73754 L 59.378719,184.25685 L 58.538445,184.77616 L 58.597508,184.09637 z M 78.705033,168.24203 C 78.705033,168.03823 77.665194,167.89807 76.394279,167.93056 L 74.083523,167.98961 L 75.764073,168.66568 C 77.33132,169.29617 78.705033,169.09831 78.705033,168.24203 z M 80.074924,115.5644 C 79.796259,114.52457 79.563096,112.82301 79.556778,111.78317 L 79.545307,109.89255 L 78.705033,109.89255 L 77.86476,109.89255 L 77.87623,111.78317 C 77.882548,112.82301 78.115708,114.52457 78.394376,115.5644 L 78.901037,117.45503 L 79.741314,117.45503 L 80.581584,117.45503 L 80.074924,115.5644 z M 83.746681,106.902 C 83.746681,106.6982 83.368556,106.53146 82.906403,106.53146 L 82.066133,106.53146 L 82.066133,107.42133 L 82.066133,108.31118 L 82.906403,107.79187 C 83.368556,107.50624 83.746681,107.1058 83.746681,106.902 z M 14.142935,106.63516 L 13.021555,105.92434 L 14.839514,105.44893 L 16.657465,104.97353 L 16.197322,106.17263 L 15.737189,107.37173 L 16.593966,107.37173 L 17.450744,107.37173 L 18.646008,104.51107 C 19.303397,102.93771 20.18972,100.09956 20.615604,98.204085 L 21.389942,94.757758 L 20.631948,94.289287 L 19.873944,93.820824 L 19.550009,94.924427 C 19.371846,95.531402 18.901864,97.918643 18.505608,100.2294 L 17.785131,104.43077 L 15.054237,104.15737 L 12.323346,103.88398 L 12.323346,105.62785 L 12.323346,107.37173 L 13.793827,107.35887 L 15.264307,107.34599 L 14.142935,106.63516 z M 10.330828,99.69039 L 9.0993388,96.868299 L 9.0307891,98.284078 C 8.9930946,99.062758 9.3854438,100.76431 9.9026832,102.06531 L 10.84311,104.43077 L 11.202715,103.47163 L 11.562317,102.51248 L 10.330828,99.69039 z M 76.787201,96.072956 L 76.618566,89.815814 L 75.140976,89.42942 L 73.663386,89.043025 L 73.588721,90.854975 C 73.440697,94.447081 73.817426,101.05925 74.205927,101.68786 C 74.424229,102.04108 75.132271,102.33008 75.77934,102.33008 L 76.955843,102.33008 L 76.787201,96.072956 z M 88.508239,97.568526 L 87.948056,97.008343 L 87.948056,98.128708 L 87.948056,99.249074 L 88.508239,98.688899 L 89.068413,98.128708 L 88.508239,97.568526 z M 68.437738,91.710555 C 69.194816,90.953479 69.920175,89.63992 70.049643,88.791537 L 70.285047,87.249027 L 68.298016,88.154377 L 66.310984,89.059726 L 66.310984,91.073395 C 66.310984,93.454131 66.605828,93.542462 68.437738,91.710555 z M 72.303452,88.421905 L 72.803862,87.117851 L 71.973217,87.631225 C 71.516358,87.913574 71.142564,88.500406 71.142564,88.93528 C 71.142564,90.143961 71.744847,89.877614 72.303452,88.421905 z M 89.328505,69.979508 L 90.588922,68.719098 L 89.328505,67.458686 C 88.63528,66.765459 87.662956,66.198274 87.167798,66.198274 L 86.267508,66.198274 L 86.267508,67.038549 L 86.267508,67.878824 L 87.527917,67.878824 L 88.788326,67.878824 L 88.788326,68.551043 C 88.788326,68.920763 88.334583,69.677009 87.779996,70.231592 L 86.771673,71.239921 L 87.419884,71.239921 C 87.776397,71.239921 88.63528,70.672736 89.328505,69.979508 z M 89.726075,63.047244 L 89.823546,60.736489 L 90.207361,62.204524 L 90.59116,63.67256 L 96.113445,58.843426 C 99.150708,56.187402 102.98166,52.830304 104.62667,51.38321 L 107.6176,48.752124 L 106.68436,45.711356 L 105.75112,42.670587 L 106.82122,42.670587 L 107.89133,42.670587 L 110.21854,39.153928 L 112.54575,35.63727 L 110.12735,33.708899 L 107.70895,31.780537 L 107.97534,29.240967 L 108.24171,26.701389 L 106.83296,26.160798 L 105.42421,25.620216 L 104.77827,26.665366 L 104.13233,27.710515 L 102.34225,25.789085 L 100.55217,23.867663 L 100.55217,24.816786 C 100.55217,25.338807 100.93646,26.003423 101.40615,26.293703 L 102.26013,26.821498 L 101.7767,27.603708 L 101.29327,28.38592 L 103.0234,28.490955 C 106.35927,28.693471 106.71695,28.814325 107.0643,29.8564 L 107.41442,30.906744 L 106.08398,30.906744 L 104.75355,30.906744 L 104.75355,30.06647 L 104.75355,29.226195 L 103.49313,29.226195 L 102.23272,29.226195 L 102.23272,30.196703 L 102.23272,31.167212 L 100.55217,29.646332 L 98.871623,28.125451 L 98.871623,29.198852 L 98.871623,30.272244 L 97.611214,29.226195 L 96.350797,28.180144 L 96.350797,29.073718 C 96.350797,29.565178 96.728923,30.20098 97.191075,30.486607 C 97.653227,30.772232 98.031353,31.343677 98.031353,31.756487 L 98.031353,32.507047 L 96.067414,30.656552 L 94.103483,28.806057 L 93.635798,26.955731 L 93.168105,25.105396 L 94.129246,24.711307 L 95.090388,24.317228 L 93.409839,24.191824 L 91.729291,24.06643 L 93.409839,23.344273 C 94.334136,22.947085 95.846632,22.601328 96.770936,22.575925 L 98.451484,22.529737 L 97.191075,23.436409 L 95.930666,24.343075 L 97.611214,23.686357 C 98.53551,23.325165 101.5605,22.953395 104.33341,22.8602 C 107.10631,22.767012 110.03677,22.648744 110.84553,22.597379 L 112.31602,22.503998 L 112.31602,20.726709 L 112.31602,18.949419 L 109.21085,16.105199 C 107.503,14.540877 105.78139,13.260978 105.38503,13.260978 C 104.98868,13.260978 103.27324,12.315671 101.57294,11.160293 L 98.481506,9.0596059 L 97.124154,9.0596059 L 95.766802,9.0596059 L 91.885609,12.630773 C 89.750952,14.594915 86.85737,17.671899 85.455409,19.468516 L 82.906403,22.735083 L 82.906403,24.211596 L 82.906403,25.688119 L 86.057434,24.956382 C 87.790503,24.553924 89.77565,24.221411 90.468874,24.21746 L 91.729291,24.210286 L 90.468874,25.024823 L 89.208465,25.839359 L 91.099087,25.852231 L 92.9897,25.865097 L 92.9897,27.125509 L 92.9897,28.38592 L 92.149422,28.38592 C 91.687278,28.38592 91.309152,28.007796 91.309152,27.545645 L 91.309152,26.705372 L 89.558582,28.455941 L 87.808004,30.206518 L 87.30917,29.707672 L 86.810321,29.208835 L 88.337349,28.092235 L 89.864386,26.975645 L 88.508308,26.455272 L 87.152223,25.934899 L 86.305099,27.370474 L 85.457974,28.806057 L 84.615193,27.545645 L 83.772421,26.285234 L 83.759543,28.175852 L 83.746681,30.06647 L 84.797025,30.132809 L 85.847369,30.199148 L 84.797025,30.622966 L 83.746681,31.046792 L 83.746681,33.641492 L 83.746681,36.236202 L 82.46239,37.655333 L 81.178099,39.074455 L 82.021454,41.292664 L 82.86481,43.510862 L 84.195614,43.510862 L 85.52641,43.510862 L 84.99862,44.36484 L 84.470829,45.21882 L 83.598765,44.679861 L 82.726694,44.140891 L 83.342257,46.97691 C 83.68081,48.536712 84.314978,50.040702 84.751507,50.319102 L 85.545194,50.825284 L 90.279403,49.724784 L 95.01362,48.624277 L 97.152691,47.033612 L 99.291762,45.442946 L 99.561902,43.624164 L 99.832049,41.805389 L 100.64905,42.310328 L 101.46606,42.815265 L 102.68966,41.799761 C 103.36264,41.241238 103.91327,40.406139 103.91327,39.943989 L 103.91327,39.103714 L 102.7003,40.110397 L 101.48732,41.117072 L 101.58854,39.162936 C 101.64422,38.088167 102.0473,36.736149 102.48426,36.158459 L 103.27877,35.108117 L 102.3852,35.108117 C 101.89374,35.108117 101.25794,35.486241 100.97231,35.948391 L 100.45299,36.788666 L 98.611959,36.691194 L 96.770936,36.593721 L 98.451484,36.18949 C 99.375788,35.967172 100.49125,35.443848 100.9303,35.02656 L 101.72855,34.267842 L 104.08133,34.267842 L 106.43409,34.267842 L 106.43409,35.121352 C 106.43409,35.590779 105.96996,37.461995 105.40269,39.279601 L 104.37129,42.584342 L 102.46173,43.063608 L 100.55217,43.542876 L 100.55217,44.252564 C 100.55217,44.642889 99.579287,45.935128 98.390205,47.12421 L 96.228247,49.286169 L 93.768692,49.826382 C 92.415941,50.123494 91.309152,50.433572 91.309152,50.515441 C 91.309152,50.597309 91.659417,51.8856 92.087522,53.378307 L 92.865884,56.092318 L 92.087522,56.573375 L 91.309152,57.054431 L 91.309152,58.734981 L 91.309152,60.41553 L 90.505572,59.918894 L 89.701999,59.422259 L 90.219337,58.074106 L 90.736675,56.725942 L 89.552435,57.120688 C 88.901099,57.337799 88.476227,57.781026 88.608266,58.105631 C 88.740313,58.430239 88.267662,59.276512 87.557923,59.986242 L 86.267508,61.276668 L 86.267508,63.317334 L 86.267508,65.357999 L 87.948056,65.357999 L 89.628604,65.357999 L 89.726075,63.047244 z M 86.648594,35.905242 L 85.052733,34.141826 L 87.550726,34.733464 C 88.924639,35.05886 90.426861,35.70987 90.889013,36.180146 L 91.729291,37.035211 L 90.585005,36.384149 L 89.440711,35.733088 L 88.842587,36.700874 L 88.244464,37.668661 L 86.648594,35.905242 z M 85.42723,32.845249 L 85.42723,31.92682 L 86.828149,31.389238 L 88.229068,30.851656 L 89.138909,31.843145 L 90.048743,32.834636 L 88.680659,32.356486 L 87.312559,31.878344 L 86.36989,32.821015 L 85.42723,33.763677 L 85.42723,32.845249 z M 87.107778,20.897149 L 87.107778,20.096418 L 88.998399,19.523083 C 90.038236,19.207752 91.739791,18.171047 92.779635,17.219302 L 94.670249,15.488857 L 94.670249,13.485055 L 94.670249,11.481252 L 95.435679,11.95431 C 96.37328,12.53377 96.178688,13.923325 94.811816,16.409259 L 93.77379,18.297138 L 90.44078,19.99751 L 87.107778,21.697881 L 87.107778,20.897149 z M 99.405079,16.56109 L 97.191075,14.819553 L 97.305503,12.989923 L 97.419932,11.160293 L 97.776088,12.989889 L 98.132243,14.819486 L 99.414926,15.884021 L 100.69762,16.948558 L 104.19605,17.520415 L 107.6945,18.09228 L 104.6568,18.197448 L 101.61908,18.302626 L 99.405079,16.56109 z M 91.309152,55.274705 C 91.309152,54.812554 90.931026,54.43443 90.468874,54.43443 C 90.00673,54.43443 89.628604,54.812554 89.628604,55.274705 C 89.628604,55.736856 90.00673,56.114979 90.468874,56.114979 C 90.931026,56.114979 91.309152,55.736856 91.309152,55.274705 z M 112.47549,51.49347 L 112.13216,48.55251 L 110.70837,48.55251 L 109.28458,48.55251 L 106.43409,51.49347 L 103.58361,54.43443 L 108.20122,54.43443 L 112.81884,54.43443 L 112.47549,51.49347 z M 114.82398,50.022989 C 114.83105,49.676376 114.45872,49.392783 113.99656,49.392783 L 113.15629,49.392783 L 113.16916,51.283402 L 113.18203,53.174019 L 113.99656,51.913607 C 114.44456,51.220381 114.8169,50.369603 114.82398,50.022989 z M 105.28567,35.360156 L 104.71353,34.788015 L 103.26306,36.238866 L 101.81258,37.689718 L 103.073,38.478323 L 104.33341,39.266938 L 105.09561,37.599614 L 105.85782,35.932292 L 105.28567,35.360156 z M 121.55904,27.496054 L 121.55904,26.606194 L 120.71877,27.125509 C 120.25661,27.411135 119.87849,27.811576 119.87849,28.015377 C 119.87849,28.219176 120.25661,28.38592 120.71877,28.38592 L 121.55904,28.38592 L 121.55904,27.496054 z M 96.350797,26.705372 L 96.350797,25.865097 L 95.460928,25.865097 L 94.571076,25.865097 L 95.090388,26.705372 C 95.376016,27.167521 95.776454,27.545645 95.980256,27.545645 C 96.184058,27.545645 96.350797,27.167521 96.350797,26.705372 z M 99.291762,26.705372 L 99.811074,25.865097 L 98.501074,25.865097 L 97.191075,25.865097 L 97.191075,26.705372 C 97.191075,27.167521 97.546881,27.545645 97.981755,27.545645 C 98.416628,27.545645 99.006133,27.167521 99.291762,26.705372 z M 97.471162,254.69986 L 98.031353,254.13968 L 98.591535,254.69986 L 99.15171,255.26004 L 98.031353,255.26004 L 96.910987,255.26004 L 97.471162,254.69986 z M 94.299576,253.13263 L 92.668501,251.89895 L 93.566491,251.89895 C 94.060382,251.89895 94.935197,252.46613 95.510527,253.15936 C 96.819003,254.73599 96.407382,254.72691 94.299576,253.13263 z M 87.107778,252.50605 C 87.107778,251.3108 89.47545,247.59914 90.815976,246.69292 L 91.680618,246.10841 L 91.147053,245.57484 L 90.613488,245.04127 L 92.314405,239.01702 C 95.243573,228.64259 96.312864,223.52941 96.467611,219.15694 L 96.617338,214.92687 L 97.351309,214.92687 L 98.08528,214.92687 L 97.627177,219.75845 C 96.918456,227.23312 96.367203,230.09583 94.674181,235.09345 C 93.813106,237.63529 92.897638,240.96682 92.639816,242.49685 L 92.171043,245.27872 L 93.676777,245.02363 L 95.182504,244.76854 L 97.447195,246.25244 L 99.711901,247.73631 L 99.686348,248.76729 L 99.660795,249.79826 L 98.804313,248.32778 C 98.333255,247.51902 97.588505,246.85731 97.149318,246.85731 L 96.350797,246.85731 L 96.350797,248.11771 L 96.350797,249.37812 L 95.040797,249.37812 L 93.730798,249.37812 L 94.3238,248.32778 L 94.916794,247.27744 L 93.750203,248.36278 L 92.583612,249.4481 L 93.563009,250.0534 L 94.542406,250.6587 L 92.50564,251.61992 C 90.178676,252.71807 90.191794,252.73712 91.288355,249.85296 L 92.107837,247.69758 L 91.309937,247.69758 L 90.512038,247.69758 L 89.24252,250.15254 L 87.973018,252.6075 L 89.010873,253.02716 L 90.048743,253.44681 L 88.57826,253.51316 L 87.107778,253.5795 L 87.107778,252.50605 z M 45.094052,241.84201 L 45.094052,241.02811 L 46.36517,241.51589 L 47.636278,242.00367 L 49.096062,240.85931 L 50.555836,239.71498 L 49.402612,241.18544 L 48.249376,242.65593 L 46.671719,242.65593 L 45.094052,242.65593 L 45.094052,241.84201 z M 102.68025,239.92503 C 102.98868,238.8852 104.18898,235.38756 105.3476,232.1525 C 106.50622,228.91745 107.41909,225.70338 107.37621,225.01016 C 107.33333,224.31692 107.05975,221.19741 106.76828,218.0779 L 106.23832,212.40605 L 108.22682,212.41891 L 110.21533,212.43178 L 109.11048,213.13239 L 108.00562,213.83302 L 108.27021,217.53097 L 108.53478,221.22892 L 109.72517,221.22892 L 110.91556,221.22892 L 111.23316,222.18174 L 111.55077,223.13455 L 110.37096,224.31436 C 109.03008,225.65524 105.75435,232.7547 105.246,235.42158 C 104.74999,238.02377 103.19093,241.81565 102.61703,241.81565 L 102.11946,241.81565 L 102.68025,239.92503 z M 29.548974,234.25318 L 29.029659,233.41291 L 29.919519,233.41291 L 30.809385,233.41291 L 30.809385,234.25318 C 30.809385,234.71533 30.642642,235.09345 30.43884,235.09345 C 30.235041,235.09345 29.834601,234.71533 29.548974,234.25318 z M 29.128837,230.05181 L 29.128837,228.93145 L 29.689023,229.49162 L 30.2492,230.05181 L 29.689023,230.61201 L 29.128837,231.17218 L 29.128837,230.05181 z M 112.39977,220.17858 L 112.48353,217.86783 L 113.21512,219.96851 L 113.94671,222.06921 L 113.72022,218.91818 L 113.49374,215.76714 L 114.06991,215.76714 C 114.75977,215.76714 115.48257,220.132 115.02169,221.51464 L 114.69679,222.48935 L 113.50641,222.48935 L 112.31602,222.48935 L 112.39977,220.17858 z M 111.31843,215.16783 L 110.80896,213.30811 L 111.92618,212.3809 L 113.0434,211.45368 L 112.97899,210.03925 C 112.94356,209.2613 113.18239,207.30138 113.50971,205.68386 L 114.10485,202.74288 L 106.6983,203.03952 C 102.6247,203.20266 99.185369,203.43512 99.055343,203.55603 C 98.572324,204.00525 97.873038,207.84727 97.941607,209.67515 L 98.01253,211.56578 L 97.238474,211.56578 L 96.464433,211.56578 L 96.793605,208.25687 C 96.97466,206.43698 97.752843,203.0217 98.522897,200.66738 L 99.923016,196.38679 L 99.357758,193.26278 C 98.325631,187.55853 98.113009,185.98365 97.574633,180.05548 L 97.040462,174.17356 L 97.539187,174.667 C 97.813492,174.93839 98.411958,178.11056 98.869121,181.71626 L 99.700314,188.27207 L 100.64927,189.41548 L 101.59822,190.55891 L 100.65505,190.55891 C 99.244045,190.55891 99.51141,191.70737 101.39245,193.72643 C 103.39539,195.87632 103.52777,196.56259 101.81258,195.90443 L 100.55217,195.42074 L 100.55217,198.03148 C 100.55217,199.46738 100.6467,200.92317 100.76224,201.2666 L 100.97231,201.89101 L 106.5918,201.87914 C 109.68253,201.87261 112.41738,201.6612 112.66924,201.40934 C 112.9211,201.15747 113.32299,196.81701 113.56231,191.76386 C 113.80163,186.7107 114.4288,179.82531 114.956,176.463 C 115.48321,173.10067 115.7666,170.21879 115.58577,170.05881 C 115.40493,169.89883 113.28457,169.58704 110.87386,169.36592 L 106.49075,168.9639 L 106.93214,169.67812 L 107.37354,170.39232 L 106.55371,170.39232 C 106.10279,170.39232 105.54208,169.91966 105.30767,169.34198 L 104.88149,168.29164 L 104.06134,169.46557 L 103.24118,170.63951 L 100.12546,170.13388 L 97.009733,169.62827 L 97.404016,171.69085 L 97.798307,173.75342 L 97.074556,173.75342 L 96.350797,173.75342 L 96.350797,171.65274 L 96.350797,169.55204 L 93.769951,169.55204 L 91.189112,169.55204 L 90.036293,168.39921 L 88.883473,167.2464 L 89.21612,164.61798 L 89.548759,161.98957 L 88.748411,161.98957 L 87.948056,161.98957 L 87.948056,163.20234 L 87.948056,164.4151 L 86.108128,165.70385 L 84.268216,166.99258 L 84.82742,167.55176 L 85.386623,168.11098 L 86.667332,167.04807 C 87.371739,166.46348 87.948056,166.18962 87.948056,166.43947 C 87.948056,166.68933 88.174232,167.48318 88.450667,168.20357 L 88.953285,169.51335 L 84.906822,169.19453 L 80.860366,168.8757 L 80.581778,168.03995 L 80.303199,167.20421 L 81.678441,167.32779 L 83.053667,167.45135 L 84.320317,164.09027 C 85.016976,162.24165 85.973035,159.69412 86.444894,158.42909 L 87.302813,156.12901 L 87.835508,156.45737 L 88.368187,156.78575 L 88.368187,147.24731 L 88.368187,137.7089 L 89.116854,138.45593 L 89.86552,139.20296 L 89.73509,144.08415 C 89.663358,146.76878 89.503132,149.91062 89.379043,151.066 C 89.254939,152.22138 89.371924,154.30106 89.638995,155.68751 L 90.124578,158.20834 L 88.406112,159.06808 L 86.687639,159.92783 L 86.554349,162.42918 L 86.421058,164.93054 L 86.849132,162.82984 L 87.277206,160.72916 L 88.242839,160.11183 C 88.773933,159.77229 89.472294,159.48868 89.79476,159.48161 L 90.381055,159.46875 L 90.63503,163.88018 L 90.889013,168.29164 L 93.409839,168.15448 C 94.796288,168.07907 99.050183,167.78472 102.86292,167.5004 L 109.79519,166.98347 L 109.79519,167.70758 L 109.79519,168.43168 L 111.0556,168.43168 C 112.58378,168.43168 112.72063,167.33453 111.26567,166.74744 L 110.21533,166.32362 L 112.31602,166.15004 C 116.63079,165.79351 118.08423,165.5741 119.35097,165.088 L 120.65189,164.58881 L 120.29567,161.80648 C 119.8244,158.12561 119.07589,142.72614 119.05489,136.2797 L 119.03822,131.15656 L 117.24873,129.13736 C 116.26452,128.02682 114.77517,125.61655 113.93905,123.78122 L 112.41885,120.44428 L 113.18771,119.51784 L 113.95657,118.59141 L 112.96825,117.6031 C 112.42466,117.0595 111.44789,116.61475 110.79765,116.61475 L 109.61539,116.61475 L 110.13496,115.26078 L 110.65452,113.90681 L 109.49201,114.3529 C 108.85263,114.59826 106.48508,115.04544 104.23077,115.34664 L 100.13203,115.89429 L 101.03365,115.20418 L 101.93526,114.51406 L 101.57559,110.9429 L 101.21593,107.37173 L 100.25384,107.38459 C 99.724693,107.39167 98.778442,107.72271 98.151051,108.12024 L 97.010347,108.84302 L 97.829105,112.68192 L 98.647856,116.52081 L 97.606761,116.92032 C 97.034151,117.14005 94.815764,117.58224 92.676996,117.90297 L 88.788326,118.48611 L 88.788326,117.55043 L 88.788326,116.61475 L 87.527917,116.61475 L 86.267508,116.61475 L 86.267508,117.45503 C 86.267508,119.19949 84.91872,118.19815 84.003889,115.77448 L 83.052385,113.25365 L 84.329705,113.25365 L 85.607033,113.25365 L 85.078418,111.8761 L 84.549796,110.49855 L 85.613771,108.09486 C 86.198955,106.77284 86.976873,105.69118 87.342472,105.69118 L 88.007182,105.69118 L 87.107778,107.37173 L 86.208374,109.05228 L 88.758771,109.05228 L 91.309152,109.05228 L 91.309152,110.19617 L 91.309152,111.34006 L 89.208465,110.93848 L 87.107778,110.53692 L 87.107778,113.24559 L 87.107778,115.95427 L 88.368187,115.47061 L 89.628604,114.98695 L 89.628604,116.2776 L 89.628604,117.56828 L 91.099087,117.13142 C 91.907851,116.89113 93.601789,116.44846 94.863403,116.14767 L 97.157245,115.60078 L 96.313548,114.02432 L 95.469858,112.44786 L 96.001418,110.32993 L 96.532986,108.21201 L 94.551274,108.18405 L 92.569561,108.15609 L 94.553271,106.5035 C 95.644314,105.59457 96.967743,104.88076 97.494228,104.91725 L 98.451484,104.98358 L 97.40114,105.4074 C 96.823456,105.6405 96.350797,106.19498 96.350797,106.63956 L 96.350797,107.44788 L 99.501828,106.8967 L 102.65286,106.34551 L 105.43178,104.75793 C 108.65291,102.91773 109.28907,102.79017 108.44653,104.15343 L 107.83896,105.1365 L 109.06551,104.66583 L 110.29207,104.19516 L 110.36376,106.83379 L 110.43545,109.47241 L 110.05688,107.5818 L 109.67831,105.69118 L 108.80658,105.69118 L 107.93484,105.69118 L 108.44488,107.02032 C 108.7254,107.75134 108.95492,109.45289 108.95492,110.80156 L 108.95492,113.25365 L 109.85181,113.25365 L 110.74872,113.25365 L 110.18504,111.36304 L 109.62138,109.47241 L 110.85244,111.08662 L 112.08351,112.70082 L 111.74356,114.02757 L 111.4036,115.35434 L 113.20205,116.4629 C 115.64926,117.97137 116.05448,117.26105 114.48174,114.2197 L 113.16245,111.66847 L 114.12947,111.07082 L 115.0965,110.47317 L 114.55578,111.34806 L 114.01507,112.22296 L 115.17232,113.18339 L 116.32957,114.14381 L 119.99465,113.5694 L 123.65972,112.99498 L 126.55409,109.97328 C 129.55775,106.83751 129.34682,108.0121 126.29872,111.39549 L 124.5662,113.31858 L 120.94764,114.22974 L 117.32909,115.14091 L 116.7854,116.02061 L 116.2417,116.90034 L 117.85004,116.33836 L 119.45835,115.77638 L 117.24581,117.66605 L 115.03327,119.55572 L 114.45997,121.44105 L 113.88667,123.32638 L 115.29899,122.78442 L 116.71132,122.24245 L 116.16004,123.9794 L 115.60876,125.71634 L 116.48321,126.25678 L 117.35765,126.79722 L 117.35765,125.85777 L 117.35765,124.91831 L 118.28765,125.49307 L 119.21763,126.06785 L 118.18,126.70913 L 117.14236,127.35042 L 117.69706,128.24794 L 118.25176,129.14547 L 119.48043,128.67398 L 120.7091,128.2025 L 120.32796,127.5858 L 119.94682,126.96908 L 123.29885,125.08515 L 126.65088,123.20119 L 128.03753,120.95832 C 128.80017,119.72473 130.46206,117.58106 131.73059,116.19461 C 132.99912,114.80815 135.2943,111.90484 136.83098,109.7428 C 138.36766,107.58076 141.43435,103.2897 143.64585,100.2071 C 145.85735,97.124512 148.78781,92.381615 150.15796,89.667323 L 152.64919,84.732234 L 152.64919,83.027726 L 152.64919,81.323218 L 151.36179,81.323218 C 150.65373,81.323218 148.7821,81.863164 147.20264,82.523103 L 144.33092,83.722995 L 141.71491,86.514411 L 139.09888,89.305828 L 135.84604,96.028021 C 134.05699,99.72523 131.87111,103.6459 130.98856,104.74061 L 129.38389,106.73102 L 127.57214,105.7614 L 125.76041,104.79177 L 125.76041,105.68241 L 125.76041,106.57305 L 123.77976,107.32609 C 122.69039,107.74026 120.04353,108.23614 117.89784,108.42802 L 113.99656,108.77691 L 113.99656,107.28364 L 113.99656,105.79036 L 113.18126,105.28648 L 112.36596,104.78259 L 114.90305,102.50599 L 117.44016,100.2294 L 117.57772,98.338774 L 117.71529,96.44816 L 118.37674,96.44816 L 119.03822,96.44816 L 119.03822,98.079118 L 119.03822,99.710083 L 118.23004,100.20955 L 117.42188,100.70903 L 118.23605,102.85048 L 119.05024,104.99193 L 118.53909,105.81897 L 118.02795,106.64603 L 116.78232,106.16803 L 115.53668,105.69004 L 115.922,106.74096 L 116.30733,107.79187 L 117.46269,107.44002 C 118.09816,107.24651 119.50683,107.11435 120.59311,107.14633 L 122.56816,107.20447 L 121.64345,106.27977 C 121.13488,105.77118 120.71877,104.9803 120.71877,104.52225 L 120.71877,103.68942 L 121.91916,105.32051 L 123.11956,106.95159 L 123.68961,105.48111 L 124.25966,104.01063 L 127.5013,104.01063 L 130.74293,104.01063 L 131.5832,102.44056 L 132.42348,100.8705 L 131.89286,100.33988 L 131.36224,99.809256 L 132.39215,99.809256 L 133.42206,99.809256 L 132.90274,98.968986 L 132.38343,98.128708 L 133.12966,98.128708 L 133.87588,98.128708 L 135.829,93.958723 L 137.78212,89.78873 L 136.83129,88.643053 L 135.88046,87.497368 L 141.47327,84.388809 C 144.54934,82.679094 147.94416,81.059855 149.01736,80.790501 L 150.96865,80.300752 L 150.96865,79.148518 L 150.96865,77.996275 L 147.52611,76.240025 L 144.0836,74.483785 L 144.5122,74.055185 L 144.94078,73.626578 L 148.3051,75.562831 L 151.66943,77.499083 L 153.07768,79.883068 L 154.48593,82.26706 L 153.93183,84.474778 C 153.62707,85.689024 152.69622,87.650872 151.86328,88.834444 C 151.03035,90.018 150.06029,91.914046 149.70761,93.047872 C 149.35493,94.181697 148.64361,95.540332 148.1269,96.067065 C 147.61018,96.593799 144.54055,100.71377 141.30549,105.22255 C 138.07043,109.73133 134.25772,114.80079 132.83279,116.48802 C 131.40786,118.17525 129.99892,120.22486 129.7018,121.04271 L 129.16158,122.52971 L 126.20058,124.27673 L 123.23958,126.02377 L 123.23958,126.83063 L 123.23958,127.63749 L 122.25652,127.02992 L 121.27344,126.42236 L 121.81001,127.82062 L 122.34656,129.21886 L 121.05874,129.21886 L 119.77089,129.21886 L 120.2504,139.09209 C 120.51411,144.52236 120.94225,152.65465 121.20182,157.16384 L 121.67376,165.36238 L 119.72801,166.08216 L 117.78228,166.80195 L 116.64282,173.84885 L 115.50336,180.89575 L 115.20594,192.23946 C 115.04234,198.4785 114.67963,204.94458 114.3999,206.60853 C 114.12018,208.27248 113.85781,210.8118 113.81689,212.25145 L 113.74247,214.86901 L 113.09283,214.46752 L 112.4432,214.06602 L 112.13556,215.5468 L 111.82791,217.02756 L 111.31843,215.16783 z M 101.11235,168.99186 L 100.55217,168.43168 L 99.991988,168.99186 L 99.431806,169.55204 L 100.55217,169.55204 L 101.67254,169.55204 L 101.11235,168.99186 z M 116.2373,166.47103 L 115.67711,165.91086 L 115.67711,167.03122 L 115.67711,168.15157 L 116.2373,167.5914 L 116.79749,167.03122 L 116.2373,166.47103 z M 107.4495,109.92765 C 107.31476,107.86727 107.03276,106.00976 106.82285,105.79986 C 106.61295,105.58994 105.45581,105.86716 104.25146,106.4159 L 102.06171,107.41362 L 102.87511,108.44302 L 103.68851,109.47241 L 103.56139,111.82155 L 103.43428,114.17069 L 105.56439,113.92224 L 107.6945,113.67379 L 107.4495,109.92765 z M 117.07757,103.45045 L 116.51739,102.89027 L 116.51739,104.01063 L 116.51739,105.131 L 117.07757,104.57081 L 117.63775,104.01063 L 117.07757,103.45045 z M 99.081689,212.64448 C 100.3526,212.45194 102.43229,212.45194 103.7032,212.64448 L 106.01395,212.99452 L 101.39245,212.99452 L 96.770936,212.99452 L 99.081689,212.64448 z M 109.53917,193.96802 L 109.9912,192.23946 L 110.73347,192.23946 C 111.86684,192.23946 111.61818,193.59603 110.28143,194.70543 L 109.08714,195.6966 L 109.53917,193.96802 z M 110.88058,187.22988 C 111.99344,184.28155 112.74826,184.52095 111.98078,187.57882 L 111.44373,189.71864 L 110.69244,189.71864 L 109.94117,189.71864 L 110.88058,187.22988 z M 76.184211,153.19307 L 76.184211,151.95903 L 77.444622,152.44268 C 78.137849,152.7087 78.705033,153.26402 78.705033,153.67674 L 78.705033,154.42711 L 77.444622,154.42711 L 76.184211,154.42711 L 76.184211,153.19307 z M 84.685837,146.71072 L 83.540198,144.87626 L 83.297982,131.58234 L 83.055765,118.28842 L 83.821366,118.76159 L 84.586959,119.23475 L 84.586959,131.41087 L 84.586959,143.58698 L 85.868942,146.06608 L 87.150933,148.54519 L 86.491212,148.54519 C 86.128358,148.54519 85.315941,147.71967 84.685837,146.71072 z M 93.829978,142.711 L 93.829978,141.98738 L 96.140731,141.11499 C 97.411648,140.63517 101.94913,138.33205 106.22403,135.99696 L 113.99656,131.75133 L 113.99573,132.37571 C 113.99487,133.02936 102.54179,139.52565 97.030405,141.9986 L 93.829978,143.43462 L 93.829978,142.711 z M 74.78375,140.42252 L 75.343936,139.86235 L 75.904122,140.42252 L 76.4643,140.98271 L 75.343936,140.98271 L 74.223573,140.98271 L 74.78375,140.42252 z M 103.073,140.57965 C 103.073,139.95248 109.91108,136.61713 110.33263,137.0387 C 110.53866,137.24472 109.34603,138.21641 107.68236,139.198 C 104.7683,140.91733 103.073,141.42548 103.073,140.57965 z M 97.191075,138.91159 C 97.191075,138.69678 98.041852,138.06769 99.081689,137.5136 L 100.97231,136.5062 L 99.819086,137.90418 C 98.745358,139.20579 97.191075,139.80158 97.191075,138.91159 z M 87.704588,120.81612 L 87.265113,119.13557 L 88.02672,119.13557 L 88.788326,119.13557 L 88.788326,120.81612 C 88.788326,121.74042 88.643363,122.49667 88.466194,122.49667 C 88.289018,122.49667 87.946299,121.74042 87.704588,120.81612 z M 15.684444,112.41338 C 15.684444,111.95123 15.851189,111.5731 16.054988,111.5731 C 16.258788,111.5731 16.65923,111.95123 16.944856,112.41338 L 17.46417,113.25365 L 16.574311,113.25365 L 15.684444,113.25365 L 15.684444,112.41338 z M 88.788326,112.41338 L 88.788326,111.29301 L 89.348516,111.85319 L 89.908691,112.41338 L 89.348516,112.97356 L 88.788326,113.53374 L 88.788326,112.41338 z M 74.503661,107.37173 L 74.503661,106.25137 L 75.063847,106.81154 L 75.624025,107.37173 L 75.063847,107.93192 L 74.503661,108.49209 L 74.503661,107.37173 z M 87.581937,103.76432 L 88.155666,102.2576 L 88.626048,102.72799 L 89.09643,103.19836 L 88.052327,104.23471 L 87.008216,105.27104 L 87.581937,103.76432 z M 122.39931,103.73054 L 122.39931,102.33008 L 123.86978,102.34294 L 125.34027,102.35582 L 124.5,102.98293 C 124.03785,103.32784 123.37613,103.95226 123.02952,104.37052 L 122.39931,105.131 L 122.39931,103.73054 z M 127.23089,102.61386 L 128.28124,102.19003 L 129.33158,102.61386 L 130.38192,103.03768 L 128.28124,103.03768 L 126.18055,103.03768 L 127.23089,102.61386 z M 119.57828,101.07921 L 119.16954,100.01405 L 119.91662,99.266956 L 120.66371,98.519867 L 120.16067,96.596216 L 119.65763,94.672558 L 118.29758,95.192126 L 116.93753,95.711695 L 118.88511,93.893434 L 120.8327,92.075174 L 120.35559,90.831839 C 120.09318,90.14801 119.87849,89.219004 119.87849,88.767375 L 119.87849,87.946238 L 119.00402,88.486673 L 118.12957,89.027116 L 118.67392,90.742186 L 119.21825,92.45724 L 118.34448,91.917224 L 117.47072,91.377209 L 116.51435,86.770345 L 115.55797,82.163489 L 114.84729,82.163489 C 114.45642,82.163489 113.93104,82.636148 113.6798,83.213832 C 113.42855,83.791524 113.47016,83.129806 113.77226,81.74335 C 114.07437,80.356901 114.29523,78.655345 114.26307,77.962117 C 114.23089,77.26889 113.99434,72.353284 113.73737,67.038549 L 113.27017,57.375391 L 114.14541,66.828479 L 115.02065,76.281569 L 115.76901,76.281569 L 116.51739,76.281569 L 116.51739,73.760745 L 116.51739,71.239921 L 117.40725,71.239921 L 118.29712,71.239921 L 117.7778,72.080196 L 117.25849,72.92047 L 118.56848,72.92047 L 119.87849,72.92047 L 119.87849,70.819783 L 119.87849,68.719098 L 120.6115,68.719098 L 121.34452,68.719098 L 121.24171,76.911775 L 121.13889,85.104454 L 120.29863,85.721797 L 119.45835,86.339131 L 120.4591,86.352001 C 121.00951,86.359073 121.69355,85.986745 121.97917,85.524593 C 122.2648,85.062433 122.8766,84.684315 123.33876,84.684315 L 124.17904,84.684315 L 123.57147,85.667388 L 122.96389,86.650461 L 124.15532,86.193267 L 125.34674,85.736073 L 125.37807,88.092274 L 125.4094,90.448483 L 124.74463,90.037631 C 124.379,89.811664 124.07986,89.081914 124.07986,88.41596 C 124.07986,87.053145 123.91831,86.99743 122.0479,87.715182 C 121.31687,87.995697 120.71877,88.60334 120.71877,89.065492 L 120.71877,89.905763 L 122.18924,89.345945 L 123.65972,88.786128 L 122.60938,89.844235 C 122.03169,90.426202 121.55904,91.245294 121.55904,91.66447 L 121.55904,92.426589 L 122.81945,91.942917 L 124.07986,91.459261 L 124.07986,92.216539 L 124.07986,92.973809 L 122.44219,93.493587 L 120.80452,94.013365 L 121.19107,95.020693 L 121.57761,96.028021 L 123.73203,96.028021 L 125.88646,96.028021 L 125.45012,93.507203 L 125.01381,90.986376 L 125.91495,92.830602 L 126.81609,94.674819 L 126.33965,95.916406 L 125.8632,97.157984 L 124.14147,96.707738 L 122.41973,96.257492 L 121.89538,97.623937 L 121.37103,98.990389 L 122.32301,100.13746 L 123.27501,101.28453 L 121.63102,101.71446 L 119.98702,102.14437 L 119.57828,101.07921 z M 119.35915,83.70983 L 119.89016,81.054796 L 119.46418,80.628821 C 118.77709,79.941736 118.25135,80.846106 117.68153,83.695242 L 117.1476,86.364863 L 117.98787,86.364863 L 118.82814,86.364863 L 119.35915,83.70983 z M 119.87295,76.862182 L 119.87849,76.182392 L 118.89542,76.789959 L 117.91234,77.397528 L 118.44891,75.999271 L 118.98546,74.601019 L 118.17157,74.601019 C 117.72392,74.601019 117.34338,74.884613 117.32593,75.231225 C 117.30847,75.577838 117.09647,77.373926 116.8548,79.222529 L 116.41541,82.583628 L 118.14142,80.062802 C 119.09071,78.676351 119.8699,77.236071 119.87295,76.862182 z M 52.489031,100.43946 C 52.97224,99.861777 54.625565,98.696872 56.16309,97.850781 L 58.958583,96.312437 L 56.017622,98.878517 C 54.400093,100.28986 52.746768,101.45477 52.343571,101.4672 L 51.610474,101.48981 L 52.489031,100.43946 z M 124.55806,100.55559 L 125.13544,99.621363 L 123.97745,98.819997 L 122.81945,98.018624 L 124.71007,98.550425 L 126.60069,99.082234 L 126.65974,97.975266 L 126.71879,96.868299 L 127.44096,98.548847 C 127.83815,99.473152 128.18969,100.51299 128.22217,100.8596 L 128.28124,101.48981 L 126.13095,101.48981 L 123.98068,101.48981 L 124.55806,100.55559 z M 112.63111,98.968986 C 112.85918,98.275754 113.27091,95.649196 113.54608,93.132178 C 113.82124,90.615167 114.27434,88.346428 114.55298,88.090533 L 115.05958,87.62528 L 114.47048,93.087064 L 113.88137,98.548847 L 113.04891,99.389125 L 112.21645,100.2294 L 112.63111,98.968986 z M 104.19336,98.408796 L 104.75355,97.848621 L 105.31373,98.408796 L 105.8739,98.968986 L 104.75355,98.968986 L 103.63318,98.968986 L 104.19336,98.408796 z M 131.22086,96.645364 C 130.39368,96.038622 129.42387,94.1465 127.53921,89.462363 L 126.58793,87.09808 L 127.27577,87.523193 C 127.65409,87.757008 128.69681,89.478311 129.59291,91.348314 C 130.48902,93.218318 131.46533,94.752667 131.7625,94.757975 C 132.05967,94.763275 132.52045,95.334797 132.78647,96.028021 L 133.27013,97.288438 L 132.66631,97.275568 C 132.3342,97.268496 131.68374,96.984904 131.22086,96.645364 z M 81.292201,95.257773 L 81.225855,93.647246 L 81.733525,94.154909 L 82.241188,94.662579 L 81.799856,95.765435 L 81.358539,96.868299 L 81.292201,95.257773 z M 105.1915,92.452717 L 105.70969,90.557961 L 104.39134,90.05207 L 103.073,89.546164 L 103.073,88.43228 L 103.073,87.318396 L 104.54347,86.853648 C 105.35224,86.598034 107.80116,86.05585 109.98552,85.648775 L 113.9571,84.908657 L 113.55575,85.558042 L 113.15441,86.207427 L 108.95397,86.785126 C 104.33223,87.420787 104.34324,87.41122 105.71137,89.601933 L 106.66918,91.135645 L 105.67124,92.741555 L 104.6733,94.347473 L 105.1915,92.452717 z M 131.62555,88.255485 L 132.54174,86.364863 L 131.04168,86.338144 L 129.54165,86.311418 L 131.08151,85.144423 L 132.62138,83.977436 L 130.87145,83.040899 L 129.12151,82.104363 L 129.12151,80.543279 L 129.12151,78.982193 L 130.2901,78.533756 L 131.45869,78.085328 L 131.02403,72.351865 L 130.58939,66.618411 L 129.40472,63.677451 L 128.22003,60.736489 L 130.38532,63.047244 C 132.90996,65.741493 133.77494,65.902506 134.90228,63.888048 L 135.72491,62.418089 L 134.39365,60.947087 L 133.06242,59.476077 L 134.03291,59.476077 L 135.00342,59.476077 L 134.97669,57.585459 L 134.94997,55.694842 L 133.92637,54.414693 C 133.36338,53.710609 131.81191,52.292647 130.47866,51.263663 L 128.05459,49.392783 L 128.99493,49.392783 C 129.51211,49.392783 131.14702,50.475485 132.62804,51.798784 L 135.32084,54.204785 L 135.82764,58.310912 L 136.33445,62.417039 L 135.48908,64.406364 L 134.64372,66.395688 L 136.35407,67.767461 C 137.29476,68.521936 139.36086,70.194561 140.94536,71.484399 L 143.82631,73.829563 L 141.30549,72.363117 C 139.91903,71.55657 137.36561,69.650467 135.63121,68.127334 C 133.89682,66.604203 132.25043,65.357999 131.97259,65.357999 L 131.46741,65.357999 L 132.06247,72.080196 L 132.65752,78.802391 L 131.70342,78.802391 L 130.74932,78.802391 L 130.28521,80.011804 L 129.82112,81.221224 L 132.62234,83.799312 L 135.42357,86.377406 L 133.81524,85.808201 L 132.20692,85.238995 L 132.73798,86.098283 L 133.26904,86.957562 L 131.98919,88.55183 L 130.70935,90.146098 L 131.62555,88.255485 z M 128.75539,87.451453 L 128.18167,85.944732 L 129.22577,86.981063 L 130.26988,88.01741 L 129.7995,88.487785 L 129.32912,88.958175 L 128.75539,87.451453 z M 101.13519,85.827529 L 100.59786,85.290187 L 101.04474,84.567112 C 101.29052,84.169417 101.78442,83.844037 102.14227,83.844037 L 102.79291,83.844037 L 102.79291,85.104454 C 102.79291,86.421518 102.05225,86.744574 101.13519,85.827529 z M 127.72105,83.283854 L 128.28124,82.723679 L 128.84142,83.283854 L 129.40159,83.844037 L 128.28124,83.844037 L 127.16086,83.844037 L 127.72105,83.283854 z M 77.711795,81.140066 L 78.526526,80.325341 L 80.086263,80.655943 L 81.645994,80.986562 L 79.27153,81.470684 L 76.897057,81.954806 L 77.711795,81.140066 z M 126.87641,76.701707 L 126.88318,70.819783 L 127.21391,73.989552 C 127.39581,75.732929 127.39277,78.379793 127.20713,79.871473 L 126.86963,82.583628 L 126.87641,76.701707 z M 99.921967,79.903717 C 100.73073,79.69237 102.05416,79.69237 102.86292,79.903717 L 104.33341,80.287998 L 101.39245,80.287998 L 98.451484,80.287998 L 99.921967,79.903717 z M 107.48444,79.06344 C 108.2932,78.852095 109.61663,78.852095 110.42539,79.06344 L 111.89588,79.447724 L 108.95492,79.447724 L 106.01395,79.447724 L 107.48444,79.06344 z M 94.304526,76.369621 L 93.839631,75.61739 L 95.013068,75.167104 L 96.186498,74.71681 L 96.688782,75.2191 C 96.965046,75.495357 97.191075,76.036485 97.191075,76.421618 L 97.191075,77.121843 L 95.980256,77.121843 C 95.314302,77.121843 94.560226,76.783338 94.304526,76.369621 z M 101.03134,76.3771 L 100.57107,75.632355 L 102.24218,75.195354 L 103.91327,74.758353 L 103.91327,75.940097 L 103.91327,77.121843 L 102.70245,77.121843 C 102.0365,77.121843 101.2845,76.786707 101.03134,76.3771 z M 108.39473,75.861432 L 108.39473,74.554333 L 109.30504,74.857773 L 110.21533,75.161205 L 110.00526,75.931451 C 109.88972,76.355092 109.48009,76.80674 109.09496,76.935117 L 108.39473,77.168528 L 108.39473,75.861432 z M 137.267,75.744229 L 136.72966,75.206892 L 137.15388,74.520514 L 137.57807,73.834143 L 138.80674,74.30563 L 140.03542,74.777116 L 139.57053,75.529346 C 139.02586,76.410634 138.02662,76.503846 137.267,75.744229 z M 126.60069,70.078687 C 126.60069,69.847611 126.9788,69.424861 127.44096,69.139235 C 127.90311,68.853609 128.28124,68.808981 128.28124,69.040057 C 128.28124,69.271133 127.90311,69.693884 127.44096,69.979508 C 126.9788,70.265136 126.60069,70.309762 126.60069,70.078687 z M 93.829978,67.049825 L 93.829978,66.198274 L 94.710614,66.198274 C 95.19497,66.198274 97.611867,64.905705 100.0815,63.325895 C 105.39228,59.928634 109.79519,57.58835 109.79519,58.162778 C 109.79519,58.873794 99.755422,65.425566 96.726661,66.691062 L 93.829978,67.901376 L 93.829978,67.049825 z M 126.88077,67.318636 L 127.44096,66.75846 L 128.00114,67.318636 L 128.56132,67.878824 L 127.44096,67.878824 L 126.32059,67.878824 L 126.88077,67.318636 z M 119.45835,66.198274 L 118.93904,65.357999 L 119.82889,65.357999 L 120.71877,65.357999 L 120.71877,66.198274 C 120.71877,66.660425 120.55202,67.038549 120.34822,67.038549 C 120.14441,67.038549 119.74397,66.660425 119.45835,66.198274 z M 126.08068,63.887519 C 125.77709,62.616604 125.18109,61.133855 124.75624,60.592526 L 123.98382,59.608296 L 125.57234,60.023703 L 127.16086,60.439108 L 127.23343,61.428078 C 127.27336,61.972004 127.50372,63.267817 127.74537,64.307656 L 128.18474,66.198274 L 127.40872,66.198274 L 126.63269,66.198274 L 126.08068,63.887519 z M 131.64233,59.476077 L 131.64233,58.355715 L 132.20252,58.915893 L 132.76269,59.476077 L 132.20252,60.036263 L 131.64233,60.596441 L 131.64233,59.476077 z M 125.76041,57.795529 L 123.65972,57.12277 L 124.6837,57.039014 L 125.70766,56.955254 L 125.17935,55.484775 L 124.65103,54.014293 L 126.88627,56.051378 C 129.99744,58.886751 129.8553,59.106945 125.76041,57.795529 z M 68.085796,36.135763 L 68.62406,35.264845 L 66.829854,35.734037 L 65.03565,36.203229 L 65.415033,35.065086 L 65.794408,33.926942 L 69.120679,32.076801 L 72.446947,30.22666 L 75.160604,29.798985 L 77.874255,29.371302 L 77.399784,30.139027 L 76.925307,30.906744 L 78.605855,30.906744 L 80.286404,30.906744 L 80.805724,31.747019 L 81.325036,32.587293 L 79.174765,32.587293 L 77.024484,32.587293 L 77.024484,31.799241 L 77.024484,31.011189 L 75.343936,31.137777 C 71.542853,31.424109 74.500401,33.427567 78.724167,33.427567 L 81.126682,33.427567 L 81.645994,34.267842 L 82.165306,35.108117 L 78.544558,35.119594 C 76.553142,35.125905 74.009244,35.375745 72.891452,35.674789 L 70.859105,36.218523 L 71.394595,34.823044 L 71.930094,33.427567 L 69.645714,33.525039 L 67.361328,33.62251 L 68.878308,34.015742 L 70.39529,34.408974 L 70.086205,35.336234 C 69.916208,35.846231 69.275464,36.430708 68.662325,36.635088 L 67.547541,37.006682 L 68.085796,36.135763 z M 75.343936,33.757804 C 75.343936,33.57617 74.776751,33.427567 74.083523,33.427567 L 72.823113,33.427567 L 72.823113,34.241473 L 72.823113,35.055372 L 74.083523,34.571709 C 74.776751,34.305688 75.343936,33.939438 75.343936,33.757804 z M 72.543024,32.027107 L 71.982838,31.46693 L 71.422653,32.027107 L 70.862475,32.587293 L 71.982838,32.587293 L 73.103202,32.587293 L 72.543024,32.027107 z "
       id="path2218"
       inkscape:export-xdpi="90"
       inkscape:export-ydpi="90"
       inkscape:export-filename="/home/bersace/WWW/morel/www/.test/resources/styles/santiago/css/img/routier-gauche.png" />
  </g>
</svg>
